<svg width="380" height="83" viewBox="0 0 380 83" fill="none" xmlns="http://www.w3.org/2000/svg">
<path d="M7.56967 42.7603C7.37804 43.0052 7.10974 43.2893 6.75521 43.593C6.40068 43.8967 5.97908 44.1514 5.47125 44.3669C4.97299 44.5727 4.40767 44.6804 3.78484 44.6804C3.07579 44.6804 2.44338 44.5139 1.85888 44.1906C1.28397 43.8673 0.824044 43.4069 0.498261 42.8289C0.162896 42.2509 0 41.5554 0 40.7521C0 40.2623 0.0670847 39.8019 0.191649 39.3512C0.316213 38.9006 0.546164 38.45 0.881529 37.9994C1.21689 37.5488 1.68641 37.1079 2.30923 36.6671C2.92247 36.2263 3.71776 35.7854 4.68553 35.325C5.65329 34.8646 6.83187 34.3944 8.21166 33.9143L7.57925 36.432C6.87019 36.6965 6.21863 36.961 5.60539 37.2353C4.99215 37.5095 4.40766 37.8034 3.85191 38.1365C3.29616 38.4696 2.74041 38.8614 2.18466 39.3023L3.20035 38.1365C3.00871 38.4696 2.87457 38.8124 2.77875 39.1651C2.69251 39.5178 2.6446 39.8803 2.6446 40.2329C2.6446 40.8991 2.83624 41.3987 3.20993 41.7415C3.5932 42.0844 4.05313 42.2509 4.58972 42.2509C5.11672 42.2509 5.62455 42.1138 6.11323 41.8395C6.6019 41.5652 7.08099 41.2125 7.56008 40.8011L7.56967 42.7603ZM4.48432 31.4359C4.75261 31.1812 4.87718 30.8285 4.87718 30.3877C4.87718 29.9469 4.74303 29.5942 4.48432 29.3493C4.21602 29.1044 3.89024 28.977 3.49739 28.977C3.10453 28.977 2.77875 29.1044 2.51046 29.3493C2.24216 29.5942 2.1176 29.9469 2.1176 30.3877C2.1176 30.8285 2.25175 31.1812 2.51046 31.4359C2.77875 31.6906 3.10453 31.8179 3.49739 31.8179C3.89024 31.8277 4.21602 31.7004 4.48432 31.4359ZM7.74214 31.0244C8.01043 30.7697 8.135 30.4269 8.135 29.9959C8.135 29.555 8.00085 29.2024 7.74214 28.9477C7.47385 28.693 7.14807 28.5656 6.75521 28.5656C6.36236 28.5656 6.027 28.693 5.7587 28.9477C5.49041 29.2024 5.35627 29.555 5.35627 29.9959C5.35627 30.4269 5.49041 30.7697 5.7587 31.0244C6.027 31.2792 6.36236 31.4065 6.75521 31.4065C7.14807 31.4065 7.47385 31.2792 7.74214 31.0244ZM7.24388 44.6706V42.006L6.84144 42.584V33.2678L9.48605 32.9543H9.68726V43.3285L8.52786 42.1432H12.4756V44.2396L12.0731 44.651H7.24388V44.6706ZM11.6515 42.5742V44.6706H19.6428L20.0452 44.2592V42.1628H16.0975L17.2569 43.3481V33.8262H17.0749L14.4111 34.1593V40.4778C14.4111 40.9872 14.4399 41.4379 14.5069 41.8199C14.5644 42.202 14.6507 42.486 14.7656 42.6624L15.743 42.1628H12.0636L11.6515 42.5742ZM12.3414 49.1965C12.6097 49.4512 12.9355 49.5785 13.3188 49.5785C13.7116 49.5785 14.047 49.4512 14.3153 49.1965C14.5836 48.9418 14.7177 48.5891 14.7177 48.1483C14.7177 47.7172 14.5836 47.3744 14.3153 47.1197C14.047 46.865 13.7212 46.7376 13.3379 46.7376C12.9451 46.7376 12.6097 46.865 12.3414 47.1197C12.0731 47.3744 11.939 47.7172 11.939 48.1483C11.939 48.5891 12.0731 48.9418 12.3414 49.1965ZM15.5993 48.785C15.8676 49.0299 16.1933 49.1573 16.5766 49.1573C16.9695 49.1573 17.3048 49.0299 17.5731 48.785C17.8414 48.5401 17.9756 48.1874 17.9756 47.7466C17.9756 47.3058 17.8414 46.9531 17.5731 46.7082C17.3048 46.4633 16.9791 46.336 16.5958 46.336C16.2029 46.336 15.8676 46.4633 15.5993 46.7082C15.331 46.9531 15.1968 47.3058 15.1968 47.7466C15.1872 48.1972 15.331 48.5401 15.5993 48.785ZM20.0548 42.153L19.6524 42.5644V44.6608H24.4146L23.5809 42.1432H20.0548V42.153ZM34.5139 44.2592V42.1628C33.7952 42.1628 33.2011 41.9473 32.7316 41.5064C32.2621 41.0656 31.8788 40.3995 31.5626 39.4982L29.8571 34.4923L29.493 34.3062C28.5348 34.3062 27.5862 34.4434 26.6471 34.7176C25.7081 34.9919 24.8649 35.4034 24.0984 35.9519C23.3318 36.5005 22.7186 37.1765 22.2587 37.9798C21.7987 38.7831 21.5688 39.7039 21.5688 40.7423C21.5688 41.4672 21.6742 42.0942 21.8945 42.633C22.1149 43.1718 22.4024 43.6322 22.7665 44.0044C23.1306 44.3767 23.5426 44.6804 23.993 44.9057C24.4433 45.131 24.9128 45.3073 25.3919 45.4151C25.871 45.5229 26.3309 45.5817 26.7621 45.5817C27.3275 45.5817 27.9407 45.5033 28.5923 45.3367C29.2438 45.1702 29.8762 44.9253 30.4991 44.6118L31.0644 42.2019L30.7961 41.9962C30.4128 42.2313 29.905 42.4566 29.2726 42.6624C28.6306 42.8681 27.9599 42.9759 27.2412 42.9759C26.7526 42.9759 26.283 42.8877 25.8327 42.7016C25.3823 42.5252 25.0086 42.2509 24.7212 41.8787C24.4337 41.5162 24.29 41.046 24.29 40.4974C24.29 40.1056 24.3858 39.7137 24.5679 39.3219C24.7499 38.93 25.0278 38.5578 25.4111 38.2247C25.7944 37.8818 26.2639 37.5977 26.8388 37.3626C27.4041 37.1275 28.0748 37.0002 28.851 36.9708L27.7107 36.5789L29.3588 41.0264C29.6942 41.8689 30.0679 42.5644 30.4607 43.0934C30.8536 43.6224 31.3422 44.024 31.9172 44.2885C32.4921 44.553 33.2203 44.6804 34.1018 44.6804L34.5139 44.2592ZM34.2456 49.1965C34.5139 49.4512 34.8396 49.5785 35.2229 49.5785C35.6158 49.5785 35.9511 49.4512 36.2194 49.1965C36.4877 48.9418 36.6219 48.5891 36.6219 48.1483C36.6219 47.7172 36.4877 47.3744 36.2194 47.1197C35.9511 46.865 35.6253 46.7376 35.2421 46.7376C34.8492 46.7376 34.5139 46.865 34.2456 47.1197C33.9773 47.3744 33.8431 47.7172 33.8431 48.1483C33.8431 48.5891 33.9773 48.9418 34.2456 49.1965ZM36.1811 44.6706C37.0339 44.6706 37.7621 44.6314 38.3562 44.5433C38.9502 44.4649 39.4581 44.3375 39.8605 44.171V44.0044C39.803 43.7595 39.7647 43.4461 39.7455 43.064C39.7264 42.682 39.7072 42.3097 39.7072 41.9179C39.6976 41.526 39.6976 41.1929 39.6976 40.9186V33.8066H39.5156L36.8518 34.1397V40.4386C36.8518 40.948 36.8806 41.3987 36.9476 41.7905C37.0051 42.1824 37.0914 42.4665 37.2063 42.6428L38.1837 42.1432H34.5234L34.121 42.5546V44.651H36.1811V44.6706ZM37.5034 48.785C37.7717 49.0299 38.0975 49.1573 38.4807 49.1573C38.8736 49.1573 39.209 49.0299 39.4773 48.785C39.7456 48.5401 39.8797 48.1874 39.8797 47.7466C39.8797 47.3058 39.7456 46.9531 39.4773 46.7082C39.209 46.4633 38.8832 46.336 38.4999 46.336C38.107 46.336 37.7717 46.4633 37.5034 46.7082C37.2351 46.9531 37.1009 47.3058 37.1009 47.7466C37.0914 48.1972 37.2255 48.5401 37.5034 48.785ZM42.256 44.6706H50.8988C51.7708 44.6706 52.5086 44.5628 53.1122 44.3473C53.7255 44.1318 54.2142 43.8379 54.5974 43.4559C54.9807 43.0738 55.2586 42.633 55.431 42.1334C55.6035 41.6338 55.6993 41.095 55.6993 40.5072C55.6993 39.8607 55.5748 39.2239 55.3352 38.6165C55.0957 38.0092 54.7891 37.441 54.4441 36.9316C54.0896 36.4222 53.7351 35.9912 53.3901 35.6385H53.1506C52.7481 35.7365 52.2499 35.805 51.6558 35.8344C51.0617 35.8736 50.4772 35.8834 49.8736 35.8834H49.222C48.5417 35.8834 47.8326 35.8442 47.0852 35.7756C46.3379 35.7071 45.6671 35.5699 45.0731 35.3642H44.8718L44.2011 37.6761C44.6898 37.8524 45.188 37.9994 45.7055 38.0875C46.2229 38.1855 46.7403 38.2541 47.2673 38.2835C47.7943 38.3226 48.2926 38.3325 48.7525 38.3325H49.5094C49.9598 38.3325 50.3431 38.3227 50.6689 38.3031C50.9946 38.2835 51.33 38.2443 51.6845 38.1855C52.0391 38.1267 52.4607 38.0483 52.9685 37.9406L51.6845 37.7545C52.0678 38.1267 52.3648 38.5676 52.5852 39.0672C52.8056 39.5668 52.9206 40.0468 52.9206 40.5268C52.9206 40.8697 52.8439 41.1635 52.6906 41.4085C52.5373 41.6534 52.3074 41.8395 52.0008 41.957C51.6941 42.0844 51.3013 42.1432 50.8317 42.1432H43.1471L42.2752 44.4551V44.6706H42.256ZM58.6026 44.6706H61.4484V32.1118C61.4484 31.8376 61.4485 31.5045 61.458 31.1126C61.4676 30.7208 61.4772 30.3387 61.4963 29.9665C61.5155 29.5942 61.5539 29.2807 61.6114 29.026L61.5922 28.8595L58.6026 29.173V44.6706ZM63.8535 44.6706L64.2559 44.2592V42.1628H60.7969V44.6804H63.8535V44.6706ZM81.9536 44.6706C82.9885 44.6706 83.8413 44.5628 84.5407 44.3571C85.2306 44.1514 85.7864 43.8575 86.208 43.4755C86.6296 43.0934 86.9266 42.6624 87.0991 42.1628C87.2715 41.673 87.3674 41.1439 87.3674 40.5758C87.3674 39.8802 87.2428 39.2239 87.0033 38.5969C86.7637 37.97 86.4571 37.4018 86.1121 36.8924C85.7576 36.383 85.4127 35.9617 85.0773 35.6483H84.8378C84.4353 35.7462 83.9275 35.8148 83.3334 35.8442C82.7393 35.8834 82.1357 35.8932 81.5416 35.8932H68.2995L68.7498 36.6867L75.1792 30.7012L74.039 28.8889H73.8378L65.8848 36.4124C65.9423 37.1765 66.1531 37.6957 66.5268 37.9798C66.9005 38.2639 67.3413 38.4108 67.8396 38.4108H81.1966C81.6278 38.4108 82.0111 38.401 82.3465 38.3814C82.6818 38.3618 83.0172 38.3226 83.3717 38.2639C83.7263 38.2051 84.1479 38.1267 84.6366 38.019L83.3717 37.7741C83.7358 38.1463 84.0329 38.5969 84.2628 39.1161C84.4928 39.6353 84.6078 40.1252 84.6078 40.5856C84.6078 41.1538 84.4161 41.5554 84.0424 41.8003C83.6592 42.0452 83.0364 42.1628 82.1548 42.1628H64.2847L63.8822 42.5742V44.6706H81.9536ZM89.37 28.9967C89.5712 29.3591 89.8682 29.653 90.2611 29.8685C90.654 30.0938 91.1043 30.2016 91.6217 30.2016H92.8865L93.356 28.5558V28.3893H92.0912C91.7559 28.3893 91.4397 28.3403 91.1618 28.2326C90.8839 28.1248 90.6539 27.8995 90.4815 27.5566L90.5581 28.115C90.654 27.6741 90.836 27.3607 91.1139 27.1745C91.3917 26.9982 91.7654 26.9002 92.2254 26.9002H92.8769L93.3465 25.2545V25.0684H92.3116C91.6505 25.0684 91.0756 25.1957 90.5869 25.4504C90.0982 25.7051 89.7245 26.0382 89.4562 26.4594C89.1879 26.8708 89.0634 27.3313 89.0634 27.8309C89.0729 28.2521 89.1688 28.6342 89.37 28.9967ZM98.5015 44.6706C98.8177 44.6706 99.086 44.651 99.3255 44.602C99.5651 44.553 99.7471 44.4649 99.8813 44.3375V44.171L96.5276 38.4108H96.3647L95.3682 40.1153L97.4666 43.8575L97.6104 42.153H91.6121L92.3691 42.4665C92.532 42.3881 92.6949 42.2705 92.8578 42.1236C93.0207 41.9766 93.2027 41.7807 93.3944 41.5162C93.586 41.2615 93.816 40.9089 94.0555 40.468L100.38 29.075V28.8693H97.5912L93.7872 35.5209L94.822 35.3152L92.8482 31.6514H90.0599V31.8376L93.5381 38.0288V35.9519L91.6025 39.3415C91.2001 40.037 90.8743 40.566 90.6252 40.9383C90.3857 41.3105 90.1653 41.5946 89.9832 41.7709C89.8012 41.9472 89.6095 42.1138 89.4275 42.2705C89.4275 43.015 89.6191 43.6028 89.9928 44.0241C90.3761 44.4453 90.8839 44.6608 91.5355 44.6608H98.5015V44.6706ZM102.162 44.6706H105.008V32.1118C105.008 31.8376 105.008 31.5045 105.017 31.1126C105.027 30.7208 105.036 30.3387 105.055 29.9665C105.075 29.5942 105.113 29.2807 105.17 29.026L105.151 28.8595L102.162 29.173V44.6706ZM112.702 43.1718C112.874 43.2502 113.095 43.3383 113.344 43.4363C113.593 43.5244 113.861 43.6126 114.149 43.7106C114.436 43.7987 114.704 43.8771 114.963 43.9457C116.439 44.2885 117.78 44.5041 118.987 44.5726C120.195 44.6412 121.412 44.6804 122.629 44.6804H129.221C130.074 44.6804 130.831 44.6412 131.492 44.553C132.153 44.4747 132.68 44.3473 133.092 44.1808L133.13 44.0143C133.073 43.7693 133.035 43.4559 133.015 43.0738C132.996 42.7016 132.977 42.3195 132.977 41.9277C132.967 41.5358 132.967 41.2027 132.967 40.9284V33.8164H132.766L130.122 34.1494V40.468C130.122 40.9774 130.15 41.428 130.198 41.8101C130.256 42.1922 130.342 42.4763 130.467 42.6526L131.444 42.153H122.638C122.054 42.153 121.345 42.1432 120.511 42.1138C119.677 42.0844 118.825 42.0354 117.953 41.9473C117.081 41.8689 116.285 41.7219 115.567 41.5064C115.413 41.4476 115.203 41.3791 114.934 41.3007C114.666 41.2223 114.388 41.1244 114.12 41.0166C113.852 40.9089 113.641 40.8305 113.488 40.7521H113.305L112.702 43.1718ZM122.753 35.4132C123.021 35.1585 123.146 34.8058 123.146 34.365C123.146 33.9241 123.012 33.5715 122.753 33.3266C122.485 33.0817 122.159 32.9543 121.766 32.9543C121.373 32.9543 121.048 33.0817 120.779 33.3266C120.511 33.5715 120.386 33.9241 120.386 34.365C120.386 34.8058 120.521 35.1585 120.779 35.4132C121.048 35.6679 121.373 35.7952 121.766 35.7952C122.159 35.7952 122.485 35.6679 122.753 35.4132ZM126.011 34.9919C126.279 34.7372 126.404 34.3944 126.404 33.9633C126.404 33.5225 126.27 33.1698 126.011 32.9151C125.743 32.6604 125.417 32.5331 125.024 32.5331C124.631 32.5331 124.296 32.6604 124.028 32.9151C123.759 33.1698 123.625 33.5225 123.625 33.9633C123.625 34.3944 123.759 34.7372 124.028 34.9919C124.296 35.2466 124.631 35.374 125.024 35.374C125.417 35.3838 125.743 35.2466 126.011 34.9919ZM136.446 44.6706H139.291V32.1118C139.291 31.8376 139.291 31.5045 139.301 31.1126C139.311 30.7208 139.32 30.3387 139.339 29.9665C139.359 29.5942 139.397 29.2807 139.454 29.026L139.435 28.8595L136.446 29.173V44.6706ZM141.696 44.6706L142.099 44.2592V42.1628H138.64V44.6804H141.696V44.6706ZM147.254 34.5609C146.717 34.6491 146.21 34.7764 145.74 34.9234L145.453 35.1976C145.328 36.765 145.146 38.0581 144.916 39.0868C144.676 40.1154 144.341 40.8794 143.9 41.3986C143.46 41.9081 142.856 42.1726 142.099 42.1726L141.696 42.584V44.6804C142.904 44.6804 143.9 44.4747 144.676 44.0632C145.453 43.6518 146.075 43.0738 146.526 42.3293C146.976 41.5848 147.311 40.6933 147.513 39.6647C147.714 38.6361 147.858 37.5194 147.944 36.2948L147.493 36.9414C148.413 36.9022 149.228 37.01 149.927 37.2647C150.627 37.5194 151.163 37.8916 151.556 38.3912C151.939 38.881 152.131 39.4688 152.131 40.1447C152.131 40.7815 151.997 41.3987 151.729 42.006C151.46 42.6134 151.068 43.1522 150.55 43.642L151.949 42.7701C151.825 42.7799 151.69 42.7897 151.527 42.7995C151.374 42.8093 151.192 42.7995 150.991 42.7897C150.426 42.7897 149.851 42.7114 149.295 42.5448C148.73 42.3783 148.183 42.1432 147.656 41.8493C147.129 41.5554 146.622 41.1831 146.152 40.7619L144.102 42.4077C144.657 43.1032 145.232 43.6518 145.826 44.073C146.42 44.4845 147.034 44.7783 147.666 44.9547C148.298 45.131 148.95 45.2192 149.63 45.2192C150.665 45.2192 151.575 44.9939 152.361 44.5334C153.147 44.073 153.77 43.4461 154.21 42.6428C154.651 41.8395 154.872 40.9382 154.872 39.939C154.872 38.8614 154.613 37.9014 154.105 37.0785C153.597 36.2557 152.888 35.6091 151.968 35.1487C151.058 34.6883 150.004 34.4531 148.825 34.4531C148.318 34.4237 147.791 34.4727 147.254 34.5609ZM156.97 44.6706H165.613C166.015 44.6706 166.399 44.651 166.743 44.602C167.088 44.553 167.405 44.4845 167.692 44.4061L168.468 43.6616C169.149 43.2698 169.637 42.7897 169.934 42.1922C170.231 41.6044 170.385 40.9578 170.385 40.2525C170.385 39.6255 170.26 39.028 170.02 38.45C169.781 37.872 169.484 37.343 169.139 36.863C168.794 36.3732 168.449 35.9716 168.114 35.6581H167.874C167.472 35.756 166.973 35.8246 166.379 35.854C165.785 35.8932 165.201 35.903 164.597 35.903H163.946C163.265 35.903 162.556 35.8638 161.809 35.7952C161.061 35.7267 160.391 35.5895 159.797 35.3838H159.595L158.925 37.6957C159.413 37.872 159.912 38.019 160.429 38.1071C160.946 38.2051 161.464 38.2737 161.991 38.3031C162.518 38.3423 163.016 38.352 163.476 38.352H164.233C164.683 38.352 165.067 38.3422 165.392 38.3226C165.718 38.3031 166.054 38.2639 166.408 38.2051C166.763 38.1463 167.184 38.068 167.692 37.9602L166.408 37.7741C166.791 38.1463 167.088 38.5773 167.309 39.0769C167.529 39.5668 167.644 40.0468 167.644 40.4974C167.644 41.095 167.472 41.5162 167.136 41.7807C166.801 42.0354 166.264 42.1628 165.546 42.1628H157.861L156.989 44.4747V44.6706H156.97ZM172.176 44.6706L172.579 44.2592V42.1628H164.185V44.6804H172.176V44.6706ZM186.473 44.6706L186.875 44.2592V42.1432H186.405C186.08 42.1432 185.639 41.9962 185.093 41.6926C184.547 41.3987 183.857 40.8893 183.042 40.1839C182.218 39.4786 181.25 38.5186 180.11 37.3038C178.979 36.0891 177.657 34.5707 176.153 32.7388H175.952L174.246 34.8548C175.204 36.0891 176.143 37.2157 177.054 38.2247C177.964 39.2337 178.826 40.1056 179.66 40.8305C180.484 41.5554 181.25 42.1138 181.959 42.486L182.611 42.1334H172.588L172.186 42.5448V44.6608H186.473V44.6706ZM183.56 34.796C183.828 34.5511 183.952 34.1984 183.952 33.7576C183.952 33.3168 183.818 32.9641 183.56 32.7192C183.291 32.4743 182.966 32.3469 182.573 32.3469C182.18 32.3469 181.854 32.4743 181.586 32.7192C181.317 32.9641 181.193 33.3168 181.193 33.7576C181.193 34.1984 181.327 34.5511 181.586 34.796C181.854 35.0409 182.18 35.1683 182.573 35.1683C182.966 35.1683 183.291 35.0507 183.56 34.796ZM186.722 44.6706C187.507 44.6706 188.188 44.7784 188.753 44.9939C189.318 45.2094 189.817 45.4739 190.248 45.7972C190.679 46.1204 191.072 46.4339 191.436 46.7572C192.547 46.1498 193.534 45.611 194.406 45.131C195.278 44.6608 196.006 44.2102 196.61 43.7792C197.214 43.3481 197.674 42.8975 197.98 42.4175C198.297 41.9374 198.45 41.3791 198.45 40.7423V32.1118C198.45 31.72 198.459 31.3282 198.469 30.9265C198.479 30.5249 198.498 30.1526 198.517 29.8097C198.536 29.4669 198.565 29.2122 198.613 29.026L198.536 28.8595L195.604 29.173V41.3399C195.221 41.7415 194.79 42.1236 194.291 42.4762C193.793 42.8289 193.304 43.1424 192.825 43.4069C192.346 43.6812 191.915 43.8967 191.532 44.0632V32.1118C191.532 31.8376 191.532 31.5045 191.541 31.1126C191.551 30.7208 191.56 30.3387 191.58 29.9665C191.599 29.5942 191.637 29.2807 191.695 29.026L191.618 28.8595L188.686 29.173V42.7114C188.418 42.5546 188.111 42.437 187.776 42.3489C187.44 42.2607 187.067 42.2118 186.655 42.2118H186.434C186.195 42.2118 186.051 42.2901 186.003 42.4567C185.965 42.6232 185.945 42.9465 185.945 43.4363C185.945 43.9065 185.965 44.2298 186.003 44.4061C186.041 44.5824 186.185 44.6706 186.434 44.6706H186.722ZM219.942 44.2592V42.1628C219.511 42.1628 219.147 42.0648 218.869 41.8591C218.581 41.6631 218.332 41.3497 218.102 40.9186C217.882 40.4974 217.623 39.9488 217.336 39.2827L215.611 35.0997L215.343 34.9919C214.662 35.1487 213.963 35.3446 213.244 35.6091C212.526 35.8638 211.864 36.1871 211.251 36.5887C210.638 36.9806 210.149 37.4802 209.766 38.0679C209.383 38.6557 209.201 39.3512 209.201 40.1545C209.201 40.7129 209.335 41.2713 209.603 41.8297C209.871 42.3881 210.216 42.9465 210.628 43.4852C211.04 44.024 211.472 44.5628 211.922 45.0918C212.372 45.6208 212.765 46.14 213.12 46.6396L213.1 45.562C212.65 46.1302 212.037 46.6005 211.261 46.9825C210.485 47.3646 209.565 47.5507 208.501 47.5507C207.783 47.5507 207.15 47.5017 206.604 47.4135C206.058 47.3254 205.598 47.2176 205.234 47.1001C204.87 46.9825 204.573 46.8846 204.362 46.816H204.18L203.49 49.2454C204.218 49.5393 204.937 49.7548 205.627 49.9116C206.317 50.0683 207.141 50.1369 208.108 50.1369C209.459 50.1369 210.648 49.9018 211.644 49.4414C212.65 48.9809 213.426 48.354 213.972 47.5801C214.519 46.8062 214.796 45.9735 214.796 45.082C214.796 44.8077 214.701 44.4943 214.509 44.1612C214.317 43.8183 214.087 43.4657 213.81 43.0934C213.532 42.7211 213.254 42.3391 212.966 41.957C212.679 41.575 212.449 41.2027 212.257 40.8207C212.066 40.4484 211.97 40.0958 211.97 39.7823C211.97 39.3904 212.123 39.077 212.42 38.8223C212.717 38.5774 213.081 38.3814 213.513 38.2443C213.944 38.1071 214.356 38.0092 214.768 37.9504L213.589 37.0785L215.496 41.4672C215.755 42.0354 216.042 42.5644 216.368 43.0542C216.694 43.544 217.106 43.9359 217.623 44.22C218.131 44.5041 218.773 44.651 219.549 44.651L219.942 44.2592ZM207.61 41.7709C207.878 41.5162 208.003 41.1636 208.003 40.7227C208.003 40.2917 207.869 39.9488 207.61 39.6941C207.342 39.4394 207.016 39.3121 206.623 39.3121C206.23 39.3121 205.895 39.4394 205.627 39.6941C205.358 39.9488 205.224 40.2917 205.224 40.7227C205.224 41.1636 205.358 41.5162 205.627 41.7709C205.895 42.0256 206.23 42.153 206.623 42.153C207.016 42.153 207.351 42.0256 207.61 41.7709ZM207.6 45.2682C207.869 45.0135 208.003 44.6608 208.003 44.22C208.003 43.7791 207.869 43.4265 207.6 43.1816C207.332 42.9367 207.006 42.8093 206.623 42.8093C206.23 42.8093 205.895 42.9367 205.627 43.1816C205.358 43.4265 205.224 43.7791 205.224 44.22C205.224 44.6608 205.358 45.0135 205.627 45.2682C205.895 45.5229 206.221 45.6502 206.604 45.6502C206.997 45.6502 207.332 45.5229 207.6 45.2682ZM219.942 42.153L219.539 42.5644V44.6608H223.382L223.784 44.2494V42.153H219.942ZM231.555 44.6706L231.958 44.2592V42.1628H227.991L229.15 43.4069V28.8791H228.949L226.304 29.1926V40.4778C226.304 40.9872 226.333 41.4379 226.4 41.8199C226.458 42.202 226.544 42.486 226.659 42.6624L227.636 42.1628H223.794L223.391 42.5742V44.6706H231.555ZM249.895 44.6706C250.451 44.6706 250.949 44.6314 251.39 44.5628C251.83 44.4943 252.223 44.3865 252.578 44.2494L253.574 43.2501C254.101 42.8583 254.475 42.4077 254.705 41.8885C254.925 41.3693 255.04 40.8207 255.04 40.2329C255.04 39.606 254.916 39.0084 254.676 38.4304C254.437 37.8524 254.14 37.3234 253.795 36.8434C253.45 36.3536 253.105 35.952 252.769 35.6385H252.53C252.127 35.7365 251.62 35.805 251.025 35.8344C250.431 35.8736 249.828 35.8834 249.234 35.8834H235.992L236.442 36.6769L242.871 30.6914L241.731 28.8791H241.53L233.577 36.4026C233.634 37.1667 233.845 37.6859 234.219 37.97C234.593 38.2541 235.033 38.401 235.532 38.401H248.889C249.32 38.401 249.703 38.3912 250.039 38.3716C250.374 38.352 250.709 38.3128 251.064 38.2541C251.418 38.1953 251.84 38.1169 252.329 38.0092L251.064 37.7643C251.428 38.1365 251.725 38.5676 251.955 39.0672C252.185 39.557 252.3 40.037 252.3 40.4876C252.3 41.0656 252.108 41.4966 251.735 41.7513C251.351 42.0158 250.728 42.1432 249.847 42.1432H231.977L231.574 42.5546V44.651H249.895V44.6706ZM256.976 44.6706L257.378 44.2592L257.397 42.1628H251.869L249.837 44.6804H256.976V44.6706ZM257.139 49.1965C257.407 49.4512 257.733 49.5785 258.116 49.5785C258.509 49.5785 258.844 49.4512 259.113 49.1965C259.381 48.9418 259.515 48.5891 259.515 48.1483C259.515 47.7172 259.381 47.3744 259.113 47.1197C258.844 46.865 258.518 46.7376 258.135 46.7376C257.742 46.7376 257.407 46.865 257.139 47.1197C256.87 47.3744 256.736 47.7172 256.736 48.1483C256.727 48.5891 256.87 48.9418 257.139 49.1965ZM259.065 44.6706C259.917 44.6706 260.646 44.6314 261.24 44.5433C261.834 44.4649 262.342 44.3375 262.744 44.171V44.0044C262.687 43.7595 262.648 43.4461 262.629 43.064C262.61 42.6918 262.591 42.3097 262.591 41.9179C262.581 41.526 262.581 41.1929 262.581 40.9186V33.8066H262.399L259.735 34.1397V40.4386C259.735 40.948 259.764 41.3987 259.831 41.7905C259.889 42.1824 259.975 42.4665 260.09 42.6428L261.067 42.1432H257.407L257.005 42.5546V44.651H259.065V44.6706ZM260.387 48.785C260.655 49.0299 260.981 49.1573 261.364 49.1573C261.757 49.1573 262.092 49.0299 262.361 48.785C262.629 48.5401 262.763 48.1874 262.763 47.7466C262.763 47.3058 262.629 46.9531 262.361 46.7082C262.092 46.4633 261.767 46.336 261.383 46.336C260.991 46.336 260.655 46.4633 260.387 46.7082C260.119 46.9531 259.985 47.3058 259.985 47.7466C259.985 48.1972 260.119 48.5401 260.387 48.785ZM266.261 42.5742C266.759 43.2795 267.43 43.8085 268.282 44.1514C269.135 44.4943 270.093 44.6706 271.147 44.6706H277.711L278.113 44.2592V42.1628H274.252L273.945 42.2019H271.444C270.735 42.2019 270.151 42.0942 269.662 41.8689C269.183 41.6436 268.819 41.3497 268.57 40.9676C268.33 40.5856 268.206 40.1644 268.206 39.7137C268.206 38.9496 268.455 38.2247 268.944 37.5292C269.442 36.8336 270.199 36.3242 271.214 35.9911L269.729 36.0989C270.39 36.3242 270.956 36.6377 271.416 37.0589C271.876 37.4704 272.249 37.9504 272.546 38.4696C272.834 38.9986 273.054 39.557 273.188 40.1643C273.322 40.7717 273.39 41.3693 273.39 41.9864C273.39 42.9269 273.342 43.7596 273.255 44.4747C273.169 45.1898 273.025 45.8168 272.815 46.3458C272.613 46.8748 272.336 47.3547 272 47.7662L272.853 47.0217C272.47 47.2274 272.067 47.3841 271.626 47.4919C271.186 47.5997 270.649 47.6486 270.007 47.6486C269.528 47.6486 268.991 47.5899 268.378 47.4625C267.765 47.3352 267.19 47.1392 266.653 46.8552H266.452L265.58 49.0985C266.289 49.4316 266.951 49.6765 267.564 49.843C268.177 50.0096 268.905 50.0879 269.729 50.0879C271.099 50.0879 272.268 49.7548 273.227 49.0985C274.185 48.4421 274.923 47.4723 275.43 46.2086C275.938 44.9449 276.197 43.4069 276.197 41.6044C276.197 40.566 276.044 39.6059 275.728 38.7145C275.411 37.823 274.99 37.0589 274.453 36.4026C273.917 35.756 273.313 35.2466 272.652 34.8842C271.991 34.5217 271.31 34.3454 270.62 34.3454C269.969 34.3454 269.336 34.4923 268.723 34.7862C268.11 35.0801 267.554 35.4817 267.075 36.0009C266.596 36.5201 266.213 37.1177 265.925 37.7936C265.638 38.4696 265.494 39.1945 265.494 39.9684C265.513 40.997 265.762 41.8689 266.261 42.5742ZM295.409 44.6706C296.443 44.6706 297.296 44.5628 297.996 44.3571C298.695 44.1514 299.241 43.8575 299.663 43.4755C300.085 43.0934 300.382 42.6624 300.554 42.1628C300.727 41.673 300.822 41.1439 300.822 40.5758C300.822 39.8802 300.698 39.2239 300.458 38.5969C300.219 37.97 299.912 37.4018 299.567 36.8924C299.213 36.383 298.868 35.9617 298.532 35.6483H298.293C297.89 35.7462 297.382 35.8148 296.788 35.8442C296.194 35.8834 295.591 35.8932 294.997 35.8932H281.754L282.205 36.6867L288.634 30.7012L287.494 28.8889H287.293L279.34 36.4124C279.397 37.1765 279.608 37.6957 279.982 37.9798C280.356 38.2639 280.796 38.4108 281.295 38.4108H294.652C295.083 38.4108 295.466 38.401 295.801 38.3814C296.137 38.3618 296.472 38.3226 296.827 38.2639C297.181 38.2051 297.603 38.1267 298.092 38.019L296.827 37.7741C297.191 38.1463 297.488 38.5969 297.718 39.1161C297.948 39.6353 298.063 40.1252 298.063 40.5856C298.063 41.1538 297.871 41.5554 297.497 41.8003C297.114 42.0452 296.491 42.1628 295.61 42.1628H277.74L277.337 42.5742V44.6706H295.409Z" fill="#F0EDFF"/>
<path d="M289.091 64.0261L287.513 64.4725C287.414 64.2096 287.267 63.9541 287.074 63.7061C286.885 63.4531 286.627 63.2447 286.3 63.081C285.973 62.9173 285.553 62.8354 285.042 62.8354C284.343 62.8354 283.76 62.9967 283.294 63.3191C282.832 63.6366 282.602 64.0409 282.602 64.5321C282.602 64.9686 282.76 65.3134 283.078 65.5664C283.395 65.8194 283.892 66.0303 284.566 66.1989L286.263 66.6157C287.285 66.8637 288.046 67.2432 288.547 67.7542C289.048 68.2602 289.299 68.9126 289.299 69.7113C289.299 70.3661 289.11 70.9515 288.733 71.4675C288.361 71.9834 287.84 72.3902 287.171 72.6879C286.501 72.9855 285.722 73.1343 284.834 73.1343C283.668 73.1343 282.703 72.8813 281.939 72.3753C281.175 71.8693 280.692 71.1301 280.488 70.1578L282.155 69.7411C282.314 70.3562 282.614 70.8176 283.056 71.1252C283.502 71.4327 284.085 71.5865 284.804 71.5865C285.623 71.5865 286.273 71.4129 286.754 71.0656C287.24 70.7134 287.483 70.2917 287.483 69.8006C287.483 69.4037 287.344 69.0713 287.067 68.8034C286.789 68.5306 286.362 68.3272 285.787 68.1932L283.882 67.7468C282.835 67.4987 282.066 67.1142 281.575 66.5933C281.089 66.0675 280.845 65.4102 280.845 64.6214C280.845 63.9764 281.027 63.4059 281.389 62.9098C281.756 62.4138 282.254 62.0243 282.884 61.7415C283.519 61.4588 284.239 61.3174 285.042 61.3174C286.174 61.3174 287.062 61.5654 287.706 62.0615C288.356 62.5576 288.818 63.2125 289.091 64.0261Z" fill="#EB6823"/>
<path d="M273.59 73.1343C272.488 73.1343 271.538 72.8913 270.74 72.4051C269.946 71.914 269.333 71.2293 268.902 70.3513C268.475 69.4682 268.262 68.4413 268.262 67.2705C268.262 66.0997 268.475 65.0679 268.902 64.1749C269.333 63.277 269.934 62.5775 270.702 62.0764C271.476 61.5704 272.379 61.3174 273.411 61.3174C274.006 61.3174 274.594 61.4166 275.175 61.615C275.755 61.8135 276.284 62.1359 276.76 62.5824C277.236 63.0239 277.616 63.6093 277.898 64.3386C278.181 65.0679 278.322 65.9658 278.322 67.0324V67.7765H269.512V66.2585H276.537C276.537 65.6136 276.408 65.0381 276.15 64.5321C275.897 64.0261 275.534 63.6267 275.063 63.334C274.597 63.0413 274.046 62.895 273.411 62.895C272.712 62.895 272.106 63.0686 271.595 63.4159C271.089 63.7582 270.7 64.2047 270.427 64.7553C270.154 65.306 270.018 65.8963 270.018 66.5264V67.5384C270.018 68.4016 270.167 69.1333 270.464 69.7336C270.767 70.3289 271.186 70.7829 271.722 71.0954C272.258 71.403 272.88 71.5568 273.59 71.5568C274.051 71.5568 274.468 71.4923 274.84 71.3633C275.217 71.2293 275.542 71.0309 275.815 70.768C276.088 70.5001 276.298 70.1677 276.447 69.7708L278.144 70.2471C277.965 70.8225 277.665 71.3286 277.243 71.7651C276.822 72.1967 276.301 72.5341 275.681 72.7772C275.061 73.0153 274.364 73.1343 273.59 73.1343Z" fill="#EB6823"/>
<path d="M261.736 73.1343C260.664 73.1343 259.742 72.8813 258.968 72.3753C258.194 71.8693 257.598 71.1723 257.182 70.2843C256.765 69.3963 256.557 68.3818 256.557 67.2407C256.557 66.0799 256.77 65.0555 257.197 64.1674C257.628 63.2745 258.228 62.5775 258.997 62.0764C259.771 61.5704 260.674 61.3174 261.706 61.3174C262.51 61.3174 263.234 61.4662 263.879 61.7639C264.524 62.0615 265.052 62.4782 265.464 63.014C265.876 63.5498 266.131 64.1749 266.23 64.8893H264.474C264.34 64.3684 264.043 63.907 263.581 63.5052C263.125 63.0984 262.51 62.895 261.736 62.895C261.051 62.895 260.451 63.0736 259.935 63.4307C259.424 63.783 259.025 64.2815 258.737 64.9265C258.454 65.5664 258.313 66.318 258.313 67.1812C258.313 68.0643 258.452 68.8332 258.73 69.4881C259.012 70.1429 259.409 70.6514 259.92 71.0135C260.436 71.3757 261.041 71.5568 261.736 71.5568C262.192 71.5568 262.606 71.4774 262.979 71.3186C263.351 71.1599 263.666 70.9317 263.924 70.634C264.182 70.3364 264.365 69.9792 264.474 69.5625H266.23C266.131 70.2372 265.886 70.8449 265.494 71.3856C265.107 71.9214 264.593 72.348 263.953 72.6655C263.318 72.9781 262.579 73.1343 261.736 73.1343Z" fill="#EB6823"/>
<path d="M252.118 72.8955V61.4655H253.874V72.8955H252.118ZM253.011 59.5605C252.669 59.5605 252.373 59.4439 252.125 59.2107C251.882 58.9775 251.761 58.6972 251.761 58.3698C251.761 58.0424 251.882 57.7621 252.125 57.5289C252.373 57.2958 252.669 57.1792 253.011 57.1792C253.353 57.1792 253.646 57.2958 253.889 57.5289C254.137 57.7621 254.261 58.0424 254.261 58.3698C254.261 58.6972 254.137 58.9775 253.889 59.2107C253.646 59.4439 253.353 59.5605 253.011 59.5605Z" fill="#EB6823"/>
<path d="M249.801 61.4653L245.574 72.8953H243.788L239.562 61.4653H241.467L244.622 70.5736H244.741L247.896 61.4653H249.801Z" fill="#EB6823"/>
<path d="M232.31 72.8952V61.4652H234.006V63.1916H234.125C234.334 62.6261 234.711 62.1672 235.256 61.815C235.802 61.4627 236.417 61.2866 237.102 61.2866C237.231 61.2866 237.392 61.2891 237.586 61.2941C237.779 61.299 237.925 61.3065 238.025 61.3164V63.1023C237.965 63.0874 237.829 63.0651 237.615 63.0354C237.407 63.0006 237.186 62.9833 236.953 62.9833C236.397 62.9833 235.901 63.0998 235.465 63.333C235.033 63.5612 234.691 63.8787 234.438 64.2855C234.19 64.6873 234.066 65.1462 234.066 65.6622V72.8952H232.31Z" fill="#EB6823"/>
<path d="M224.904 73.1334C223.803 73.1334 222.853 72.8903 222.054 72.4041C221.26 71.913 220.648 71.2284 220.216 70.3503C219.789 69.4672 219.576 68.4403 219.576 67.2695C219.576 66.0988 219.789 65.0669 220.216 64.1739C220.648 63.276 221.248 62.5765 222.017 62.0754C222.791 61.5694 223.694 61.3164 224.726 61.3164C225.321 61.3164 225.909 61.4156 226.489 61.6141C227.07 61.8125 227.598 62.135 228.074 62.5814C228.551 63.023 228.93 63.6084 229.213 64.3376C229.496 65.0669 229.637 65.9648 229.637 67.0314V67.7756H220.826V66.2575H227.851C227.851 65.6126 227.722 65.0371 227.464 64.5311C227.211 64.0251 226.849 63.6257 226.378 63.333C225.911 63.0403 225.361 62.894 224.726 62.894C224.026 62.894 223.421 63.0676 222.91 63.4149C222.404 63.7572 222.014 64.2037 221.742 64.7543C221.469 65.305 221.332 65.8954 221.332 66.5254V67.5374C221.332 68.4006 221.481 69.1324 221.779 69.7326C222.081 70.328 222.501 70.7819 223.036 71.0944C223.572 71.402 224.195 71.5558 224.904 71.5558C225.366 71.5558 225.782 71.4913 226.154 71.3623C226.531 71.2284 226.856 71.0299 227.129 70.767C227.402 70.4991 227.613 70.1667 227.762 69.7698L229.458 70.2461C229.28 70.8216 228.98 71.3276 228.558 71.7641C228.136 72.1957 227.615 72.5331 226.995 72.7762C226.375 73.0143 225.678 73.1334 224.904 73.1334Z" fill="#EB6823"/>
<path d="M217.261 64.0251L215.684 64.4716C215.585 64.2086 215.438 63.9531 215.245 63.7051C215.056 63.4521 214.798 63.2437 214.471 63.08C214.143 62.9163 213.724 62.8345 213.213 62.8345C212.514 62.8345 211.931 62.9957 211.465 63.3181C211.003 63.6356 210.773 64.04 210.773 64.5311C210.773 64.9677 210.931 65.3124 211.249 65.5655C211.566 65.8185 212.062 66.0293 212.737 66.198L214.434 66.6147C215.456 66.8627 216.217 67.2422 216.718 67.7532C217.219 68.2592 217.47 68.9116 217.47 69.7103C217.47 70.3652 217.281 70.9506 216.904 71.4665C216.532 71.9824 216.011 72.3892 215.342 72.6869C214.672 72.9845 213.893 73.1334 213.005 73.1334C211.839 73.1334 210.874 72.8804 210.11 72.3743C209.346 71.8683 208.863 71.1291 208.659 70.1568L210.326 69.7401C210.485 70.3552 210.785 70.8166 211.226 71.1242C211.673 71.4318 212.256 71.5856 212.975 71.5856C213.794 71.5856 214.444 71.4119 214.925 71.0647C215.411 70.7124 215.654 70.2907 215.654 69.7996C215.654 69.4027 215.515 69.0704 215.237 68.8025C214.96 68.5296 214.533 68.3262 213.957 68.1923L212.052 67.7458C211.006 67.4977 210.237 67.1133 209.746 66.5924C209.259 66.0665 209.016 65.4092 209.016 64.6204C209.016 63.9755 209.197 63.405 209.56 62.9089C209.927 62.4128 210.425 62.0233 211.055 61.7406C211.69 61.4578 212.41 61.3164 213.213 61.3164C214.344 61.3164 215.232 61.5645 215.877 62.0605C216.527 62.5566 216.989 63.2115 217.261 64.0251Z" fill="#EB6823"/>
<path d="M196.209 73.1334C195.138 73.1334 194.215 72.8804 193.441 72.3743C192.667 71.8683 192.072 71.1713 191.655 70.2833C191.239 69.3953 191.03 68.3808 191.03 67.2398C191.03 66.0789 191.244 65.0545 191.67 64.1665C192.102 63.2735 192.702 62.5765 193.471 62.0754C194.245 61.5694 195.148 61.3164 196.18 61.3164C196.983 61.3164 197.708 61.4652 198.353 61.7629C198.998 62.0605 199.526 62.4773 199.938 63.013C200.349 63.5488 200.605 64.1739 200.704 64.8883H198.948C198.814 64.3674 198.516 63.906 198.055 63.5042C197.599 63.0974 196.983 62.894 196.209 62.894C195.525 62.894 194.925 63.0726 194.409 63.4298C193.898 63.782 193.498 64.2806 193.211 64.9255C192.928 65.5655 192.786 66.317 192.786 67.1802C192.786 68.0633 192.925 68.8322 193.203 69.4871C193.486 70.1419 193.883 70.6504 194.394 71.0126C194.91 71.3747 195.515 71.5558 196.209 71.5558C196.666 71.5558 197.08 71.4764 197.452 71.3177C197.824 71.1589 198.139 70.9307 198.397 70.6331C198.655 70.3354 198.839 69.9782 198.948 69.5615H200.704C200.605 70.2362 200.359 70.8439 199.967 71.3846C199.58 71.9204 199.067 72.3471 198.427 72.6646C197.792 72.9771 197.053 73.1334 196.209 73.1334Z" fill="#EB6823"/>
<path d="M186.594 72.8955V61.4655H188.35V72.8955H186.594ZM187.486 59.5605C187.144 59.5605 186.849 59.4439 186.601 59.2107C186.358 58.9775 186.236 58.6972 186.236 58.3698C186.236 58.0424 186.358 57.7621 186.601 57.5289C186.849 57.2958 187.144 57.1792 187.486 57.1792C187.829 57.1792 188.121 57.2958 188.365 57.5289C188.613 57.7621 188.737 58.0424 188.737 58.3698C188.737 58.6972 188.613 58.9775 188.365 59.2107C188.121 59.4439 187.829 59.5605 187.486 59.5605Z" fill="#EB6823"/>
<path d="M168.38 72.8952V61.4652H170.077V63.2512H170.225C170.463 62.641 170.848 62.1672 171.379 61.8299C171.91 61.4876 172.547 61.3164 173.291 61.3164C174.045 61.3164 174.673 61.4876 175.174 61.8299C175.68 62.1672 176.074 62.641 176.357 63.2512H176.476C176.769 62.6608 177.208 62.192 177.793 61.8447C178.379 61.4925 179.081 61.3164 179.899 61.3164C180.921 61.3164 181.757 61.6364 182.407 62.2763C183.057 62.9113 183.382 63.9011 183.382 65.2455V72.8952H181.626V65.2455C181.626 64.4021 181.395 63.7994 180.934 63.4372C180.472 63.0751 179.929 62.894 179.304 62.894C178.5 62.894 177.878 63.1371 177.436 63.6232C176.995 64.1045 176.774 64.7147 176.774 65.4538V72.8952H174.988V65.0669C174.988 64.417 174.777 63.8936 174.355 63.4967C173.934 63.0949 173.39 62.894 172.726 62.894C172.269 62.894 171.843 63.0155 171.446 63.2586C171.054 63.5017 170.736 63.839 170.493 64.2706C170.255 64.6973 170.136 65.1909 170.136 65.7515V72.8952H168.38Z" fill="#EB6823"/>
<path d="M160.976 73.1334C159.875 73.1334 158.925 72.8903 158.126 72.4041C157.333 71.913 156.72 71.2284 156.288 70.3503C155.862 69.4672 155.648 68.4403 155.648 67.2695C155.648 66.0988 155.862 65.0669 156.288 64.1739C156.72 63.276 157.32 62.5765 158.089 62.0754C158.863 61.5694 159.766 61.3164 160.798 61.3164C161.393 61.3164 161.981 61.4156 162.562 61.6141C163.142 61.8125 163.67 62.135 164.147 62.5814C164.623 63.023 165.002 63.6084 165.285 64.3376C165.568 65.0669 165.709 65.9648 165.709 67.0314V67.7756H156.899V66.2575H163.923C163.923 65.6126 163.794 65.0371 163.536 64.5311C163.283 64.0251 162.921 63.6257 162.45 63.333C161.984 63.0403 161.433 62.894 160.798 62.894C160.098 62.894 159.493 63.0676 158.982 63.4149C158.476 63.7572 158.087 64.2037 157.814 64.7543C157.541 65.305 157.405 65.8954 157.405 66.5254V67.5374C157.405 68.4006 157.553 69.1324 157.851 69.7326C158.154 70.328 158.573 70.7819 159.109 71.0944C159.644 71.402 160.267 71.5558 160.976 71.5558C161.438 71.5558 161.855 71.4913 162.227 71.3623C162.604 71.2284 162.929 71.0299 163.201 70.767C163.474 70.4991 163.685 70.1667 163.834 69.7698L165.531 70.2461C165.352 70.8216 165.052 71.3276 164.63 71.7641C164.209 72.1957 163.688 72.5331 163.068 72.7762C162.447 73.0143 161.75 73.1334 160.976 73.1334Z" fill="#EB6823"/>
<path d="M147.485 73.1334C146.532 73.1334 145.691 72.8928 144.962 72.4116C144.233 71.9254 143.662 71.2408 143.25 70.3578C142.839 69.4698 142.633 68.4205 142.633 67.21C142.633 66.0095 142.839 64.9677 143.25 64.0847C143.662 63.2016 144.235 62.5195 144.969 62.0383C145.704 61.5571 146.552 61.3164 147.514 61.3164C148.259 61.3164 148.846 61.4405 149.278 61.6885C149.715 61.9316 150.047 62.2094 150.275 62.522C150.508 62.8295 150.689 63.0825 150.818 63.281H150.967V57.6553H152.723V72.8953H151.027V71.1391H150.818C150.689 71.3475 150.506 71.6104 150.268 71.9279C150.03 72.2404 149.69 72.5207 149.248 72.7688C148.807 73.0119 148.219 73.1334 147.485 73.1334ZM147.723 71.5558C148.427 71.5558 149.023 71.3723 149.509 71.0052C149.995 70.6331 150.364 70.1196 150.617 69.4648C150.87 68.805 150.997 68.0435 150.997 67.1803C150.997 66.327 150.873 65.5804 150.625 64.9404C150.377 64.2955 150.01 63.7944 149.524 63.4372C149.037 63.0751 148.437 62.894 147.723 62.894C146.979 62.894 146.358 63.085 145.862 63.467C145.371 63.844 145.002 64.3575 144.754 65.0074C144.511 65.6523 144.389 66.3766 144.389 67.1803C144.389 67.9939 144.513 68.7331 144.761 69.3978C145.014 70.0576 145.386 70.5835 145.877 70.9754C146.373 71.3624 146.989 71.5558 147.723 71.5558Z" fill="#EB6823"/>
<path d="M134.724 73.1631C134 73.1631 133.343 73.0267 132.753 72.7539C132.162 72.476 131.693 72.0767 131.346 71.5558C130.999 71.0299 130.825 70.3949 130.825 69.6508C130.825 68.9959 130.954 68.4651 131.212 68.0583C131.47 67.6466 131.815 67.3241 132.247 67.0909C132.678 66.8578 133.154 66.6841 133.675 66.57C134.201 66.451 134.729 66.3567 135.26 66.2873C135.955 66.198 136.518 66.131 136.949 66.0863C137.386 66.0367 137.704 65.9549 137.902 65.8408C138.105 65.7267 138.207 65.5282 138.207 65.2455V65.1859C138.207 64.4517 138.006 63.8812 137.604 63.4744C137.207 63.0676 136.605 62.8642 135.796 62.8642C134.958 62.8642 134.3 63.0478 133.824 63.4149C133.348 63.782 133.013 64.1739 132.819 64.5906L131.153 63.9953C131.45 63.3008 131.847 62.76 132.343 62.3731C132.844 61.9812 133.39 61.7083 133.98 61.5545C134.576 61.3958 135.161 61.3164 135.737 61.3164C136.104 61.3164 136.525 61.3611 137.002 61.4504C137.483 61.5347 137.947 61.7108 138.393 61.9787C138.845 62.2466 139.219 62.6509 139.517 63.1916C139.814 63.7324 139.963 64.4567 139.963 65.3645V72.8952H138.207V71.3474H138.118C137.999 71.5955 137.8 71.8609 137.522 72.1437C137.245 72.4264 136.875 72.667 136.414 72.8655C135.952 73.0639 135.389 73.1631 134.724 73.1631ZM134.992 71.5856C135.687 71.5856 136.272 71.4491 136.749 71.1763C137.23 70.9034 137.592 70.5512 137.835 70.1196C138.083 69.688 138.207 69.2341 138.207 68.7578V67.1505C138.133 67.2398 137.969 67.3216 137.716 67.396C137.468 67.4655 137.18 67.5275 136.853 67.5821C136.53 67.6317 136.215 67.6763 135.908 67.716C135.605 67.7507 135.359 67.7805 135.171 67.8053C134.715 67.8648 134.288 67.9616 133.891 68.0955C133.499 68.2245 133.182 68.4205 132.939 68.6834C132.7 68.9414 132.581 69.2936 132.581 69.7401C132.581 70.3503 132.807 70.8116 133.259 71.1242C133.715 71.4318 134.293 71.5856 134.992 71.5856Z" fill="#EB6823"/>
<path d="M124.299 73.1334C123.228 73.1334 122.305 72.8804 121.531 72.3743C120.757 71.8683 120.162 71.1713 119.745 70.2833C119.328 69.3953 119.12 68.3808 119.12 67.2398C119.12 66.0789 119.333 65.0545 119.76 64.1665C120.192 63.2735 120.792 62.5765 121.561 62.0754C122.335 61.5694 123.238 61.3164 124.27 61.3164C125.073 61.3164 125.798 61.4652 126.442 61.7629C127.087 62.0605 127.616 62.4773 128.027 63.013C128.439 63.5488 128.695 64.1739 128.794 64.8883H127.038C126.904 64.3674 126.606 63.906 126.145 63.5042C125.688 63.0974 125.073 62.894 124.299 62.894C123.615 62.894 123.014 63.0726 122.499 63.4298C121.988 63.782 121.588 64.2806 121.3 64.9255C121.018 65.5655 120.876 66.317 120.876 67.1802C120.876 68.0633 121.015 68.8322 121.293 69.4871C121.576 70.1419 121.973 70.6504 122.484 71.0126C123 71.3747 123.605 71.5558 124.299 71.5558C124.756 71.5558 125.17 71.4764 125.542 71.3177C125.914 71.1589 126.229 70.9307 126.487 70.6331C126.745 70.3354 126.929 69.9782 127.038 69.5615H128.794C128.695 70.2362 128.449 70.8439 128.057 71.3846C127.67 71.9204 127.157 72.3471 126.517 72.6646C125.882 72.9771 125.143 73.1334 124.299 73.1334Z" fill="#EB6823"/>
<path d="M111.212 73.1631C110.488 73.1631 109.83 73.0267 109.24 72.7539C108.649 72.476 108.181 72.0767 107.833 71.5558C107.486 71.0299 107.312 70.3949 107.312 69.6508C107.312 68.9959 107.441 68.4651 107.699 68.0583C107.957 67.6466 108.302 67.3241 108.734 67.0909C109.165 66.8578 109.642 66.6841 110.163 66.57C110.688 66.451 111.217 66.3567 111.748 66.2873C112.442 66.198 113.005 66.131 113.437 66.0863C113.873 66.0367 114.191 65.9549 114.389 65.8408C114.593 65.7267 114.694 65.5282 114.694 65.2455V65.1859C114.694 64.4517 114.493 63.8812 114.092 63.4744C113.695 63.0676 113.092 62.8642 112.283 62.8642C111.445 62.8642 110.788 63.0478 110.311 63.4149C109.835 63.782 109.5 64.1739 109.307 64.5906L107.64 63.9953C107.938 63.3008 108.334 62.76 108.831 62.3731C109.332 61.9812 109.877 61.7083 110.468 61.5545C111.063 61.3958 111.648 61.3164 112.224 61.3164C112.591 61.3164 113.013 61.3611 113.489 61.4504C113.97 61.5347 114.434 61.7108 114.88 61.9787C115.332 62.2466 115.706 62.6509 116.004 63.1916C116.302 63.7324 116.451 64.4567 116.451 65.3645V72.8952H114.694V71.3474H114.605C114.486 71.5955 114.288 71.8609 114.01 72.1437C113.732 72.4264 113.362 72.667 112.901 72.8655C112.44 73.0639 111.877 73.1631 111.212 73.1631ZM111.48 71.5856C112.174 71.5856 112.76 71.4491 113.236 71.1763C113.717 70.9034 114.079 70.5512 114.322 70.1196C114.57 69.688 114.694 69.2341 114.694 68.7578V67.1505C114.62 67.2398 114.456 67.3216 114.203 67.396C113.955 67.4655 113.667 67.5275 113.34 67.5821C113.018 67.6317 112.703 67.6763 112.395 67.716C112.092 67.7507 111.847 67.7805 111.658 67.8053C111.202 67.8648 110.775 67.9616 110.378 68.0955C109.986 68.2245 109.669 68.4205 109.426 68.6834C109.188 68.9414 109.069 69.2936 109.069 69.7401C109.069 70.3503 109.294 70.8116 109.746 71.1242C110.202 71.4318 110.78 71.5856 111.48 71.5856Z" fill="#EB6823"/>
<path d="M100.051 72.8952V61.4652H101.747V63.1916H101.866C102.075 62.6261 102.452 62.1672 102.998 61.815C103.543 61.4627 104.158 61.2866 104.843 61.2866C104.972 61.2866 105.133 61.2891 105.327 61.2941C105.52 61.299 105.667 61.3065 105.766 61.3164V63.1023C105.706 63.0874 105.57 63.0651 105.357 63.0354C105.148 63.0006 104.927 62.9833 104.694 62.9833C104.139 62.9833 103.643 63.0998 103.206 63.333C102.774 63.5612 102.432 63.8787 102.179 64.2855C101.931 64.6873 101.807 65.1462 101.807 65.6622V72.8952H100.051Z" fill="#EB6823"/>
<path d="M92.1909 73.1334C91.1591 73.1334 90.2537 72.8878 89.4748 72.3967C88.7009 71.9055 88.0957 71.2184 87.6591 70.3354C87.2275 69.4523 87.0117 68.4205 87.0117 67.2398C87.0117 66.0491 87.2275 65.0098 87.6591 64.1218C88.0957 63.2338 88.7009 62.5442 89.4748 62.0531C90.2537 61.562 91.1591 61.3164 92.1909 61.3164C93.2228 61.3164 94.1257 61.562 94.8996 62.0531C95.6785 62.5442 96.2837 63.2338 96.7153 64.1218C97.1519 65.0098 97.3702 66.0491 97.3702 67.2398C97.3702 68.4205 97.1519 69.4523 96.7153 70.3354C96.2837 71.2184 95.6785 71.9055 94.8996 72.3967C94.1257 72.8878 93.2228 73.1334 92.1909 73.1334ZM92.1909 71.5558C92.9748 71.5558 93.6197 71.3549 94.1257 70.953C94.6317 70.5512 95.0063 70.0229 95.2494 69.368C95.4924 68.7132 95.614 68.0038 95.614 67.2398C95.614 66.4758 95.4924 65.7639 95.2494 65.1041C95.0063 64.4443 94.6317 63.911 94.1257 63.5042C93.6197 63.0974 92.9748 62.894 92.1909 62.894C91.4071 62.894 90.7622 63.0974 90.2562 63.5042C89.7502 63.911 89.3756 64.4443 89.1325 65.1041C88.8894 65.7639 88.7679 66.4758 88.7679 67.2398C88.7679 68.0038 88.8894 68.7132 89.1325 69.368C89.3756 70.0229 89.7502 70.5512 90.2562 70.953C90.7622 71.3549 91.4071 71.5558 92.1909 71.5558Z" fill="#EB6823"/>
<path d="M76.3262 72.8953V57.6553H85.4642V59.2924H78.1716V64.4418H84.7796V66.079H78.1716V72.8953H76.3262Z" fill="#EB6823"/>
<path d="M59.6618 77.1816C59.3641 77.1816 59.0987 77.1568 58.8655 77.1072C58.6324 77.0625 58.4711 77.0179 58.3818 76.9732L58.8283 75.4254C59.255 75.5346 59.632 75.5742 59.9594 75.5445C60.2868 75.5147 60.577 75.3684 60.8301 75.1054C61.088 74.8475 61.3237 74.4283 61.537 73.8478L61.8644 72.9549L57.6377 61.4653H59.5427L62.6979 70.5736H62.8169L65.9721 61.4653H67.8771L63.0253 74.5622C62.807 75.1526 62.5366 75.6412 62.2142 76.0282C61.8917 76.4201 61.5172 76.7103 61.0905 76.8988C60.6688 77.0873 60.1926 77.1816 59.6618 77.1816Z" fill="#EB6823"/>
<path d="M55.3138 57.6553V72.8953H53.5576V57.6553H55.3138Z" fill="#EB6823"/>
<path d="M43.7963 68.7281L43.7665 66.5552H44.1237L49.1243 61.4653H51.2972L45.9692 66.8529H45.8204L43.7963 68.7281ZM42.1592 72.8953V57.6553H43.9154V72.8953H42.1592ZM49.422 72.8953L44.9572 67.2398L46.2073 66.0194L51.6544 72.8953H49.422Z" fill="#EB6823"/>
<path d="M35.0972 73.1334C34.0256 73.1334 33.1029 72.8804 32.329 72.3743C31.5551 71.8683 30.9598 71.1713 30.543 70.2833C30.1263 69.3953 29.918 68.3808 29.918 67.2398C29.918 66.0789 30.1313 65.0545 30.5579 64.1665C30.9895 63.2735 31.5898 62.5765 32.3588 62.0754C33.1327 61.5694 34.0356 61.3164 35.0674 61.3164C35.8711 61.3164 36.5954 61.4652 37.2403 61.7629C37.8852 62.0605 38.4136 62.4773 38.8253 63.013C39.2371 63.5488 39.4926 64.1739 39.5918 64.8883H37.8356C37.7017 64.3674 37.404 63.906 36.9427 63.5042C36.4863 63.0974 35.8711 62.894 35.0972 62.894C34.4126 62.894 33.8123 63.0726 33.2964 63.4298C32.7854 63.782 32.386 64.2806 32.0983 64.9255C31.8155 65.5655 31.6741 66.317 31.6741 67.1802C31.6741 68.0633 31.813 68.8322 32.0909 69.4871C32.3736 70.1419 32.7705 70.6504 33.2815 71.0126C33.7974 71.3747 34.4027 71.5558 35.0972 71.5558C35.5536 71.5558 35.9678 71.4764 36.3399 71.3177C36.712 71.1589 37.027 70.9307 37.285 70.6331C37.5429 70.3354 37.7265 69.9782 37.8356 69.5615H39.5918C39.4926 70.2362 39.247 70.8439 38.8551 71.3846C38.4682 71.9204 37.9547 72.3471 37.3147 72.6646C36.6797 72.9771 35.9406 73.1334 35.0972 73.1334Z" fill="#EB6823"/>
<path d="M25.4812 72.8955V61.4655H27.2374V72.8955H25.4812ZM26.3742 59.5605C26.0319 59.5605 25.7367 59.4439 25.4887 59.2107C25.2456 58.9775 25.124 58.6972 25.124 58.3698C25.124 58.0424 25.2456 57.7621 25.4887 57.5289C25.7367 57.2958 26.0319 57.1792 26.3742 57.1792C26.7165 57.1792 27.0092 57.2958 27.2523 57.5289C27.5003 57.7621 27.6243 58.0424 27.6243 58.3698C27.6243 58.6972 27.5003 58.9775 27.2523 59.2107C27.0092 59.4439 26.7165 59.5605 26.3742 59.5605Z" fill="#EB6823"/>
<path d="M20.5089 68.2221V61.4653H22.2651V72.8953H20.5089V70.9606H20.3899C20.122 71.541 19.7053 72.0346 19.1397 72.4414C18.5742 72.8433 17.8598 73.0442 16.9966 73.0442C16.2822 73.0442 15.6472 72.8879 15.0916 72.5754C14.536 72.2579 14.0994 71.7816 13.7819 71.1466C13.4644 70.5066 13.3057 69.7005 13.3057 68.7281V61.4653H15.0618V68.6091C15.0618 69.4425 15.295 70.1073 15.7613 70.6034C16.2326 71.0995 16.8329 71.3475 17.5622 71.3475C17.9987 71.3475 18.4427 71.2359 18.8942 71.0127C19.3506 70.7894 19.7326 70.4471 20.0401 69.9857C20.3527 69.5244 20.5089 68.9365 20.5089 68.2221Z" fill="#EB6823"/>
<path d="M8.33438 77.1815V71.1391H8.18555C8.05657 71.3474 7.87301 71.6104 7.63489 71.9279C7.39676 72.2404 7.05694 72.5207 6.61541 72.7687C6.17389 73.0118 5.58602 73.1334 4.8518 73.1334C3.8993 73.1334 3.05842 72.8928 2.32916 72.4115C1.5999 71.9254 1.0294 71.2408 0.617637 70.3577C0.205879 69.4697 0 68.4205 0 67.21C0 66.0095 0.205879 64.9677 0.617637 64.0846C1.0294 63.2016 1.60238 62.5194 2.3366 62.0382C3.07082 61.557 3.91914 61.3164 4.88157 61.3164C5.62571 61.3164 6.21358 61.4404 6.64518 61.6885C7.08174 61.9316 7.41413 62.2094 7.64233 62.5219C7.87549 62.8295 8.05657 63.0825 8.18555 63.2809H8.39391V61.4652H10.0906V77.1815H8.33438ZM5.08992 71.5558C5.79438 71.5558 6.38969 71.3722 6.87586 71.0051C7.36204 70.6331 7.73163 70.1196 7.98463 69.4647C8.23764 68.8049 8.36415 68.0434 8.36415 67.1802C8.36415 66.327 8.24012 65.5803 7.99208 64.9404C7.74403 64.2955 7.37692 63.7944 6.89075 63.4372C6.40457 63.0751 5.8043 62.894 5.08992 62.894C4.34578 62.894 3.72567 63.085 3.22957 63.467C2.73844 63.844 2.36885 64.3575 2.1208 65.0073C1.87772 65.6523 1.75617 66.3766 1.75617 67.1802C1.75617 67.9938 1.8802 68.733 2.12824 69.3978C2.38125 70.0576 2.75332 70.5834 3.24446 70.9754C3.74055 71.3623 4.35571 71.5558 5.08992 71.5558Z" fill="#EB6823"/>
<path d="M374.277 58.4618C371.596 57.3624 371.596 57.3624 370.515 54.7462L370.478 54.6534C367.324 47.046 364.694 39.0258 362.444 30.1938C362.291 29.5908 362.138 28.9831 361.989 28.3754C361.948 28.2038 361.906 28.0322 361.864 27.8606C361.256 25.3603 360.663 22.8276 360.087 20.3691L359.888 19.5202C359.712 18.7549 359.535 17.9895 359.355 17.2288L359.183 16.4912L358.19 16.8159L358.251 17.1035C359.067 20.9768 359.874 24.5346 360.695 27.8652C360.89 28.6584 361.085 29.4331 361.284 30.2031C362.736 35.8483 364.239 40.8441 365.909 45.6127C366.953 48.5907 368.149 51.6058 369.207 54.2638C369.56 55.1451 369.908 56.0265 370.255 56.9078C370.413 57.3114 370.446 57.5943 370.181 57.9933C368.316 60.8321 365.645 63.2164 361.781 65.4847C358.107 67.6417 354.206 69.0704 350.875 70.1836C350.838 70.1976 350.792 70.2022 350.727 70.2115C350.81 69.7569 350.894 69.3162 350.977 68.8709C351.191 67.7484 351.409 66.5887 351.599 65.4058C351.812 64.0977 352.035 62.7943 352.253 61.4908L352.267 61.398C352.879 57.752 353.51 53.9808 354.025 50.256C354.86 44.2118 355.421 39.2856 355.792 34.7536C355.917 33.246 356.01 31.7153 356.094 30.1984C356.135 29.4099 356.172 28.6306 356.21 27.8606C356.261 26.738 356.302 25.634 356.344 24.581C356.418 22.7627 356.483 21.1252 356.571 19.4785C356.604 18.894 356.377 18.574 355.787 18.3699C355.43 18.2446 355.05 18.124 354.6 17.9849L354.507 17.9524L352.577 18.5461L353.64 18.843C354.145 18.9868 354.563 19.112 354.962 19.2419C355.384 19.3765 355.486 19.5249 355.463 19.9563C355.421 20.9629 355.389 21.988 355.356 22.9807L355.342 23.3657C355.296 24.8408 355.245 26.353 355.157 27.8559C355.133 28.2641 355.106 28.6723 355.073 29.0759C355.041 29.4609 355.004 29.8273 354.957 30.1892C354.702 32.1838 354.206 33.8583 353.436 35.2778C353.102 35.8993 352.596 36.4606 352.095 37.0126C351.933 37.1889 351.743 37.4023 351.562 37.6156C351.32 37.8986 351.112 37.9032 350.727 37.6249C349.057 36.4282 347.447 35.6628 345.81 35.2824C343.184 34.6701 340.559 35.185 337.789 36.8549C337.391 37.0961 337.001 37.3559 336.634 37.6017C336.491 37.6991 336.347 37.7966 336.194 37.8986C334.208 36.6044 333.448 34.5912 332.924 32.6013C332.715 31.8034 332.557 31.0009 332.432 30.1938C332.316 29.4191 332.228 28.6398 332.167 27.8559C332.047 26.3112 332.014 24.7619 331.982 23.2405V23.2126C331.968 22.5354 331.954 21.8628 331.935 21.1855C331.88 19.3857 331.88 19.3857 333.596 18.8848C333.819 18.8198 334.041 18.7595 334.264 18.6992L335.354 18.407L333.383 17.8039L333.29 17.8318C332.641 18.0173 332.107 18.1843 331.611 18.3559C331.068 18.5461 330.743 18.8013 330.785 19.511C330.924 21.7468 331.045 24.0244 331.161 26.2277L331.17 26.4087C331.193 26.8864 331.221 27.3735 331.249 27.8652C331.291 28.6306 331.332 29.4099 331.374 30.2031C331.55 33.3898 331.764 36.7436 332.051 39.986C332.719 47.4125 333.902 55.4977 335.776 65.4337C336.036 66.8113 336.305 68.2725 336.602 69.91C336.616 70.0027 336.621 70.1048 336.625 70.2486L336.63 70.2718V70.2811C336.092 70.077 335.558 69.8821 335.029 69.6873L334.965 69.6641C333.601 69.1631 332.195 68.6436 330.831 68.0684C325.938 66.0089 322.556 63.889 319.861 61.1939C318.975 60.3033 318.191 59.2689 317.435 58.2669L317.152 57.8866C317.018 57.7103 316.976 57.2975 317.064 57.0841C320.506 49.1149 323.437 40.3756 326.063 30.1984C326.262 29.4284 326.457 28.6491 326.652 27.8606C327.506 24.4233 328.327 20.8237 329.124 17.0339C329.129 17.0107 329.138 16.9783 329.148 16.9504L329.282 16.5469L328.303 16.25L328.22 16.584C327.849 18.1055 327.473 19.6316 327.107 21.167L326.949 21.8117C326.466 23.8064 325.97 25.8335 325.465 27.8652C325.27 28.6445 325.075 29.4238 324.875 30.2031C324.583 31.3581 324.282 32.5178 323.98 33.6635C321.874 41.6049 319.202 49.3375 316.048 56.6434C315.802 57.2047 315.482 57.5201 314.935 57.7242C314.29 57.9654 313.631 58.2298 312.954 58.5128V59.6817C313.084 59.6261 313.214 59.575 313.348 59.5194C313.766 59.3477 314.183 59.1808 314.601 59.0091L316.118 58.3968C317.537 60.5909 319.351 62.4928 321.656 64.1998C325.432 67.0015 329.959 69.2049 335.902 71.1392C336.18 71.232 336.458 71.3201 336.75 71.4083L337.103 71.5196H337.98L337.391 68.2725C337.047 66.3892 336.723 64.6126 336.403 62.7896C336.036 60.6698 335.688 58.6102 335.396 56.8707C335.312 56.3929 335.234 55.9151 335.15 55.4327C335.104 55.159 335.057 54.8807 335.011 54.6024C340.86 57.5387 346.557 57.5247 352.397 54.5699L349.423 71.5196H350.267C354.642 70.1836 358.385 68.639 361.706 66.7928C366.122 64.3389 369.17 61.6532 371.281 58.3644L372.63 58.9535C373.201 59.204 373.809 59.4684 374.43 59.742V58.5267C374.365 58.4989 374.324 58.4803 374.277 58.4618ZM349.46 39.5036C348.328 41.5168 346.552 42.6115 344.172 42.7553C343.982 42.7692 343.792 42.7738 343.611 42.7738C341.092 42.7738 339.158 41.6791 337.859 39.5221C341.746 37.7223 345.545 37.7177 349.46 39.5036ZM352.137 53.3685C349.641 54.9086 346.798 55.6878 343.694 55.6878C343.319 55.6878 342.929 55.6786 342.507 55.6554C340.095 55.5069 337.836 54.8622 335.804 53.7489C335.085 53.3546 334.705 53.0113 334.621 52.2089C334.477 50.859 334.301 49.4813 334.134 48.1547L334.083 47.7557C333.935 46.6054 333.782 45.4225 333.647 44.2443C336.133 47.7789 339.515 49.5695 343.699 49.5695H343.759C347.916 49.5509 351.204 47.8021 353.77 44.2396L353.561 45.789C353.245 48.1176 352.921 50.525 352.577 52.8861C352.55 53.016 352.359 53.234 352.137 53.3685Z" fill="#F0EDFF"/>
<path d="M331.329 29.6423L331.348 29.9856C331.51 32.9311 331.719 36.424 332.039 39.9541C332.09 40.5432 332.15 41.1369 332.206 41.7353L332.21 41.8003L332.238 41.8559C332.628 42.5981 332.888 43.0573 332.897 43.0759L333.124 43.4377C335.652 47.4919 339.21 49.5468 343.691 49.5468H343.751C347.908 49.5282 351.192 47.7795 353.762 44.2123L353.817 44.1381L354.546 43.0434C354.703 42.7929 354.856 42.5424 355.005 42.2873L355.042 42.227L355.051 42.1574C355.357 39.5041 355.599 37.0688 355.789 34.717C355.905 33.3069 356.007 31.7576 356.1 29.981L356.118 29.6377L355.487 29.8093L354.982 29.9253C354.736 32.0312 354.23 33.7754 353.428 35.2551C353.094 35.8767 352.588 36.438 352.092 36.99C351.929 37.1709 351.735 37.3796 351.558 37.593C351.322 37.8713 351.104 37.8759 350.723 37.6023C349.053 36.4055 347.444 35.6401 345.806 35.2597C343.181 34.6474 340.555 35.1623 337.786 36.8322C337.387 37.0735 336.998 37.3332 336.631 37.5791C336.487 37.6765 336.339 37.7739 336.19 37.8713C334.205 36.5771 333.444 34.5639 332.92 32.574C332.702 31.7483 332.531 30.8809 332.391 29.916M349.462 39.4809C348.33 41.4941 346.553 42.5888 344.174 42.7326C343.983 42.7465 343.793 42.7512 343.612 42.7512C341.098 42.7512 339.164 41.6564 337.86 39.4995C341.748 37.7043 345.547 37.695 349.462 39.4809Z" fill="#F0EDFF"/>
<path d="M337.017 79.8044H330.017C329.233 79.8044 328.593 80.4399 328.593 81.2285C328.593 82.0124 329.228 82.6526 330.017 82.6526H357.343C358.127 82.6526 358.767 82.0171 358.767 81.2285C358.767 80.4446 358.132 79.8044 357.343 79.8044H350.343V74.8828H337.021V79.8044H337.017Z" fill="#ED6D22"/>
<path d="M362.834 30.1941H364.559C364.541 29.8369 364.527 29.4844 364.518 29.1272C364.508 28.7051 364.504 28.283 364.504 27.8608H362.254C362.296 28.0325 362.337 28.2041 362.379 28.3757C362.528 28.988 362.681 29.5911 362.834 30.1941Z" fill="#ED6D22"/>
<path d="M374.157 35.1715C374.032 35.0323 373.911 34.8931 373.791 34.7493C373.698 34.638 373.61 34.5313 373.517 34.42C373.271 34.1185 373.025 33.8077 372.793 33.4969V33.4923C372.204 32.6991 371.661 31.878 371.174 31.0199C371.026 30.7647 370.887 30.5003 370.752 30.2359C370.562 29.8695 370.377 29.4984 370.205 29.1226C370.015 28.7052 369.834 28.283 369.667 27.8517C369.495 27.4063 369.333 26.9564 369.189 26.4972C368.925 25.6622 368.697 24.8041 368.521 23.9134C368.396 23.2779 368.442 22.7538 368.85 22.1693C369.746 20.889 369.37 19.0939 368.029 18.3331C367.347 17.9435 366.986 17.4193 366.656 16.7745C366.23 15.9442 365.738 15.151 365.186 14.1954C367.06 13.6203 368.841 13.0683 370.622 12.5209C371.221 12.34 371.814 12.1498 372.408 11.9643C372.946 11.7973 373.484 11.6349 374.022 11.4818C374.245 11.4169 374.463 11.3427 374.649 11.2453C375.029 11.0504 375.298 10.7489 375.303 10.2155C375.307 9.41763 374.723 9.13004 374.046 8.92594C368.169 7.13541 362.291 5.33562 356.414 3.53582C352.717 2.40399 349.025 1.24432 345.314 0.154236C344.725 -0.017394 343.996 -0.0637763 343.421 0.107854C333.778 3.02557 324.148 5.98967 314.509 8.93058C313.817 9.13932 313.279 9.46402 313.279 10.248C313.284 11.0087 313.854 11.2638 314.495 11.4586C315.223 11.6813 315.956 11.904 316.689 12.1312C317.426 12.3539 318.159 12.5812 318.897 12.8039C322.074 13.778 325.252 14.7475 328.429 15.7216C328.462 15.7308 328.494 15.7401 328.527 15.7494C328.559 15.7587 328.591 15.768 328.619 15.7772L328.949 15.8793C328.981 15.8886 329.014 15.8978 329.046 15.9071C329.079 15.9164 329.106 15.9257 329.139 15.9349C330.466 16.3431 331.792 16.7467 333.119 17.1503C333.174 17.1688 333.235 17.1874 333.29 17.2013C333.351 17.2198 333.411 17.2384 333.471 17.257C333.74 17.3405 334.005 17.4193 334.274 17.5028C334.334 17.5214 334.394 17.5399 334.455 17.5585C334.515 17.577 334.58 17.5956 334.64 17.6141C337.595 18.5187 340.55 19.4186 343.505 20.3185C343.932 20.4484 344.456 20.4947 344.873 20.3741C347.745 19.516 350.611 18.6393 353.473 17.7626C353.534 17.744 353.594 17.7255 353.654 17.7069C353.714 17.6884 353.77 17.6698 353.83 17.6512C354.09 17.5724 354.35 17.4935 354.61 17.4147C354.665 17.3961 354.721 17.3822 354.777 17.3636C354.832 17.3451 354.888 17.3312 354.944 17.3126C355.885 17.025 356.822 16.7328 357.764 16.4452L358.483 16.2133L358.58 16.1808L358.673 16.1483L359.054 16.0231L359.146 15.9906L359.239 15.9581L361.832 15.1139C363.558 16.1622 363.094 15.9721 364.049 17.8136C364.309 18.3146 364.365 18.7274 364.04 19.2748C363.354 20.4437 363.59 21.608 364.453 22.6471C364.731 22.9811 364.945 23.5099 364.931 23.9366C364.898 24.7855 364.87 25.6297 364.857 26.4786C364.847 26.9332 364.843 27.3832 364.843 27.8331C364.843 28.2552 364.847 28.6773 364.857 29.0994C364.866 29.4566 364.88 29.8138 364.898 30.1663C364.912 30.4307 364.926 30.6951 364.945 30.9549C365.01 31.8363 365.112 32.7083 365.26 33.5804C365.418 34.5174 365.631 35.4498 365.914 36.3729C366.304 37.6531 366.874 38.9195 367.575 40.0699C367.723 40.3204 367.881 40.5616 368.043 40.7981C368.498 41.4522 369.027 41.9393 369.62 42.264C370.534 42.7603 371.592 42.8763 372.724 42.6443C372.96 42.5933 373.201 42.533 373.443 42.4541C373.689 42.3753 373.93 42.2779 374.162 42.1758V35.1715H374.157Z" fill="#F0EDFF"/>
<path d="M378.035 38.2146C377.812 38.0291 377.599 37.8389 377.381 37.6487C377.288 37.5698 377.204 37.4863 377.116 37.4028V41.0117C377.204 40.9375 377.292 40.8679 377.381 40.7937C377.979 40.2834 378.554 39.7314 379.115 39.1331C378.693 38.7712 378.364 38.4929 378.035 38.2146Z" fill="#574B9A"/>
<path d="M370.107 27.8608H369.987L371.035 30.3054C372.988 30.6951 374.394 32.3974 374.394 34.4431L374.412 35.3615V35.4636V42.1015V58.5224V59.7377V60.0067V67.3172C374.412 69.6319 372.501 71.5152 370.154 71.5152H350.245H349.401H337.962H337.085H317.194C314.847 71.5152 312.936 69.6319 312.936 67.3172V59.8676V59.6774V58.5084V34.3967C312.936 32.082 314.847 30.1987 317.194 30.1987H324.315C324.514 29.4194 324.709 28.6401 324.904 27.8608H317.194C313.539 27.8608 310.57 30.7925 310.57 34.3967V59.5521V60.7443V60.9345V67.3172C310.57 70.9215 313.544 73.8531 317.194 73.8531H370.149C373.8 73.8531 376.773 70.9215 376.773 67.3172V61.0597V60.786V59.5614V40.5939V37.82V37.718V34.4848V34.4431C376.778 30.811 373.786 27.8608 370.107 27.8608Z" fill="#ED6D22"/>
</svg>
