<svg width="273" height="60" viewBox="0 0 273 60" fill="none" xmlns="http://www.w3.org/2000/svg">
<path d="M5.43527 30.7034C5.29766 30.8792 5.10502 31.0832 4.85046 31.3013C4.59589 31.5193 4.29317 31.7022 3.92853 31.857C3.57076 32.0047 3.16484 32.0821 2.71764 32.0821C2.20851 32.0821 1.75442 31.9625 1.33474 31.7304C0.921932 31.4982 0.591689 31.1676 0.357767 30.7526C0.116964 30.3376 0 29.8382 0 29.2614C0 28.9097 0.0481689 28.5791 0.13761 28.2556C0.227051 27.932 0.392163 27.6085 0.632966 27.2849C0.873768 26.9613 1.2109 26.6448 1.6581 26.3283C2.09843 26.0117 2.66947 25.6952 3.36436 25.3646C4.05924 25.034 4.9055 24.6964 5.89623 24.3517L5.44214 26.1594C4.93302 26.3494 4.46517 26.5393 4.02485 26.7362C3.58452 26.9332 3.16484 27.1442 2.76579 27.3834C2.36675 27.6225 1.9677 27.9039 1.56866 28.2204L2.29795 27.3834C2.16035 27.6225 2.06403 27.8687 1.99523 28.1219C1.93331 28.3751 1.89891 28.6354 1.89891 28.8886C1.89891 29.3669 2.03651 29.7257 2.30483 29.9719C2.58003 30.218 2.91028 30.3376 3.29556 30.3376C3.67397 30.3376 4.03861 30.2392 4.38949 30.0422C4.74038 29.8452 5.08438 29.592 5.42838 29.2966L5.43527 30.7034ZM3.21988 22.5721C3.41252 22.3892 3.50197 22.136 3.50197 21.8195C3.50197 21.5029 3.40564 21.2497 3.21988 21.0739C3.02724 20.898 2.79332 20.8066 2.51123 20.8066C2.22915 20.8066 1.99523 20.898 1.80259 21.0739C1.60994 21.2497 1.5205 21.5029 1.5205 21.8195C1.5205 22.136 1.61682 22.3892 1.80259 22.5721C1.99523 22.755 2.22915 22.8464 2.51123 22.8464C2.79332 22.8534 3.02724 22.762 3.21988 22.5721ZM5.5591 22.2767C5.75174 22.0938 5.84119 21.8476 5.84119 21.5381C5.84119 21.2216 5.74486 20.9683 5.5591 20.7855C5.36646 20.6026 5.13254 20.5111 4.85046 20.5111C4.56837 20.5111 4.32757 20.6026 4.13493 20.7855C3.94229 20.9683 3.84597 21.2216 3.84597 21.5381C3.84597 21.8476 3.94229 22.0938 4.13493 22.2767C4.32757 22.4595 4.56837 22.551 4.85046 22.551C5.13254 22.551 5.36646 22.4595 5.5591 22.2767ZM5.20134 32.075V30.1618L4.91237 30.5768V23.8875L6.81128 23.6624H6.95576V31.1114L6.12327 30.2603H8.95786V31.7655L8.6689 32.061H5.20134V32.075ZM8.36617 30.5698V32.075H14.1042L14.3931 31.7796V30.2743H11.5585L12.391 31.1254V24.2884H12.2603L10.3476 24.5275V29.0645C10.3476 29.4303 10.3683 29.7538 10.4164 30.0281C10.4577 30.3025 10.5196 30.5064 10.6022 30.6331L11.304 30.2743H8.66202L8.36617 30.5698ZM8.86154 35.3247C9.05418 35.5076 9.28811 35.5991 9.56331 35.5991C9.84539 35.5991 10.0862 35.5076 10.2788 35.3247C10.4715 35.1419 10.5678 34.8886 10.5678 34.5721C10.5678 34.2626 10.4715 34.0164 10.2788 33.8335C10.0862 33.6507 9.85227 33.5592 9.57706 33.5592C9.29498 33.5592 9.05418 33.6507 8.86154 33.8335C8.6689 34.0164 8.57258 34.2626 8.57258 34.5721C8.57258 34.8886 8.6689 35.1419 8.86154 35.3247ZM11.2008 35.0293C11.3934 35.2052 11.6273 35.2966 11.9025 35.2966C12.1846 35.2966 12.4254 35.2052 12.6181 35.0293C12.8107 34.8535 12.907 34.6002 12.907 34.2837C12.907 33.9672 12.8107 33.7139 12.6181 33.5381C12.4254 33.3622 12.1915 33.2708 11.9163 33.2708C11.6342 33.2708 11.3934 33.3622 11.2008 33.5381C11.0081 33.7139 10.9118 33.9672 10.9118 34.2837C10.9049 34.6073 11.0081 34.8535 11.2008 35.0293ZM14.4 30.2673L14.111 30.5627V32.068H17.5304L16.9319 30.2603H14.4V30.2673ZM24.782 31.7796V30.2743C24.266 30.2743 23.8395 30.1196 23.5023 29.803C23.1652 29.4865 22.89 29.0082 22.663 28.3611L21.4383 24.7667L21.1769 24.6331C20.4889 24.6331 19.8077 24.7315 19.1335 24.9285C18.4592 25.1254 17.8538 25.4209 17.3034 25.8148C16.753 26.2087 16.3127 26.694 15.9824 27.2708C15.6522 27.8476 15.4871 28.5088 15.4871 29.2544C15.4871 29.7749 15.5627 30.2251 15.721 30.612C15.8792 30.9988 16.0856 31.3294 16.3471 31.5967C16.6085 31.864 16.9044 32.0821 17.2277 32.2438C17.5511 32.4056 17.8882 32.5322 18.2322 32.6096C18.5762 32.687 18.9065 32.7292 19.2161 32.7292C19.622 32.7292 20.0623 32.6729 20.5302 32.5533C20.998 32.4338 21.4521 32.2579 21.8993 32.0328L22.3052 30.3025L22.1126 30.1547C21.8374 30.3236 21.4727 30.4853 21.0186 30.6331C20.5577 30.7808 20.0761 30.8581 19.5601 30.8581C19.2092 30.8581 18.8721 30.7948 18.5487 30.6612C18.2253 30.5346 17.957 30.3376 17.7506 30.0703C17.5442 29.8101 17.441 29.4725 17.441 29.0785C17.441 28.7972 17.5098 28.5158 17.6405 28.2345C17.7712 27.9531 17.9708 27.6858 18.246 27.4467C18.5212 27.2005 18.8583 26.9965 19.2711 26.8277C19.677 26.6588 20.1586 26.5674 20.7159 26.5463L19.8972 26.2649L21.0806 29.4584C21.3214 30.0633 21.5897 30.5627 21.8718 30.9426C22.1539 31.3224 22.5047 31.6108 22.9175 31.8007C23.3303 31.9906 23.8532 32.0821 24.4862 32.0821L24.782 31.7796ZM24.5894 35.3247C24.782 35.5076 25.016 35.5991 25.2912 35.5991C25.5732 35.5991 25.814 35.5076 26.0067 35.3247C26.1993 35.1419 26.2957 34.8886 26.2957 34.5721C26.2957 34.2626 26.1993 34.0164 26.0067 33.8335C25.814 33.6507 25.5801 33.5592 25.3049 33.5592C25.0228 33.5592 24.782 33.6507 24.5894 33.8335C24.3968 34.0164 24.3004 34.2626 24.3004 34.5721C24.3004 34.8886 24.3968 35.1419 24.5894 35.3247ZM25.9792 32.075C26.5915 32.075 27.1144 32.0469 27.5409 31.9836C27.9675 31.9273 28.3322 31.8359 28.6211 31.7163V31.5967C28.5798 31.4209 28.5523 31.1958 28.5386 30.9215C28.5248 30.6471 28.511 30.3798 28.511 30.0985C28.5042 29.8171 28.5042 29.578 28.5042 29.381V24.2743H28.3734L26.4608 24.5135V29.0363C26.4608 29.4021 26.4814 29.7257 26.5296 30.007C26.5709 30.2884 26.6328 30.4924 26.7153 30.619L27.4171 30.2603H24.7889L24.5 30.5557V32.061H25.9792V32.075ZM26.9286 35.0293C27.1213 35.2052 27.3552 35.2966 27.6304 35.2966C27.9125 35.2966 28.1533 35.2052 28.3459 35.0293C28.5386 34.8535 28.6349 34.6002 28.6349 34.2837C28.6349 33.9672 28.5386 33.7139 28.3459 33.5381C28.1533 33.3622 27.9194 33.2708 27.6442 33.2708C27.3621 33.2708 27.1213 33.3622 26.9286 33.5381C26.736 33.7139 26.6397 33.9672 26.6397 34.2837C26.6328 34.6073 26.7291 34.8535 26.9286 35.0293ZM30.3411 32.075H36.547C37.1731 32.075 37.7028 31.9977 38.1363 31.8429C38.5766 31.6882 38.9275 31.4771 39.2027 31.2028C39.4779 30.9285 39.6774 30.6119 39.8012 30.2532C39.9251 29.8945 39.9939 29.5076 39.9939 29.0856C39.9939 28.6213 39.9044 28.1641 39.7324 27.728C39.5604 27.2919 39.3403 26.8839 39.0926 26.5182C38.838 26.1524 38.5835 25.8429 38.3358 25.5897H38.1638C37.8748 25.66 37.5171 25.7093 37.0905 25.7304C36.6639 25.7585 36.2442 25.7655 35.8108 25.7655H35.343C34.8545 25.7655 34.3453 25.7374 33.8087 25.6882C33.272 25.6389 32.7904 25.5405 32.3639 25.3927H32.2194L31.7378 27.0528C32.0887 27.1794 32.4464 27.2849 32.818 27.3482C33.1895 27.4185 33.561 27.4678 33.9394 27.4889C34.3178 27.517 34.6756 27.524 35.0058 27.524H35.5494C35.8727 27.524 36.1479 27.517 36.3818 27.5029C36.6158 27.4889 36.8566 27.4607 37.1111 27.4185C37.3657 27.3763 37.6684 27.32 38.0331 27.2427L37.1111 27.109C37.3863 27.3763 37.5996 27.6929 37.7579 28.0516C37.9161 28.4103 37.9987 28.755 37.9987 29.0996C37.9987 29.3458 37.9436 29.5569 37.8335 29.7327C37.7234 29.9086 37.5583 30.0422 37.3382 30.1266C37.118 30.218 36.8359 30.2603 36.4988 30.2603H30.981L30.3549 31.9203V32.075H30.3411ZM42.0785 32.075H44.1219V23.0574C44.1219 22.8605 44.1219 22.6213 44.1288 22.34C44.1357 22.0586 44.1426 21.7843 44.1563 21.517C44.1701 21.2497 44.1976 21.0246 44.2389 20.8417L44.2251 20.7222L42.0785 20.9472V32.075ZM45.8488 32.075L46.1378 31.7796V30.2743H43.6541V32.0821H45.8488V32.075ZM58.8453 32.075C59.5883 32.075 60.2007 31.9977 60.7029 31.8499C61.1983 31.7022 61.5973 31.4912 61.9 31.2169C62.2028 30.9426 62.416 30.6331 62.5399 30.2743C62.6637 29.9226 62.7325 29.5428 62.7325 29.1348C62.7325 28.6354 62.6431 28.1641 62.4711 27.714C62.2991 27.2638 62.0789 26.8558 61.8312 26.49C61.5767 26.1243 61.329 25.8218 61.0882 25.5967H60.9162C60.6272 25.667 60.2626 25.7163 59.836 25.7374C59.4095 25.7655 58.976 25.7726 58.5495 25.7726H49.0412L49.3645 26.3423L53.9811 22.0445L53.1624 20.7433H53.0179L47.3074 26.1454C47.3487 26.694 47.5 27.0668 47.7684 27.2708C48.0367 27.4748 48.3532 27.5803 48.711 27.5803H58.3018C58.6114 27.5803 58.8866 27.5733 59.1274 27.5592C59.3682 27.5451 59.609 27.517 59.8635 27.4748C60.1181 27.4326 60.4208 27.3763 60.7717 27.2989L59.8635 27.1231C60.125 27.3904 60.3383 27.7139 60.5034 28.0868C60.6685 28.4596 60.7511 28.8113 60.7511 29.1419C60.7511 29.5498 60.6135 29.8382 60.3451 30.0141C60.0699 30.1899 59.6227 30.2743 58.9898 30.2743H46.1584L45.8695 30.5698V32.075H58.8453ZM64.1705 20.8206C64.315 21.0809 64.5282 21.2919 64.8103 21.4467C65.0924 21.6084 65.4158 21.6858 65.7873 21.6858H66.6955L67.0326 20.5041V20.3845H66.1244C65.8836 20.3845 65.6566 20.3494 65.4571 20.272C65.2575 20.1946 65.0924 20.0328 64.9686 19.7866L65.0236 20.1876C65.0924 19.871 65.2231 19.646 65.4226 19.5123C65.6222 19.3857 65.8905 19.3154 66.2207 19.3154H66.6886L67.0257 18.1336V18H66.2826C65.8079 18 65.3951 18.0914 65.0442 18.2743C64.6934 18.4572 64.425 18.6964 64.2324 18.9988C64.0398 19.2942 63.9503 19.6249 63.9503 19.9836C63.9572 20.2861 64.026 20.5604 64.1705 20.8206ZM70.7272 32.075C70.9542 32.075 71.1469 32.061 71.3189 32.0258C71.4909 31.9906 71.6216 31.9273 71.7179 31.8359V31.7163L69.3099 27.5803H69.1929L68.4774 28.8042L69.9841 31.4912L70.0873 30.2673H65.7804L66.3239 30.4924C66.4409 30.4361 66.5579 30.3517 66.6748 30.2462C66.7918 30.1407 66.9225 30 67.0601 29.8101C67.1977 29.6272 67.3628 29.374 67.5348 29.0574L72.0757 20.8769V20.7292H70.0736L67.3422 25.5053L68.0852 25.3576L66.6679 22.7268H64.6658V22.8605L67.1633 27.306V25.8148L65.7735 28.2485C65.4846 28.748 65.2507 29.1278 65.0718 29.3951C64.8998 29.6624 64.7415 29.8663 64.6108 29.993C64.4801 30.1196 64.3425 30.2392 64.2118 30.3517C64.2118 30.8863 64.3494 31.3083 64.6177 31.6108C64.8929 31.9133 65.2575 32.068 65.7254 32.068H70.7272V32.075ZM73.3554 32.075H75.3987V23.0574C75.3987 22.8605 75.3988 22.6213 75.4056 22.34C75.4125 22.0586 75.4194 21.7843 75.4332 21.517C75.4469 21.2497 75.4744 21.0246 75.5157 20.8417L75.5019 20.7222L73.3554 20.9472V32.075ZM80.9234 30.9988C81.0473 31.0551 81.2055 31.1184 81.3844 31.1887C81.5633 31.2521 81.7559 31.3154 81.9623 31.3857C82.1688 31.449 82.3614 31.5053 82.5472 31.5545C83.6067 31.8007 84.5699 31.9555 85.4368 32.0047C86.3037 32.0539 87.1774 32.0821 88.0512 32.0821H92.7847C93.397 32.0821 93.9406 32.0539 94.4153 31.9906C94.89 31.9343 95.2684 31.8429 95.5643 31.7233L95.5918 31.6038C95.5505 31.4279 95.523 31.2028 95.5092 30.9285C95.4955 30.6612 95.4817 30.3869 95.4817 30.1055C95.4748 29.8241 95.4748 29.585 95.4748 29.388V24.2814H95.3303L93.4314 24.5205V29.0574C93.4314 29.4232 93.4521 29.7468 93.4865 30.0211C93.5278 30.2954 93.5897 30.4994 93.6791 30.626L94.3809 30.2673H88.0581C87.6384 30.2673 87.1293 30.2603 86.5307 30.2392C85.9322 30.2181 85.3198 30.1829 84.6937 30.1196C84.0677 30.0633 83.4966 29.9578 82.9806 29.803C82.8705 29.7608 82.7192 29.7116 82.5265 29.6553C82.3339 29.5991 82.1344 29.5287 81.9417 29.4513C81.7491 29.374 81.5977 29.3177 81.4876 29.2614H81.3569L80.9234 30.9988ZM88.1407 25.4279C88.3333 25.245 88.4227 24.9918 88.4227 24.6753C88.4227 24.3587 88.3264 24.1055 88.1407 23.9297C87.948 23.7538 87.7141 23.6624 87.432 23.6624C87.1499 23.6624 86.916 23.7538 86.7234 23.9297C86.5307 24.1055 86.4413 24.3587 86.4413 24.6753C86.4413 24.9918 86.5376 25.245 86.7234 25.4279C86.916 25.6108 87.1499 25.7022 87.432 25.7022C87.7141 25.7022 87.948 25.6108 88.1407 25.4279ZM90.4799 25.1254C90.6725 24.9426 90.762 24.6964 90.762 24.3869C90.762 24.0703 90.6656 23.8171 90.4799 23.6342C90.2872 23.4514 90.0533 23.3599 89.7712 23.3599C89.4892 23.3599 89.2483 23.4514 89.0557 23.6342C88.8631 23.8171 88.7668 24.0703 88.7668 24.3869C88.7668 24.6964 88.8631 24.9426 89.0557 25.1254C89.2483 25.3083 89.4892 25.3998 89.7712 25.3998C90.0533 25.4068 90.2872 25.3083 90.4799 25.1254ZM97.9723 32.075H100.016V23.0574C100.016 22.8605 100.016 22.6213 100.023 22.34C100.029 22.0586 100.036 21.7843 100.05 21.517C100.064 21.2497 100.091 21.0246 100.133 20.8417L100.119 20.7222L97.9723 20.9472V32.075ZM101.743 32.075L102.032 31.7796V30.2743H99.5478V32.0821H101.743V32.075ZM105.733 24.8159C105.348 24.8793 104.983 24.9707 104.646 25.0762L104.44 25.2732C104.35 26.3986 104.219 27.3271 104.054 28.0656C103.882 28.8042 103.641 29.3529 103.325 29.7257C103.008 30.0914 102.575 30.2814 102.032 30.2814L101.743 30.5768V32.0821C102.609 32.0821 103.325 31.9343 103.882 31.6389C104.44 31.3435 104.887 30.9285 105.21 30.3939C105.533 29.8593 105.774 29.2192 105.919 28.4807C106.063 27.7421 106.166 26.9402 106.228 26.061L105.905 26.5252C106.565 26.4971 107.15 26.5745 107.653 26.7573C108.155 26.9402 108.54 27.2075 108.822 27.5662C109.097 27.9179 109.235 28.34 109.235 28.8253C109.235 29.2825 109.139 29.7257 108.946 30.1618C108.753 30.5979 108.471 30.9848 108.1 31.3365L109.104 30.7104C109.015 30.7175 108.918 30.7245 108.802 30.7315C108.691 30.7386 108.561 30.7315 108.416 30.7245C108.01 30.7245 107.598 30.6682 107.198 30.5487C106.793 30.4291 106.4 30.2603 106.022 30.0492C105.644 29.8382 105.279 29.5709 104.942 29.2685L103.469 30.4502C103.869 30.9496 104.281 31.3435 104.708 31.646C105.134 31.9414 105.575 32.1524 106.029 32.279C106.483 32.4056 106.951 32.4689 107.439 32.4689C108.182 32.4689 108.836 32.3071 109.4 31.9766C109.964 31.646 110.411 31.1958 110.728 30.619C111.044 30.0422 111.203 29.3951 111.203 28.6776C111.203 27.9039 111.017 27.2145 110.652 26.6237C110.288 26.0328 109.778 25.5686 109.118 25.238C108.464 24.9074 107.708 24.7386 106.861 24.7386C106.497 24.7175 106.118 24.7526 105.733 24.8159ZM112.709 32.075H118.915C119.204 32.075 119.479 32.061 119.727 32.0258C119.975 31.9906 120.202 31.9414 120.408 31.8851L120.966 31.3505C121.454 31.0692 121.805 30.7245 122.018 30.2954C122.231 29.8734 122.342 29.4091 122.342 28.9027C122.342 28.4525 122.252 28.0235 122.08 27.6084C121.908 27.1934 121.695 26.8136 121.447 26.4689C121.199 26.1172 120.952 25.8288 120.711 25.6038H120.539C120.25 25.6741 119.892 25.7233 119.466 25.7444C119.039 25.7726 118.619 25.7796 118.186 25.7796H117.718C117.23 25.7796 116.72 25.7515 116.184 25.7022C115.647 25.653 115.166 25.5545 114.739 25.4068H114.595L114.113 27.0668C114.464 27.1934 114.822 27.2989 115.193 27.3623C115.565 27.4326 115.936 27.4818 116.315 27.5029C116.693 27.5311 117.051 27.5381 117.381 27.5381H117.924C118.248 27.5381 118.523 27.5311 118.757 27.517C118.991 27.5029 119.232 27.4748 119.486 27.4326C119.741 27.3904 120.044 27.3341 120.408 27.2567L119.486 27.1231C119.761 27.3904 119.975 27.6999 120.133 28.0586C120.291 28.4103 120.374 28.755 120.374 29.0785C120.374 29.5076 120.25 29.8101 120.009 30C119.768 30.1829 119.383 30.2743 118.867 30.2743H113.349L112.723 31.9343V32.075H112.709ZM123.628 32.075L123.917 31.7796V30.2743H117.89V32.0821H123.628V32.075ZM133.893 32.075L134.182 31.7796V30.2603H133.845C133.611 30.2603 133.295 30.1548 132.902 29.9367C132.51 29.7257 132.015 29.3599 131.43 28.8535C130.838 28.347 130.144 27.6577 129.325 26.7855C128.513 25.9132 127.563 24.823 126.483 23.5076H126.339L125.114 25.027C125.802 25.9132 126.476 26.7222 127.13 27.4467C127.784 28.1712 128.403 28.7972 129.001 29.3177C129.593 29.8382 130.144 30.2392 130.653 30.5064L131.12 30.2532H123.924L123.635 30.5487V32.068H133.893V32.075ZM131.802 24.9848C131.994 24.8089 132.084 24.5557 132.084 24.2392C132.084 23.9226 131.987 23.6694 131.802 23.4936C131.609 23.3177 131.375 23.2263 131.093 23.2263C130.811 23.2263 130.577 23.3177 130.384 23.4936C130.192 23.6694 130.102 23.9226 130.102 24.2392C130.102 24.5557 130.199 24.8089 130.384 24.9848C130.577 25.1606 130.811 25.2521 131.093 25.2521C131.375 25.2521 131.609 25.1676 131.802 24.9848ZM134.072 32.075C134.636 32.075 135.125 32.1524 135.531 32.3072C135.937 32.4619 136.294 32.6518 136.604 32.8839C136.914 33.1161 137.196 33.3411 137.457 33.5733C138.255 33.1372 138.964 32.7503 139.59 32.4056C140.216 32.068 140.739 31.7444 141.172 31.4349C141.606 31.1254 141.936 30.8019 142.156 30.4572C142.383 30.1125 142.493 29.7116 142.493 29.2544V23.0574C142.493 22.7761 142.5 22.4947 142.507 22.2063C142.514 21.9179 142.528 21.6506 142.541 21.4045C142.555 21.1583 142.576 20.9754 142.61 20.8417L142.555 20.7222L140.45 20.9472V29.6835C140.175 29.9719 139.865 30.2462 139.507 30.4994C139.15 30.7526 138.799 30.9777 138.455 31.1676C138.111 31.3646 137.801 31.5193 137.526 31.6389V23.0574C137.526 22.8605 137.526 22.6213 137.533 22.34C137.54 22.0586 137.546 21.7843 137.56 21.517C137.574 21.2497 137.602 21.0246 137.643 20.8417L137.588 20.7222L135.482 20.9472V30.6682C135.29 30.5557 135.07 30.4713 134.829 30.408C134.588 30.3447 134.32 30.3095 134.024 30.3095H133.866C133.694 30.3095 133.59 30.3658 133.556 30.4853C133.529 30.6049 133.515 30.837 133.515 31.1887C133.515 31.5264 133.529 31.7585 133.556 31.8851C133.584 32.0117 133.687 32.075 133.866 32.075H134.072ZM157.925 31.7796V30.2743C157.616 30.2743 157.354 30.204 157.155 30.0563C156.948 29.9156 156.769 29.6905 156.604 29.381C156.446 29.0785 156.26 28.6847 156.054 28.2063L154.815 25.2028L154.623 25.1254C154.134 25.238 153.632 25.3787 153.116 25.5686C152.6 25.7515 152.125 25.9836 151.685 26.272C151.245 26.5533 150.894 26.9121 150.619 27.3341C150.343 27.7561 150.213 28.2556 150.213 28.8324C150.213 29.2333 150.309 29.6342 150.502 30.0352C150.694 30.4361 150.942 30.837 151.238 31.2239C151.534 31.6108 151.843 31.9977 152.167 32.3775C152.49 32.7573 152.772 33.1301 153.027 33.4889L153.013 32.7151C152.69 33.1231 152.249 33.4607 151.692 33.7351C151.135 34.0094 150.474 34.143 149.71 34.143C149.194 34.143 148.74 34.1079 148.348 34.0445C147.956 33.9812 147.626 33.9039 147.364 33.8195C147.103 33.735 146.89 33.6647 146.738 33.6155H146.608L146.112 35.3599C146.635 35.5709 147.151 35.7257 147.646 35.8382C148.142 35.9508 148.733 36 149.428 36C150.398 36 151.252 35.8312 151.967 35.5006C152.69 35.17 153.247 34.7198 153.639 34.1641C154.031 33.6085 154.231 33.0105 154.231 32.3705C154.231 32.1735 154.162 31.9484 154.024 31.7093C153.887 31.4631 153.722 31.2098 153.522 30.9426C153.323 30.6753 153.123 30.4009 152.917 30.1266C152.71 29.8523 152.545 29.585 152.407 29.3107C152.27 29.0434 152.201 28.7901 152.201 28.5651C152.201 28.2837 152.311 28.0586 152.524 27.8757C152.738 27.6999 152.999 27.5592 153.309 27.4607C153.618 27.3623 153.914 27.2919 154.21 27.2497L153.364 26.6237L154.733 29.7749C154.919 30.1829 155.125 30.5627 155.359 30.9144C155.593 31.2661 155.889 31.5475 156.26 31.7515C156.625 31.9554 157.086 32.061 157.643 32.061L157.925 31.7796ZM149.071 29.993C149.263 29.8101 149.353 29.5569 149.353 29.2403C149.353 28.9308 149.256 28.6846 149.071 28.5018C148.878 28.3189 148.644 28.2274 148.362 28.2274C148.08 28.2274 147.839 28.3189 147.646 28.5018C147.454 28.6846 147.357 28.9308 147.357 29.2403C147.357 29.5569 147.454 29.8101 147.646 29.993C147.839 30.1758 148.08 30.2673 148.362 30.2673C148.644 30.2673 148.885 30.1758 149.071 29.993ZM149.064 32.5041C149.256 32.3212 149.353 32.068 149.353 31.7515C149.353 31.4349 149.256 31.1817 149.064 31.0059C148.871 30.83 148.637 30.7386 148.362 30.7386C148.08 30.7386 147.839 30.83 147.646 31.0059C147.454 31.1817 147.357 31.4349 147.357 31.7515C147.357 32.068 147.454 32.3212 147.646 32.5041C147.839 32.687 148.073 32.7784 148.348 32.7784C148.63 32.7784 148.871 32.687 149.064 32.5041ZM157.925 30.2673L157.636 30.5627V32.068H160.395L160.684 31.7726V30.2673H157.925ZM166.264 32.075L166.553 31.7796V30.2743H163.705L164.537 31.1676V20.7362H164.393L162.494 20.9613V29.0645C162.494 29.4303 162.514 29.7538 162.562 30.0281C162.604 30.3025 162.666 30.5064 162.748 30.6331L163.45 30.2743H160.691L160.402 30.5698V32.075H166.264ZM179.432 32.075C179.831 32.075 180.189 32.0469 180.506 31.9977C180.822 31.9484 181.104 31.871 181.359 31.7726L182.074 31.0551C182.453 30.7737 182.721 30.4502 182.886 30.0774C183.044 29.7046 183.127 29.3107 183.127 28.8886C183.127 28.4385 183.038 28.0094 182.866 27.5944C182.694 27.1794 182.48 26.7995 182.233 26.4549C181.985 26.1032 181.737 25.8148 181.496 25.5897H181.324C181.035 25.66 180.671 25.7093 180.244 25.7304C179.818 25.7585 179.384 25.7655 178.958 25.7655H169.449L169.773 26.3353L174.389 22.0375L173.571 20.7362H173.426L167.716 26.1383C167.757 26.687 167.908 27.0598 168.177 27.2638C168.445 27.4677 168.761 27.5733 169.119 27.5733H178.71C179.02 27.5733 179.295 27.5662 179.536 27.5522C179.776 27.5381 180.017 27.51 180.272 27.4678C180.526 27.4256 180.829 27.3693 181.18 27.2919L180.272 27.1161C180.533 27.3833 180.746 27.6929 180.912 28.0516C181.077 28.4033 181.159 28.7479 181.159 29.0715C181.159 29.4865 181.022 29.796 180.753 29.9789C180.478 30.1688 180.031 30.2603 179.398 30.2603H166.567L166.278 30.5557V32.061H179.432V32.075ZM184.517 32.075L184.806 31.7796L184.819 30.2743H180.85L179.391 32.0821H184.517V32.075ZM184.634 35.3247C184.826 35.5076 185.06 35.5991 185.335 35.5991C185.618 35.5991 185.858 35.5076 186.051 35.3247C186.244 35.1419 186.34 34.8886 186.34 34.5721C186.34 34.2626 186.244 34.0164 186.051 33.8335C185.858 33.6507 185.624 33.5592 185.349 33.5592C185.067 33.5592 184.826 33.6507 184.634 33.8335C184.441 34.0164 184.345 34.2626 184.345 34.5721C184.338 34.8886 184.441 35.1419 184.634 35.3247ZM186.017 32.075C186.629 32.075 187.152 32.0469 187.578 31.9836C188.005 31.9273 188.37 31.8359 188.659 31.7163V31.5967C188.617 31.4209 188.59 31.1958 188.576 30.9215C188.562 30.6542 188.548 30.3798 188.548 30.0985C188.542 29.8171 188.542 29.578 188.542 29.381V24.2743H188.411L186.498 24.5135V29.0363C186.498 29.4021 186.519 29.7257 186.567 30.007C186.608 30.2884 186.67 30.4924 186.753 30.619L187.455 30.2603H184.826L184.537 30.5557V32.061H186.017V32.075ZM186.966 35.0293C187.159 35.2052 187.393 35.2966 187.668 35.2966C187.95 35.2966 188.191 35.2052 188.383 35.0293C188.576 34.8535 188.672 34.6002 188.672 34.2837C188.672 33.9672 188.576 33.7139 188.383 33.5381C188.191 33.3622 187.957 33.2708 187.682 33.2708C187.4 33.2708 187.159 33.3622 186.966 33.5381C186.773 33.7139 186.677 33.9672 186.677 34.2837C186.677 34.6073 186.773 34.8535 186.966 35.0293ZM191.184 30.5698C191.541 31.0762 192.023 31.456 192.635 31.7022C193.248 31.9484 193.936 32.075 194.692 32.075H199.405L199.694 31.7796V30.2743H196.922L196.701 30.3025H194.906C194.397 30.3025 193.977 30.2251 193.626 30.0633C193.282 29.9015 193.021 29.6905 192.842 29.4162C192.67 29.1419 192.58 28.8394 192.58 28.5158C192.58 27.9672 192.759 27.4467 193.11 26.9472C193.468 26.4478 194.011 26.0821 194.741 25.8429L193.674 25.9203C194.149 26.0821 194.555 26.3071 194.885 26.6096C195.215 26.905 195.484 27.2497 195.697 27.6225C195.903 28.0023 196.062 28.4033 196.158 28.8394C196.254 29.2755 196.302 29.7046 196.302 30.1477C196.302 30.823 196.268 31.4209 196.206 31.9343C196.144 32.4478 196.041 32.898 195.89 33.2778C195.745 33.6577 195.546 34.0023 195.305 34.2978L195.917 33.7632C195.642 33.9109 195.353 34.0234 195.036 34.1008C194.72 34.1782 194.335 34.2134 193.874 34.2134C193.53 34.2134 193.144 34.1712 192.704 34.0797C192.264 33.9883 191.851 33.8476 191.466 33.6436H191.321L190.695 35.2544C191.204 35.4936 191.679 35.6694 192.119 35.789C192.56 35.9086 193.082 35.9648 193.674 35.9648C194.658 35.9648 195.497 35.7257 196.185 35.2544C196.873 34.7831 197.403 34.0867 197.768 33.1794C198.132 32.272 198.318 31.1676 198.318 29.8734C198.318 29.1278 198.208 28.4384 197.981 27.7984C197.754 27.1583 197.451 26.6096 197.066 26.1383C196.681 25.6741 196.247 25.3083 195.773 25.0481C195.298 24.7878 194.809 24.6612 194.314 24.6612C193.846 24.6612 193.392 24.7667 192.952 24.9777C192.511 25.1887 192.112 25.4771 191.768 25.8499C191.424 26.2227 191.149 26.6518 190.943 27.1372C190.736 27.6225 190.633 28.143 190.633 28.6987C190.647 29.4373 190.826 30.0633 191.184 30.5698ZM212.113 32.075C212.856 32.075 213.468 31.9977 213.97 31.8499C214.473 31.7022 214.865 31.4912 215.167 31.2169C215.47 30.9426 215.683 30.6331 215.807 30.2743C215.931 29.9226 216 29.5428 216 29.1348C216 28.6354 215.911 28.1641 215.739 27.714C215.567 27.2638 215.346 26.8558 215.099 26.49C214.844 26.1243 214.596 25.8218 214.356 25.5967H214.184C213.895 25.667 213.53 25.7163 213.103 25.7374C212.677 25.7655 212.243 25.7726 211.817 25.7726H202.309L202.632 26.3423L207.249 22.0445L206.43 20.7433H206.285L200.575 26.1454C200.616 26.694 200.768 27.0668 201.036 27.2708C201.304 27.4748 201.621 27.5803 201.978 27.5803H211.569C211.879 27.5803 212.154 27.5733 212.395 27.5592C212.636 27.5451 212.876 27.517 213.131 27.4748C213.386 27.4326 213.688 27.3763 214.039 27.2989L213.131 27.1231C213.392 27.3904 213.606 27.7139 213.771 28.0868C213.936 28.4596 214.019 28.8113 214.019 29.1419C214.019 29.5498 213.881 29.8382 213.613 30.0141C213.337 30.1899 212.89 30.2743 212.257 30.2743H199.426L199.137 30.5698V32.075H212.113Z" fill="#4E4097"/>
<path d="M207.575 45.9723L206.442 46.2928C206.371 46.1041 206.266 45.9206 206.127 45.7425C205.992 45.5608 205.807 45.4112 205.571 45.2937C205.336 45.1761 205.035 45.1173 204.668 45.1173C204.166 45.1173 203.748 45.2331 203.413 45.4647C203.082 45.6926 202.916 45.9829 202.916 46.3356C202.916 46.6491 203.03 46.8966 203.258 47.0783C203.486 47.26 203.842 47.4114 204.327 47.5325L205.545 47.8317C206.279 48.0098 206.825 48.2823 207.185 48.6492C207.545 49.0125 207.725 49.4809 207.725 50.0544C207.725 50.5246 207.589 50.945 207.319 51.3154C207.052 51.6859 206.678 51.978 206.197 52.1917C205.716 52.4054 205.156 52.5123 204.519 52.5123C203.682 52.5123 202.989 52.3306 202.44 51.9673C201.892 51.604 201.544 51.0732 201.398 50.375L202.595 50.0758C202.709 50.5175 202.925 50.8488 203.242 51.0696C203.562 51.2905 203.981 51.4009 204.497 51.4009C205.085 51.4009 205.552 51.2762 205.897 51.0269C206.246 50.774 206.421 50.4712 206.421 50.1186C206.421 49.8336 206.321 49.5949 206.122 49.4026C205.922 49.2067 205.616 49.0606 205.203 48.9644L203.835 48.6438C203.083 48.4657 202.531 48.1897 202.179 47.8157C201.829 47.4381 201.655 46.9661 201.655 46.3997C201.655 45.9366 201.785 45.527 202.045 45.1708C202.309 44.8146 202.667 44.5349 203.119 44.3319C203.575 44.1289 204.091 44.0273 204.668 44.0273C205.481 44.0273 206.118 44.2054 206.581 44.5617C207.048 44.9179 207.379 45.3881 207.575 45.9723Z" fill="#EB6823"/>
<path d="M196.446 52.5123C195.655 52.5123 194.973 52.3378 194.399 51.9887C193.829 51.636 193.39 51.1444 193.08 50.514C192.773 49.8799 192.62 49.1425 192.62 48.3019C192.62 47.4612 192.773 46.7203 193.08 46.0791C193.39 45.4344 193.821 44.9321 194.373 44.5723C194.928 44.209 195.577 44.0273 196.318 44.0273C196.745 44.0273 197.167 44.0986 197.584 44.2411C198.001 44.3836 198.38 44.6151 198.722 44.9357C199.064 45.2527 199.336 45.673 199.54 46.1967C199.743 46.7203 199.844 47.365 199.844 48.1309V48.6652H193.518V47.5752H198.562C198.562 47.1121 198.469 46.6989 198.284 46.3356C198.102 45.9723 197.842 45.6855 197.504 45.4753C197.169 45.2652 196.774 45.1601 196.318 45.1601C195.815 45.1601 195.381 45.2848 195.014 45.5341C194.651 45.7799 194.371 46.1005 194.175 46.4959C193.979 46.8913 193.881 47.3152 193.881 47.7676V48.4942C193.881 49.114 193.988 49.6395 194.202 50.0705C194.419 50.4979 194.72 50.8239 195.105 51.0483C195.489 51.2691 195.936 51.3795 196.446 51.3795C196.777 51.3795 197.076 51.3332 197.343 51.2406C197.614 51.1444 197.848 51.002 198.043 50.8132C198.239 50.6208 198.391 50.3822 198.498 50.0972L199.716 50.4391C199.588 50.8524 199.372 51.2157 199.069 51.5292C198.767 51.8391 198.393 52.0813 197.947 52.2558C197.502 52.4268 197.002 52.5123 196.446 52.5123Z" fill="#EB6823"/>
<path d="M187.934 52.5123C187.164 52.5123 186.502 52.3306 185.946 51.9673C185.39 51.604 184.963 51.1035 184.664 50.4659C184.364 49.8282 184.215 49.0998 184.215 48.2805C184.215 47.447 184.368 46.7114 184.674 46.0738C184.984 45.4326 185.415 44.9321 185.967 44.5723C186.523 44.209 187.171 44.0273 187.912 44.0273C188.489 44.0273 189.009 44.1342 189.473 44.3479C189.936 44.5617 190.315 44.8609 190.611 45.2456C190.906 45.6303 191.09 46.0791 191.161 46.5921H189.9C189.804 46.218 189.59 45.8868 189.259 45.5982C188.931 45.3061 188.489 45.1601 187.934 45.1601C187.442 45.1601 187.011 45.2883 186.641 45.5448C186.274 45.7977 185.987 46.1557 185.78 46.6188C185.577 47.0783 185.476 47.618 185.476 48.2378C185.476 48.8718 185.576 49.4239 185.775 49.8941C185.978 50.3643 186.263 50.7295 186.63 50.9895C187 51.2495 187.435 51.3795 187.934 51.3795C188.261 51.3795 188.559 51.3226 188.826 51.2086C189.093 51.0946 189.319 50.9307 189.505 50.717C189.69 50.5033 189.822 50.2468 189.9 49.9476H191.161C191.09 50.432 190.913 50.8684 190.632 51.2567C190.354 51.6414 189.985 51.9477 189.526 52.1757C189.07 52.4001 188.539 52.5123 187.934 52.5123Z" fill="#EB6823"/>
<path d="M181.029 52.3414V44.1343H182.29V52.3414H181.029ZM181.67 42.7665C181.424 42.7665 181.212 42.6827 181.034 42.5153C180.86 42.3479 180.772 42.1466 180.772 41.9115C180.772 41.6764 180.86 41.4752 181.034 41.3078C181.212 41.1403 181.424 41.0566 181.67 41.0566C181.916 41.0566 182.126 41.1403 182.301 41.3078C182.479 41.4752 182.568 41.6764 182.568 41.9115C182.568 42.1466 182.479 42.3479 182.301 42.5153C182.126 42.6827 181.916 42.7665 181.67 42.7665Z" fill="#EB6823"/>
<path d="M179.365 44.1343L176.33 52.3414H175.048L172.013 44.1343H173.381L175.646 50.6743H175.732L177.997 44.1343H179.365Z" fill="#EB6823"/>
<path d="M166.806 52.3412V44.1341H168.024V45.3737H168.109C168.259 44.9676 168.53 44.6381 168.922 44.3852C169.313 44.1323 169.755 44.0059 170.247 44.0059C170.339 44.0059 170.455 44.0076 170.594 44.0112C170.733 44.0148 170.838 44.0201 170.909 44.0272V45.3096C170.866 45.2989 170.769 45.2829 170.615 45.2615C170.466 45.2366 170.307 45.2241 170.14 45.2241C169.741 45.2241 169.385 45.3078 169.071 45.4752C168.761 45.6391 168.515 45.8671 168.334 46.1592C168.156 46.4477 168.067 46.7772 168.067 47.1476V52.3412H166.806Z" fill="#EB6823"/>
<path d="M161.489 52.5123C160.698 52.5123 160.016 52.3378 159.442 51.9887C158.872 51.636 158.432 51.1444 158.123 50.514C157.816 49.8799 157.663 49.1425 157.663 48.3019C157.663 47.4612 157.816 46.7203 158.123 46.0791C158.432 45.4344 158.864 44.9321 159.416 44.5723C159.971 44.209 160.62 44.0273 161.361 44.0273C161.788 44.0273 162.21 44.0986 162.627 44.2411C163.044 44.3836 163.423 44.6151 163.765 44.9357C164.107 45.2527 164.379 45.673 164.582 46.1967C164.786 46.7203 164.887 47.365 164.887 48.1309V48.6652H158.561V47.5752H163.605C163.605 47.1121 163.512 46.6989 163.327 46.3356C163.145 45.9723 162.885 45.6855 162.547 45.4753C162.212 45.2652 161.817 45.1601 161.361 45.1601C160.858 45.1601 160.424 45.2848 160.057 45.5341C159.693 45.7799 159.414 46.1005 159.218 46.4959C159.022 46.8913 158.924 47.3152 158.924 47.7676V48.4942C158.924 49.114 159.031 49.6395 159.245 50.0705C159.462 50.4979 159.763 50.8239 160.148 51.0483C160.532 51.2691 160.979 51.3795 161.489 51.3795C161.82 51.3795 162.119 51.3332 162.386 51.2406C162.657 51.1444 162.89 51.002 163.086 50.8132C163.282 50.6208 163.434 50.3822 163.541 50.0972L164.759 50.4391C164.631 50.8524 164.415 51.2157 164.112 51.5292C163.81 51.8391 163.435 52.0813 162.99 52.2558C162.545 52.4268 162.044 52.5123 161.489 52.5123Z" fill="#EB6823"/>
<path d="M156.001 45.9723L154.868 46.2928C154.797 46.1041 154.692 45.9206 154.553 45.7425C154.418 45.5608 154.232 45.4112 153.997 45.2937C153.762 45.1761 153.461 45.1173 153.094 45.1173C152.592 45.1173 152.173 45.2331 151.839 45.4647C151.507 45.6926 151.342 45.9829 151.342 46.3356C151.342 46.6491 151.456 46.8966 151.684 47.0783C151.912 47.26 152.268 47.4114 152.752 47.5325L153.971 47.8317C154.704 48.0098 155.251 48.2823 155.611 48.6492C155.971 49.0125 156.151 49.4809 156.151 50.0544C156.151 50.5246 156.015 50.945 155.744 51.3154C155.477 51.6859 155.103 51.978 154.622 52.1917C154.141 52.4054 153.582 52.5123 152.945 52.5123C152.108 52.5123 151.415 52.3306 150.866 51.9673C150.318 51.604 149.97 51.0732 149.824 50.375L151.021 50.0758C151.135 50.5175 151.351 50.8488 151.668 51.0696C151.988 51.2905 152.407 51.4009 152.923 51.4009C153.511 51.4009 153.978 51.2762 154.323 51.0269C154.672 50.774 154.847 50.4712 154.847 50.1186C154.847 49.8336 154.747 49.5949 154.548 49.4026C154.348 49.2067 154.042 49.0606 153.629 48.9644L152.261 48.6438C151.509 48.4657 150.957 48.1897 150.604 47.8157C150.255 47.4381 150.081 46.9661 150.081 46.3997C150.081 45.9366 150.211 45.527 150.471 45.1708C150.734 44.8146 151.092 44.5349 151.545 44.3319C152.001 44.1289 152.517 44.0273 153.094 44.0273C153.906 44.0273 154.544 44.2054 155.007 44.5617C155.474 44.9179 155.805 45.3881 156.001 45.9723Z" fill="#EB6823"/>
<path d="M140.885 52.5123C140.115 52.5123 139.453 52.3306 138.897 51.9673C138.342 51.604 137.914 51.1035 137.615 50.4659C137.316 49.8282 137.166 49.0998 137.166 48.2805C137.166 47.447 137.319 46.7114 137.626 46.0738C137.935 45.4326 138.366 44.9321 138.919 44.5723C139.474 44.209 140.123 44.0273 140.863 44.0273C141.441 44.0273 141.961 44.1342 142.424 44.3479C142.887 44.5617 143.266 44.8609 143.562 45.2456C143.857 45.6303 144.041 46.0791 144.112 46.5921H142.851C142.755 46.218 142.541 45.8868 142.21 45.5982C141.882 45.3061 141.441 45.1601 140.885 45.1601C140.393 45.1601 139.962 45.2883 139.592 45.5448C139.225 45.7977 138.938 46.1557 138.732 46.6188C138.529 47.0783 138.427 47.618 138.427 48.2378C138.427 48.8718 138.527 49.4239 138.726 49.8941C138.929 50.3643 139.214 50.7295 139.581 50.9895C139.952 51.2495 140.386 51.3795 140.885 51.3795C141.213 51.3795 141.51 51.3226 141.777 51.2086C142.044 51.0946 142.271 50.9307 142.456 50.717C142.641 50.5033 142.773 50.2468 142.851 49.9476H144.112C144.041 50.432 143.865 50.8684 143.583 51.2567C143.305 51.6414 142.937 51.9477 142.477 52.1757C142.021 52.4001 141.49 52.5123 140.885 52.5123Z" fill="#EB6823"/>
<path d="M133.98 52.3414V44.1343H135.241V52.3414H133.98ZM134.621 42.7665C134.376 42.7665 134.164 42.6827 133.985 42.5153C133.811 42.3479 133.724 42.1466 133.724 41.9115C133.724 41.6764 133.811 41.4752 133.985 41.3078C134.164 41.1403 134.376 41.0566 134.621 41.0566C134.867 41.0566 135.077 41.1403 135.252 41.3078C135.43 41.4752 135.519 41.6764 135.519 41.9115C135.519 42.1466 135.43 42.3479 135.252 42.5153C135.077 42.6827 134.867 42.7665 134.621 42.7665Z" fill="#EB6823"/>
<path d="M120.902 52.3413V44.1342H122.121V45.4166H122.227C122.398 44.9784 122.675 44.6382 123.056 44.396C123.437 44.1502 123.895 44.0273 124.429 44.0273C124.97 44.0273 125.421 44.1502 125.781 44.396C126.144 44.6382 126.427 44.9784 126.63 45.4166H126.716C126.926 44.9927 127.241 44.6561 127.661 44.4067C128.082 44.1538 128.586 44.0273 129.174 44.0273C129.907 44.0273 130.508 44.2571 130.974 44.7166C131.441 45.1726 131.674 45.8832 131.674 46.8485V52.3413H130.413V46.8485C130.413 46.243 130.248 45.8102 129.916 45.5501C129.585 45.2901 129.195 45.1601 128.746 45.1601C128.169 45.1601 127.722 45.3346 127.405 45.6837C127.088 46.0293 126.929 46.4674 126.929 46.9981V52.3413H125.647V46.7203C125.647 46.2537 125.496 45.8779 125.193 45.5929C124.89 45.3044 124.5 45.1601 124.023 45.1601C123.695 45.1601 123.389 45.2474 123.104 45.4219C122.822 45.5965 122.594 45.8387 122.42 46.1486C122.249 46.4549 122.163 46.8094 122.163 47.2119V52.3413H120.902Z" fill="#EB6823"/>
<path d="M115.586 52.5123C114.796 52.5123 114.114 52.3378 113.54 51.9887C112.97 51.636 112.53 51.1444 112.22 50.514C111.914 49.8799 111.761 49.1425 111.761 48.3019C111.761 47.4612 111.914 46.7203 112.22 46.0791C112.53 45.4344 112.961 44.9321 113.513 44.5723C114.069 44.209 114.717 44.0273 115.458 44.0273C115.886 44.0273 116.308 44.0986 116.725 44.2411C117.141 44.3836 117.521 44.6151 117.863 44.9357C118.205 45.2527 118.477 45.673 118.68 46.1967C118.883 46.7203 118.985 47.365 118.985 48.1309V48.6652H112.658V47.5752H117.702C117.702 47.1121 117.61 46.6989 117.424 46.3356C117.243 45.9723 116.983 45.6855 116.644 45.4753C116.31 45.2652 115.914 45.1601 115.458 45.1601C114.956 45.1601 114.521 45.2848 114.154 45.5341C113.791 45.7799 113.512 46.1005 113.316 46.4959C113.12 46.8913 113.022 47.3152 113.022 47.7676V48.4942C113.022 49.114 113.129 49.6395 113.342 50.0705C113.56 50.4979 113.861 50.8239 114.245 51.0483C114.63 51.2691 115.077 51.3795 115.586 51.3795C115.918 51.3795 116.217 51.3332 116.484 51.2406C116.755 51.1444 116.988 51.002 117.184 50.8132C117.38 50.6208 117.531 50.3822 117.638 50.0972L118.856 50.4391C118.728 50.8524 118.513 51.2157 118.21 51.5292C117.907 51.8391 117.533 52.0813 117.088 52.2558C116.643 52.4268 116.142 52.5123 115.586 52.5123Z" fill="#EB6823"/>
<path d="M105.899 52.5122C105.215 52.5122 104.611 52.3395 104.087 51.9939C103.564 51.6449 103.154 51.1533 102.859 50.5192C102.563 49.8816 102.415 49.1282 102.415 48.2591C102.415 47.397 102.563 46.649 102.859 46.0149C103.154 45.3809 103.566 44.8911 104.093 44.5456C104.62 44.2 105.229 44.0273 105.92 44.0273C106.454 44.0273 106.877 44.1163 107.186 44.2944C107.5 44.469 107.739 44.6685 107.902 44.8929C108.07 45.1137 108.2 45.2954 108.293 45.4379H108.399V41.3984H109.66V52.3412H108.442V51.0803H108.293C108.2 51.2299 108.068 51.4187 107.897 51.6466C107.726 51.871 107.482 52.0723 107.165 52.2504C106.848 52.425 106.426 52.5122 105.899 52.5122ZM106.07 51.3795C106.576 51.3795 107.003 51.2477 107.352 50.9841C107.701 50.7169 107.967 50.3482 108.148 49.878C108.33 49.4043 108.421 48.8575 108.421 48.2377C108.421 47.625 108.332 47.0889 108.154 46.6294C107.975 46.1663 107.712 45.8066 107.363 45.5501C107.014 45.29 106.583 45.16 106.07 45.16C105.535 45.16 105.09 45.2972 104.734 45.5715C104.381 45.8422 104.116 46.2109 103.938 46.6775C103.763 47.1406 103.676 47.6606 103.676 48.2377C103.676 48.8219 103.765 49.3526 103.943 49.83C104.125 50.3037 104.392 50.6813 104.745 50.9627C105.101 51.2406 105.543 51.3795 106.07 51.3795Z" fill="#EB6823"/>
<path d="M96.7363 52.5337C96.2163 52.5337 95.7443 52.4357 95.3204 52.2398C94.8965 52.0403 94.5599 51.7536 94.3105 51.3795C94.0612 51.002 93.9365 50.546 93.9365 50.0117C93.9365 49.5415 94.0291 49.1603 94.2144 48.8683C94.3996 48.5726 94.6472 48.3411 94.9571 48.1736C95.267 48.0062 95.6089 47.8815 95.983 47.7996C96.3605 47.7141 96.7399 47.6464 97.1211 47.5966C97.6197 47.5325 98.024 47.4844 98.3339 47.4523C98.6474 47.4167 98.8754 47.3579 99.0179 47.276C99.1639 47.1941 99.2369 47.0516 99.2369 46.8485V46.8058C99.2369 46.2786 99.0927 45.869 98.8041 45.5769C98.5192 45.2848 98.0864 45.1387 97.5058 45.1387C96.9038 45.1387 96.4318 45.2705 96.0898 45.5341C95.7479 45.7977 95.5074 46.0791 95.3685 46.3783L94.1716 45.9509C94.3853 45.4522 94.6703 45.0639 95.0265 44.7861C95.3863 44.5047 95.7781 44.3088 96.202 44.1983C96.6295 44.0843 97.0498 44.0273 97.463 44.0273C97.7266 44.0273 98.0294 44.0594 98.3713 44.1235C98.7169 44.1841 99.0499 44.3105 99.3705 44.5029C99.6947 44.6952 99.9636 44.9856 100.177 45.3738C100.391 45.7621 100.498 46.2822 100.498 46.934V52.3413H99.2369V51.2299H99.1728C99.0873 51.408 98.9448 51.5986 98.7454 51.8017C98.5459 52.0047 98.2805 52.1775 97.9492 52.3199C97.618 52.4624 97.2137 52.5337 96.7363 52.5337ZM96.9287 51.4009C97.4274 51.4009 97.8477 51.303 98.1897 51.107C98.5352 50.9111 98.7952 50.6582 98.9698 50.3483C99.1479 50.0384 99.2369 49.7125 99.2369 49.3705V48.2164C99.1835 48.2805 99.066 48.3393 98.8843 48.3927C98.7062 48.4426 98.4996 48.4871 98.2645 48.5263C98.0329 48.5619 97.8068 48.594 97.5859 48.6225C97.3686 48.6474 97.1923 48.6688 97.0569 48.6866C96.7292 48.7293 96.4229 48.7988 96.1379 48.895C95.8565 48.9876 95.6285 49.1283 95.454 49.3171C95.283 49.5023 95.1975 49.7552 95.1975 50.0758C95.1975 50.5139 95.3596 50.8452 95.6837 51.0696C96.0115 51.2905 96.4264 51.4009 96.9287 51.4009Z" fill="#EB6823"/>
<path d="M89.2511 52.5123C88.4817 52.5123 87.8191 52.3306 87.2634 51.9673C86.7077 51.604 86.2803 51.1035 85.9811 50.4659C85.6818 49.8282 85.5322 49.0998 85.5322 48.2805C85.5322 47.447 85.6854 46.7114 85.9917 46.0738C86.3016 45.4326 86.7327 44.9321 87.2848 44.5723C87.8405 44.209 88.4888 44.0273 89.2297 44.0273C89.8068 44.0273 90.3268 44.1342 90.7899 44.3479C91.253 44.5617 91.6323 44.8609 91.928 45.2456C92.2237 45.6303 92.4071 46.0791 92.4784 46.5921H91.2174C91.1212 46.218 90.9075 45.8868 90.5762 45.5982C90.2485 45.3061 89.8068 45.1601 89.2511 45.1601C88.7595 45.1601 88.3285 45.2883 87.958 45.5448C87.5911 45.7977 87.3044 46.1557 87.0978 46.6188C86.8947 47.0783 86.7932 47.618 86.7932 48.2378C86.7932 48.8718 86.893 49.4239 87.0924 49.8941C87.2955 50.3643 87.5804 50.7295 87.9473 50.9895C88.3178 51.2495 88.7524 51.3795 89.2511 51.3795C89.5788 51.3795 89.8762 51.3226 90.1434 51.2086C90.4105 51.0946 90.6367 50.9307 90.822 50.717C91.0072 50.5033 91.139 50.2468 91.2174 49.9476H92.4784C92.4071 50.432 92.2308 50.8684 91.9494 51.2567C91.6715 51.6414 91.3028 51.9477 90.8433 52.1757C90.3874 52.4001 89.8566 52.5123 89.2511 52.5123Z" fill="#EB6823"/>
<path d="M79.8535 52.5337C79.3335 52.5337 78.8615 52.4357 78.4376 52.2398C78.0137 52.0403 77.6771 51.7536 77.4277 51.3795C77.1784 51.002 77.0537 50.546 77.0537 50.0117C77.0537 49.5415 77.1463 49.1603 77.3316 48.8683C77.5168 48.5726 77.7644 48.3411 78.0743 48.1736C78.3842 48.0062 78.7261 47.8815 79.1001 47.7996C79.4777 47.7141 79.8571 47.6464 80.2382 47.5966C80.7369 47.5325 81.1412 47.4844 81.4511 47.4523C81.7646 47.4167 81.9926 47.3579 82.1351 47.276C82.2811 47.1941 82.3541 47.0516 82.3541 46.8485V46.8058C82.3541 46.2786 82.2099 45.869 81.9213 45.5769C81.6364 45.2848 81.2036 45.1387 80.6229 45.1387C80.021 45.1387 79.549 45.2705 79.207 45.5341C78.865 45.7977 78.6246 46.0791 78.4857 46.3783L77.2888 45.9509C77.5025 45.4522 77.7875 45.0639 78.1437 44.7861C78.5035 44.5047 78.8953 44.3088 79.3192 44.1983C79.7467 44.0843 80.167 44.0273 80.5802 44.0273C80.8438 44.0273 81.1466 44.0594 81.4885 44.1235C81.8341 44.1841 82.1671 44.3105 82.4877 44.5029C82.8119 44.6952 83.0808 44.9856 83.2945 45.3738C83.5083 45.7621 83.6151 46.2822 83.6151 46.934V52.3413H82.3541V51.2299H82.29C82.2045 51.408 82.062 51.5986 81.8626 51.8017C81.6631 52.0047 81.3977 52.1775 81.0664 52.3199C80.7352 52.4624 80.3309 52.5337 79.8535 52.5337ZM80.0459 51.4009C80.5446 51.4009 80.9649 51.303 81.3069 51.107C81.6524 50.9111 81.9124 50.6582 82.087 50.3483C82.2651 50.0384 82.3541 49.7125 82.3541 49.3705V48.2164C82.3007 48.2805 82.1832 48.3393 82.0015 48.3927C81.8234 48.4426 81.6168 48.4871 81.3817 48.5263C81.1501 48.5619 80.9239 48.594 80.7031 48.6225C80.4858 48.6474 80.3095 48.6688 80.1741 48.6866C79.8464 48.7293 79.5401 48.7988 79.2551 48.895C78.9737 48.9876 78.7457 49.1283 78.5712 49.3171C78.4002 49.5023 78.3147 49.7552 78.3147 50.0758C78.3147 50.5139 78.4768 50.8452 78.8009 51.0696C79.1286 51.2905 79.5436 51.4009 80.0459 51.4009Z" fill="#EB6823"/>
<path d="M71.8398 52.3412V44.1341H73.0581V45.3737H73.1436C73.2932 44.9676 73.5639 44.6381 73.9557 44.3852C74.3476 44.1323 74.7893 44.0059 75.2808 44.0059C75.3735 44.0059 75.4892 44.0076 75.6281 44.0112C75.7671 44.0148 75.8722 44.0201 75.9434 44.0272V45.3096C75.9007 45.2989 75.8027 45.2829 75.6495 45.2615C75.4999 45.2366 75.3414 45.2241 75.174 45.2241C74.775 45.2241 74.4188 45.3078 74.1053 45.4752C73.7954 45.6391 73.5497 45.8671 73.368 46.1592C73.1899 46.4477 73.1008 46.7772 73.1008 47.1476V52.3412H71.8398Z" fill="#EB6823"/>
<path d="M66.1964 52.5123C65.4555 52.5123 64.8054 52.336 64.2461 51.9833C63.6904 51.6307 63.2559 51.1373 62.9424 50.5033C62.6325 49.8692 62.4775 49.1283 62.4775 48.2805C62.4775 47.4256 62.6325 46.6793 62.9424 46.0417C63.2559 45.4041 63.6904 44.909 64.2461 44.5563C64.8054 44.2037 65.4555 44.0273 66.1964 44.0273C66.9373 44.0273 67.5856 44.2037 68.1413 44.5563C68.7006 44.909 69.1351 45.4041 69.445 46.0417C69.7585 46.6793 69.9152 47.4256 69.9152 48.2805C69.9152 49.1283 69.7585 49.8692 69.445 50.5033C69.1351 51.1373 68.7006 51.6307 68.1413 51.9833C67.5856 52.336 66.9373 52.5123 66.1964 52.5123ZM66.1964 51.3795C66.7592 51.3795 67.2223 51.2353 67.5856 50.9467C67.9489 50.6582 68.2179 50.2789 68.3924 49.8087C68.567 49.3385 68.6542 48.8291 68.6542 48.2805C68.6542 47.7319 68.567 47.2208 68.3924 46.747C68.2179 46.2733 67.9489 45.8903 67.5856 45.5982C67.2223 45.3061 66.7592 45.1601 66.1964 45.1601C65.6336 45.1601 65.1705 45.3061 64.8072 45.5982C64.4438 45.8903 64.1749 46.2733 64.0003 46.747C63.8258 47.2208 63.7385 47.7319 63.7385 48.2805C63.7385 48.8291 63.8258 49.3385 64.0003 49.8087C64.1749 50.2789 64.4438 50.6582 64.8072 50.9467C65.1705 51.2353 65.6336 51.3795 66.1964 51.3795Z" fill="#EB6823"/>
<path d="M54.8047 52.3412V41.3984H61.3661V42.5739H56.1298V46.2714H60.8745V47.4469H56.1298V52.3412H54.8047Z" fill="#EB6823"/>
<path d="M42.8391 55.419C42.6254 55.419 42.4348 55.4012 42.2674 55.3656C42.0999 55.3336 41.9842 55.3015 41.9201 55.2694L42.2407 54.1581C42.547 54.2364 42.8177 54.2649 43.0528 54.2436C43.2879 54.2222 43.4963 54.1171 43.678 53.9283C43.8632 53.7431 44.0324 53.4421 44.1856 53.0253L44.4207 52.3841L41.3857 44.1343H42.7536L45.0191 50.6743H45.1046L47.3701 44.1343H48.7379L45.2542 53.5383C45.0975 53.9621 44.9033 54.313 44.6718 54.5909C44.4403 54.8723 44.1713 55.0806 43.865 55.216C43.5622 55.3514 43.2202 55.419 42.8391 55.419Z" fill="#EB6823"/>
<path d="M39.717 41.3984V52.3412H38.4561V41.3984H39.717Z" fill="#EB6823"/>
<path d="M31.447 49.3491L31.4256 47.7889H31.6821L35.2727 44.1341H36.8329L33.0072 48.0026H32.9003L31.447 49.3491ZM30.2715 52.3412V41.3984H31.5325V52.3412H30.2715ZM35.4864 52.3412L32.2805 48.2804L33.1782 47.4042L37.0894 52.3412H35.4864Z" fill="#EB6823"/>
<path d="M25.2013 52.5123C24.4319 52.5123 23.7693 52.3306 23.2136 51.9673C22.6579 51.604 22.2305 51.1035 21.9312 50.4659C21.632 49.8282 21.4824 49.0998 21.4824 48.2805C21.4824 47.447 21.6356 46.7114 21.9419 46.0738C22.2518 45.4326 22.6829 44.9321 23.235 44.5723C23.7907 44.209 24.439 44.0273 25.1799 44.0273C25.757 44.0273 26.277 44.1342 26.7401 44.3479C27.2032 44.5617 27.5825 44.8609 27.8782 45.2456C28.1739 45.6303 28.3573 46.0791 28.4285 46.5921H27.1676C27.0714 46.218 26.8576 45.8868 26.5264 45.5982C26.1987 45.3061 25.757 45.1601 25.2013 45.1601C24.7097 45.1601 24.2787 45.2883 23.9082 45.5448C23.5413 45.7977 23.2546 46.1557 23.048 46.6188C22.8449 47.0783 22.7434 47.618 22.7434 48.2378C22.7434 48.8718 22.8431 49.4239 23.0426 49.8941C23.2457 50.3643 23.5306 50.7295 23.8975 50.9895C24.268 51.2495 24.7026 51.3795 25.2013 51.3795C25.529 51.3795 25.8264 51.3226 26.0936 51.2086C26.3607 51.0946 26.5869 50.9307 26.7722 50.717C26.9574 50.5033 27.0892 50.2468 27.1676 49.9476H28.4285C28.3573 50.432 28.181 50.8684 27.8996 51.2567C27.6217 51.6414 27.253 51.9477 26.7935 52.1757C26.3376 52.4001 25.8068 52.5123 25.2013 52.5123Z" fill="#EB6823"/>
<path d="M18.2965 52.3414V44.1343H19.5575V52.3414H18.2965ZM18.9377 42.7665C18.6919 42.7665 18.48 42.6827 18.3019 42.5153C18.1273 42.3479 18.04 42.1466 18.04 41.9115C18.04 41.6764 18.1273 41.4752 18.3019 41.3078C18.48 41.1403 18.6919 41.0566 18.9377 41.0566C19.1835 41.0566 19.3936 41.1403 19.5682 41.3078C19.7463 41.4752 19.8353 41.6764 19.8353 41.9115C19.8353 42.1466 19.7463 42.3479 19.5682 42.5153C19.3936 42.6827 19.1835 42.7665 18.9377 42.7665Z" fill="#EB6823"/>
<path d="M14.7259 48.9859V44.1343H15.9869V52.3414H14.7259V50.9522H14.6404C14.4481 51.3689 14.1488 51.7234 13.7428 52.0155C13.3367 52.304 12.8237 52.4482 12.2039 52.4482C11.691 52.4482 11.235 52.336 10.8361 52.1116C10.4371 51.8837 10.1236 51.5417 9.89567 51.0857C9.6677 50.6262 9.55371 50.0474 9.55371 49.3492V44.1343H10.8147V49.2637C10.8147 49.8622 10.9821 50.3395 11.317 50.6957C11.6554 51.0519 12.0864 51.23 12.61 51.23C12.9235 51.23 13.2423 51.1499 13.5664 50.9896C13.8941 50.8293 14.1684 50.5835 14.3893 50.2522C14.6137 49.9209 14.7259 49.4988 14.7259 48.9859Z" fill="#EB6823"/>
<path d="M5.98435 55.419V51.0803H5.87749C5.78487 51.2299 5.65307 51.4187 5.48209 51.6467C5.31111 51.8711 5.0671 52.0724 4.75008 52.2505C4.43305 52.425 4.01094 52.5123 3.48375 52.5123C2.79982 52.5123 2.19604 52.3395 1.67241 51.994C1.14878 51.6449 0.739138 51.1533 0.443483 50.5193C0.147828 49.8817 0 49.1283 0 48.2591C0 47.3971 0.147828 46.6491 0.443483 46.015C0.739138 45.3809 1.15056 44.8912 1.67775 44.5456C2.20495 44.2001 2.81407 44.0273 3.50512 44.0273C4.03944 44.0273 4.46155 44.1164 4.77145 44.2945C5.08492 44.469 5.32358 44.6685 5.48743 44.8929C5.65485 45.1138 5.78487 45.2955 5.87749 45.4379H6.02709V44.1342H7.24534V55.419H5.98435ZM3.65473 51.3795C4.16055 51.3795 4.588 51.2477 4.93709 50.9841C5.28618 50.717 5.55155 50.3483 5.73322 49.8781C5.91489 49.4044 6.00572 48.8576 6.00572 48.2378C6.00572 47.6251 5.91667 47.089 5.73856 46.6295C5.56046 46.1664 5.29686 45.8066 4.94777 45.5501C4.59869 45.2901 4.16767 45.1601 3.65473 45.1601C3.12041 45.1601 2.67515 45.2972 2.31894 45.5715C1.96629 45.8422 1.70091 46.2109 1.5228 46.6776C1.34826 47.1406 1.26099 47.6607 1.26099 48.2378C1.26099 48.8219 1.35004 49.3527 1.52815 49.83C1.70981 50.3038 1.97697 50.6814 2.32962 50.9628C2.68583 51.2406 3.12753 51.3795 3.65473 51.3795Z" fill="#EB6823"/>
<path d="M268.744 41.9774C266.819 41.188 266.819 41.188 266.043 39.3095L266.016 39.2429C263.751 33.7805 261.863 28.0217 260.247 21.6801C260.137 21.2471 260.027 20.8107 259.921 20.3744C259.891 20.2512 259.861 20.128 259.831 20.0047C259.395 18.2095 258.968 16.3909 258.555 14.6256L258.412 14.0161C258.285 13.4665 258.159 12.917 258.029 12.3707L257.906 11.8412L257.193 12.0743L257.236 12.2808C257.822 15.062 258.402 17.6166 258.991 20.008C259.131 20.5776 259.271 21.1338 259.414 21.6867C260.457 25.7402 261.536 29.3273 262.735 32.7513C263.485 34.8896 264.344 37.0546 265.103 38.9631C265.356 39.5959 265.606 40.2287 265.856 40.8616C265.969 41.1513 265.993 41.3545 265.803 41.641C264.464 43.6793 262.545 45.3913 259.771 47.02C257.133 48.5688 254.332 49.5947 251.94 50.394C251.914 50.404 251.88 50.4074 251.834 50.414C251.894 50.0876 251.954 49.7712 252.014 49.4515C252.167 48.6454 252.323 47.8127 252.46 46.9634C252.613 46.0242 252.773 45.0882 252.93 44.1523L252.94 44.0857C253.379 41.4678 253.832 38.7599 254.202 36.0853C254.801 31.7454 255.204 28.2082 255.471 24.9541C255.561 23.8717 255.627 22.7725 255.687 21.6834C255.717 21.1172 255.744 20.5576 255.771 20.0047C255.807 19.1987 255.837 18.406 255.867 17.6499C255.921 16.3443 255.967 15.1685 256.031 13.9861C256.054 13.5665 255.891 13.3366 255.468 13.1901C255.211 13.1002 254.938 13.0136 254.615 12.9136L254.548 12.8903L253.163 13.3167L253.925 13.5298C254.289 13.6331 254.588 13.723 254.875 13.8163C255.178 13.9129 255.251 14.0194 255.234 14.3292C255.204 15.052 255.181 15.788 255.158 16.5008L255.148 16.7773C255.115 17.8364 255.078 18.9222 255.015 20.0014C254.998 20.2945 254.978 20.5876 254.955 20.8774C254.931 21.1538 254.905 21.4169 254.871 21.6767C254.688 23.1089 254.332 24.3113 253.779 25.3305C253.539 25.7768 253.176 26.1798 252.816 26.5762C252.7 26.7028 252.563 26.856 252.433 27.0092C252.26 27.2124 252.11 27.2157 251.834 27.0158C250.635 26.1565 249.479 25.607 248.303 25.3338C246.418 24.8942 244.533 25.2639 242.544 26.4629C242.258 26.6361 241.978 26.8227 241.715 26.9992C241.612 27.0691 241.509 27.1391 241.399 27.2124C239.973 26.2831 239.427 24.8376 239.051 23.4087C238.901 22.8358 238.787 22.2596 238.698 21.6801C238.614 21.1238 238.551 20.5643 238.508 20.0014C238.421 18.8923 238.398 17.7798 238.374 16.6873V16.6674C238.364 16.1811 238.354 15.6981 238.341 15.2118C238.301 13.9195 238.301 13.9195 239.534 13.5598C239.693 13.5132 239.853 13.4699 240.013 13.4266L240.796 13.2167L239.38 12.7838L239.314 12.8037C238.847 12.937 238.464 13.0569 238.108 13.1801C237.718 13.3167 237.485 13.4999 237.515 14.0095C237.615 15.6149 237.702 17.2502 237.785 18.8323L237.792 18.9622C237.808 19.3053 237.828 19.655 237.848 20.008C237.878 20.5576 237.908 21.1172 237.938 21.6867C238.065 23.9749 238.218 26.383 238.424 28.7112C238.904 34.0436 239.753 39.849 241.099 46.9834C241.285 47.9726 241.479 49.0218 241.692 50.1975C241.702 50.2641 241.705 50.3374 241.708 50.4407L241.712 50.4573V50.464C241.325 50.3174 240.942 50.1775 240.563 50.0376L240.516 50.021C239.537 49.6613 238.528 49.2882 237.548 48.8752C234.035 47.3964 231.606 45.8743 229.671 43.9391C229.035 43.2996 228.472 42.5569 227.929 41.8375L227.726 41.5644C227.63 41.4378 227.6 41.1413 227.663 40.9881C230.134 35.266 232.239 28.9909 234.124 21.6834C234.268 21.1305 234.408 20.5709 234.547 20.0047C235.16 17.5367 235.75 14.952 236.323 12.2309C236.326 12.2142 236.333 12.1909 236.339 12.1709L236.436 11.8811L235.733 11.668L235.673 11.9078C235.407 13.0002 235.137 14.096 234.874 15.1985L234.761 15.6615C234.414 17.0937 234.058 18.5492 233.695 20.008C233.555 20.5676 233.415 21.1272 233.272 21.6867C233.062 22.5161 232.845 23.3487 232.629 24.1714C231.117 29.8736 229.198 35.4259 226.933 40.6717C226.757 41.0747 226.527 41.3012 226.134 41.4478C225.671 41.621 225.198 41.8108 224.712 42.014V42.8533C224.805 42.8134 224.898 42.7767 224.995 42.7368C225.295 42.6135 225.595 42.4936 225.894 42.3704L226.983 41.9307C228.003 43.5061 229.305 44.8717 230.96 46.0974C233.671 48.1092 236.922 49.6913 241.189 51.0802C241.389 51.1468 241.589 51.2101 241.798 51.2733L242.052 51.3533H242.681L242.258 49.0218C242.012 47.6695 241.778 46.3939 241.549 45.0849C241.285 43.5628 241.036 42.0839 240.826 40.8349C240.766 40.4919 240.709 40.1488 240.649 39.8024C240.616 39.6059 240.583 39.4061 240.549 39.2062C244.749 41.3145 248.84 41.3045 253.033 39.1829L250.898 51.3533H251.504C254.645 50.394 257.333 49.2849 259.718 47.9593C262.888 46.1974 265.077 44.2689 266.592 41.9074L267.561 42.3304C267.971 42.5103 268.407 42.7001 268.854 42.8966V42.024C268.807 42.004 268.777 41.9907 268.744 41.9774ZM250.925 28.3648C250.112 29.8103 248.836 30.5963 247.128 30.6996C246.991 30.7096 246.854 30.7129 246.725 30.7129C244.916 30.7129 243.527 29.9269 242.594 28.3781C245.386 27.0858 248.113 27.0825 250.925 28.3648ZM252.846 38.3202C251.054 39.426 249.013 39.9856 246.784 39.9856C246.515 39.9856 246.235 39.9789 245.932 39.9623C244.2 39.8557 242.578 39.3927 241.119 38.5934C240.603 38.3103 240.33 38.0638 240.27 37.4876C240.166 36.5183 240.04 35.5291 239.92 34.5765L239.883 34.2901C239.777 33.4641 239.667 32.6147 239.57 31.7688C241.355 34.3067 243.784 35.5924 246.788 35.5924H246.831C249.815 35.5791 252.177 34.3234 254.019 31.7654L253.869 32.8779C253.642 34.5499 253.409 36.2785 253.163 37.9738C253.143 38.0671 253.006 38.2237 252.846 38.3202Z" fill="#A1A0A0"/>
<path d="M237.905 21.2841L237.919 21.5306C238.035 23.6456 238.185 26.1536 238.415 28.6882C238.452 29.1112 238.495 29.5376 238.535 29.9672L238.538 30.0139L238.558 30.0538C238.838 30.5867 239.024 30.9165 239.031 30.9298L239.194 31.1896C241.009 34.1006 243.564 35.5761 246.782 35.5761H246.825C249.809 35.5628 252.167 34.3071 254.013 31.7458L254.053 31.6925L254.575 30.9065C254.689 30.7266 254.799 30.5468 254.905 30.3636L254.932 30.3203L254.938 30.2703C255.158 28.3652 255.332 26.6165 255.468 24.9279C255.551 23.9153 255.625 22.8029 255.691 21.5272L255.705 21.2808L255.252 21.404L254.889 21.4873C254.712 22.9994 254.349 24.2517 253.773 25.3142C253.533 25.7606 253.17 26.1636 252.813 26.5599C252.697 26.6898 252.557 26.8397 252.43 26.9929C252.261 27.1928 252.104 27.1961 251.831 26.9996C250.632 26.1403 249.476 25.5907 248.3 25.3176C246.415 24.8779 244.53 25.2476 242.542 26.4467C242.255 26.6199 241.975 26.8064 241.712 26.9829C241.609 27.0529 241.502 27.1228 241.396 27.1928C239.97 26.2635 239.424 24.818 239.048 23.3891C238.891 22.7962 238.768 22.1734 238.668 21.4806M250.925 28.3485C250.112 29.794 248.837 30.5801 247.128 30.6833C246.991 30.6933 246.855 30.6967 246.725 30.6967C244.92 30.6967 243.531 29.9106 242.595 28.3618C245.386 27.0728 248.114 27.0662 250.925 28.3485Z" fill="#616161"/>
<path d="M241.989 57.3019H236.963C236.4 57.3019 235.94 57.7582 235.94 58.3245C235.94 58.8874 236.397 59.347 236.963 59.347H256.584C257.147 59.347 257.607 58.8907 257.607 58.3245C257.607 57.7616 257.15 57.3019 256.584 57.3019H251.558V53.7681H241.992V57.3019H241.989Z" fill="#ED6D22"/>
<path d="M260.527 21.6802H261.766C261.752 21.4238 261.742 21.1706 261.736 20.9142C261.729 20.6111 261.726 20.308 261.726 20.0049H260.11C260.14 20.1281 260.17 20.2514 260.2 20.3746C260.307 20.8142 260.417 21.2472 260.527 21.6802Z" fill="#ED6D22"/>
<path d="M268.657 25.2542C268.568 25.1543 268.481 25.0544 268.394 24.9511C268.328 24.8712 268.264 24.7946 268.198 24.7146C268.021 24.4981 267.845 24.275 267.678 24.0518V24.0485C267.255 23.479 266.866 22.8894 266.516 22.2732C266.409 22.09 266.309 21.9002 266.213 21.7103C266.076 21.4472 265.943 21.1808 265.82 20.911C265.683 20.6112 265.553 20.3081 265.433 19.9984C265.31 19.6786 265.194 19.3555 265.09 19.0258C264.9 18.4263 264.737 17.8101 264.611 17.1706C264.521 16.7143 264.554 16.3379 264.847 15.9183C265.49 14.999 265.22 13.71 264.258 13.1638C263.768 12.884 263.508 12.5076 263.272 12.0447C262.965 11.4485 262.612 10.8789 262.216 10.1928C263.561 9.77977 264.84 9.38342 266.119 8.9904C266.549 8.8605 266.975 8.72394 267.402 8.59072C267.788 8.47081 268.174 8.35424 268.561 8.24432C268.721 8.19769 268.877 8.1444 269.011 8.07446C269.284 7.93457 269.477 7.71807 269.48 7.33504C269.483 6.76216 269.064 6.55566 268.578 6.4091C264.358 5.12345 260.138 3.83114 255.918 2.53883C253.263 1.72614 250.612 0.893461 247.947 0.110747C247.524 -0.0124895 247.001 -0.0457934 246.588 0.0774425C239.664 2.17245 232.749 4.30077 225.828 6.41244C225.332 6.56232 224.945 6.79547 224.945 7.35836C224.949 7.90459 225.358 8.08778 225.818 8.22767C226.341 8.38754 226.867 8.54742 227.393 8.71062C227.923 8.87049 228.449 9.0337 228.979 9.19357C231.26 9.89302 233.542 10.5891 235.823 11.2886C235.847 11.2952 235.87 11.3019 235.893 11.3086C235.917 11.3152 235.94 11.3219 235.96 11.3286L236.196 11.4018C236.22 11.4085 236.243 11.4151 236.266 11.4218C236.29 11.4285 236.31 11.4351 236.333 11.4418C237.286 11.7349 238.238 12.0247 239.191 12.3144C239.231 12.3278 239.274 12.3411 239.314 12.3511C239.357 12.3644 239.401 12.3777 239.444 12.391C239.637 12.451 239.827 12.5076 240.02 12.5676C240.063 12.5809 240.107 12.5942 240.15 12.6075C240.193 12.6209 240.24 12.6342 240.283 12.6475C242.405 13.297 244.527 13.9432 246.648 14.5893C246.955 14.6826 247.331 14.7159 247.631 14.6293C249.692 14.0131 251.751 13.3836 253.806 12.7541C253.849 12.7408 253.892 12.7274 253.936 12.7141C253.979 12.7008 254.019 12.6875 254.062 12.6742C254.249 12.6175 254.435 12.5609 254.622 12.5043C254.662 12.491 254.702 12.481 254.742 12.4677C254.782 12.4543 254.822 12.4443 254.862 12.431C255.538 12.2245 256.211 12.0147 256.887 11.8082L257.403 11.6416L257.473 11.6183L257.54 11.595L257.813 11.5051L257.879 11.4818L257.946 11.4584L259.808 10.8523C261.047 11.605 260.714 11.4684 261.4 12.7907C261.586 13.1504 261.626 13.4469 261.393 13.8399C260.9 14.6792 261.07 15.5152 261.69 16.2613C261.889 16.5011 262.043 16.8808 262.033 17.1873C262.009 17.7968 261.989 18.403 261.979 19.0125C261.973 19.3389 261.969 19.662 261.969 19.985C261.969 20.2881 261.973 20.5912 261.979 20.8943C261.986 21.1508 261.996 21.4073 262.009 21.6604C262.019 21.8502 262.029 22.0401 262.043 22.2266C262.089 22.8594 262.163 23.4856 262.269 24.1118C262.382 24.7846 262.536 25.4541 262.739 26.1169C263.019 27.0361 263.428 27.9454 263.931 28.7714C264.038 28.9513 264.151 29.1245 264.268 29.2944C264.594 29.764 264.974 30.1137 265.4 30.3469C266.056 30.7032 266.816 30.7865 267.628 30.62C267.798 30.5833 267.971 30.54 268.145 30.4834C268.321 30.4268 268.494 30.3569 268.661 30.2836V25.2542H268.657Z" fill="#574B9A"/>
<path d="M271.442 27.4393C271.282 27.3061 271.129 27.1695 270.972 27.033C270.905 26.9764 270.846 26.9164 270.782 26.8564V29.4477C270.846 29.3944 270.909 29.3445 270.972 29.2912C271.402 28.9248 271.815 28.5285 272.218 28.0988C271.915 27.839 271.678 27.6392 271.442 27.4393Z" fill="#574B9A"/>
<path d="M265.75 20.0049H265.663L266.416 21.7602C267.818 22.0399 268.827 23.2623 268.827 24.7311L268.84 25.3906V25.4639V30.2301V42.0208V42.8935V43.0866V48.3358C268.84 49.9979 267.468 51.3501 265.783 51.3501H251.487H250.881H242.668H242.038H227.756C226.071 51.3501 224.699 49.9979 224.699 48.3358V42.9867V42.8502V42.0108V24.6978C224.699 23.0358 226.071 21.6836 227.756 21.6836H232.869C233.012 21.124 233.152 20.5644 233.292 20.0049H227.756C225.132 20.0049 223 22.1099 223 24.6978V42.7602V43.6162V43.7528V48.3358C223 50.9238 225.135 53.0288 227.756 53.0288H265.78C268.401 53.0288 270.536 50.9238 270.536 48.3358V43.8427V43.6462V42.7669V29.1477V27.1559V27.0826V24.7611V24.7311C270.539 22.1232 268.391 20.0049 265.75 20.0049Z" fill="#ED6D22"/>
</svg>
