<svg width="159" height="35" viewBox="0 0 159 35" fill="none" xmlns="http://www.w3.org/2000/svg">
<path d="M3.17461 17.9272C3.09426 18.0299 2.98178 18.149 2.83314 18.2763C2.6845 18.4037 2.50774 18.5104 2.29483 18.6008C2.08593 18.687 1.84892 18.7322 1.58779 18.7322C1.29052 18.7322 1.02538 18.6624 0.780323 18.5269C0.539289 18.3913 0.346462 18.1983 0.209875 17.956C0.0692715 17.7137 0.000976562 17.4221 0.000976562 17.0853C0.000976562 16.8799 0.0291022 16.6869 0.0813264 16.4979C0.133551 16.309 0.229959 16.1201 0.370563 15.9312C0.511166 15.7422 0.708014 15.5574 0.969135 15.3726C1.22624 15.1878 1.55967 15.003 1.96541 14.8099C2.37115 14.6169 2.86528 14.4197 3.44376 14.2185L3.17862 15.274C2.88134 15.3849 2.60817 15.4958 2.35107 15.6108C2.09396 15.7258 1.84891 15.849 1.61591 15.9887C1.38291 16.1283 1.14991 16.2926 0.916908 16.4774L1.34274 15.9887C1.2624 16.1283 1.20615 16.2721 1.16598 16.4199C1.12983 16.5678 1.10974 16.7197 1.10974 16.8676C1.10974 17.1469 1.19008 17.3563 1.34676 17.5001C1.50745 17.6438 1.70028 17.7137 1.92524 17.7137C2.14619 17.7137 2.3591 17.6562 2.56398 17.5412C2.76886 17.4262 2.96972 17.2783 3.17058 17.1058L3.17461 17.9272ZM1.88105 13.1794C1.99353 13.0726 2.04576 12.9248 2.04576 12.7399C2.04576 12.5551 1.98952 12.4073 1.88105 12.3046C1.76857 12.2019 1.63198 12.1485 1.46728 12.1485C1.30257 12.1485 1.16598 12.2019 1.0535 12.3046C0.941016 12.4073 0.888791 12.5551 0.888791 12.7399C0.888791 12.9248 0.945034 13.0726 1.0535 13.1794C1.16598 13.2862 1.30257 13.3396 1.46728 13.3396C1.63198 13.3437 1.76857 13.2903 1.88105 13.1794ZM3.24691 13.0069C3.3594 12.9001 3.41162 12.7564 3.41162 12.5756C3.41162 12.3908 3.35538 12.243 3.24691 12.1362C3.13443 12.0294 2.99784 11.976 2.83314 11.976C2.66843 11.976 2.52783 12.0294 2.41535 12.1362C2.30286 12.243 2.24662 12.3908 2.24662 12.5756C2.24662 12.7564 2.30286 12.9001 2.41535 13.0069C2.52783 13.1137 2.66843 13.1671 2.83314 13.1671C2.99784 13.1671 3.13443 13.1137 3.24691 13.0069ZM3.03801 18.7281V17.611L2.86929 17.8533V13.9474L3.97805 13.816H4.06241V18.1654L3.57633 17.6685H5.23143V18.5474L5.06271 18.7199H3.03801V18.7281ZM4.88595 17.8492V18.7281H8.23633L8.40506 18.5556V17.6767H6.74995L7.23604 18.1737V14.1815H7.15971L6.04292 14.3212V16.9703C6.04292 17.1838 6.05497 17.3728 6.08309 17.5329C6.10719 17.6931 6.14335 17.8122 6.19156 17.8862L6.60132 17.6767H5.0587L4.88595 17.8492ZM5.17519 20.6256C5.28768 20.7324 5.42426 20.7858 5.58495 20.7858C5.74966 20.7858 5.89026 20.7324 6.00274 20.6256C6.11523 20.5188 6.17147 20.371 6.17147 20.1861C6.17147 20.0054 6.11523 19.8617 6.00274 19.7549C5.89026 19.6481 5.75367 19.5947 5.59298 19.5947C5.42828 19.5947 5.28768 19.6481 5.17519 19.7549C5.06271 19.8617 5.00647 20.0054 5.00647 20.1861C5.00647 20.371 5.06271 20.5188 5.17519 20.6256ZM6.54105 20.4531C6.65354 20.5558 6.79013 20.6092 6.95082 20.6092C7.11552 20.6092 7.25613 20.5558 7.36861 20.4531C7.48109 20.3504 7.53734 20.2026 7.53734 20.0177C7.53734 19.8329 7.48109 19.6851 7.36861 19.5824C7.25613 19.4797 7.11954 19.4263 6.95885 19.4263C6.79414 19.4263 6.65354 19.4797 6.54105 19.5824C6.42857 19.6851 6.37233 19.8329 6.37233 20.0177C6.36831 20.2067 6.42857 20.3504 6.54105 20.4531ZM8.40908 17.6726L8.24035 17.8451V18.724H10.2369L9.88742 17.6685H8.40908V17.6726ZM14.4711 18.5556V17.6767C14.1698 17.6767 13.9207 17.5863 13.7239 17.4015C13.527 17.2167 13.3664 16.9374 13.2338 16.5596L12.5187 14.4608L12.3661 14.3828C11.9643 14.3828 11.5666 14.4403 11.1729 14.5553C10.7792 14.6703 10.4257 14.8428 10.1044 15.0728C9.78298 15.3028 9.52587 15.5862 9.33305 15.9229C9.14022 16.2597 9.0438 16.6458 9.0438 17.0812C9.0438 17.3851 9.08799 17.6479 9.18039 17.8738C9.27279 18.0997 9.3933 18.2928 9.54596 18.4488C9.69862 18.6049 9.87136 18.7322 10.0602 18.8267C10.249 18.9212 10.4458 18.9951 10.6467 19.0403C10.8475 19.0854 11.0404 19.1101 11.2212 19.1101C11.4582 19.1101 11.7153 19.0772 11.9884 19.0074C12.2616 18.9376 12.5268 18.8349 12.7879 18.7035L13.0249 17.6931L12.9124 17.6069C12.7517 17.7054 12.5388 17.7999 12.2737 17.8862C12.0045 17.9724 11.7233 18.0176 11.422 18.0176C11.2171 18.0176 11.0203 17.9806 10.8315 17.9026C10.6427 17.8287 10.486 17.7137 10.3655 17.5576C10.245 17.4056 10.1847 17.2085 10.1847 16.9785C10.1847 16.8142 10.2249 16.6499 10.3012 16.4856C10.3775 16.3213 10.494 16.1653 10.6547 16.0256C10.8154 15.8819 11.0123 15.7628 11.2533 15.6642C11.4903 15.5656 11.7715 15.5122 12.0969 15.4999L11.6189 15.3356L12.3098 17.2003C12.4504 17.5535 12.6071 17.8451 12.7718 18.0669C12.9365 18.2887 13.1414 18.457 13.3824 18.5679C13.6235 18.6788 13.9288 18.7322 14.2984 18.7322L14.4711 18.5556ZM14.3586 20.6256C14.4711 20.7324 14.6077 20.7858 14.7684 20.7858C14.9331 20.7858 15.0737 20.7324 15.1862 20.6256C15.2987 20.5188 15.3549 20.371 15.3549 20.1861C15.3549 20.0054 15.2987 19.8617 15.1862 19.7549C15.0737 19.6481 14.9371 19.5947 14.7764 19.5947C14.6117 19.5947 14.4711 19.6481 14.3586 19.7549C14.2461 19.8617 14.1899 20.0054 14.1899 20.1861C14.1899 20.371 14.2461 20.5188 14.3586 20.6256ZM15.1701 18.7281C15.5276 18.7281 15.8329 18.7117 16.082 18.6747C16.3311 18.6419 16.544 18.5885 16.7127 18.5187V18.4488C16.6886 18.3461 16.6726 18.2147 16.6645 18.0545C16.6565 17.8944 16.6484 17.7383 16.6484 17.574C16.6444 17.4097 16.6444 17.2701 16.6444 17.1551V14.1733H16.5681L15.4513 14.313V16.9538C15.4513 17.1674 15.4634 17.3563 15.4915 17.5206C15.5156 17.6849 15.5517 17.804 15.5999 17.8779L16.0097 17.6685H14.4751L14.3064 17.841V18.7199H15.1701V18.7281ZM15.7245 20.4531C15.837 20.5558 15.9736 20.6092 16.1342 20.6092C16.2989 20.6092 16.4396 20.5558 16.552 20.4531C16.6645 20.3504 16.7208 20.2026 16.7208 20.0177C16.7208 19.8329 16.6645 19.6851 16.552 19.5824C16.4396 19.4797 16.303 19.4263 16.1423 19.4263C15.9776 19.4263 15.837 19.4797 15.7245 19.5824C15.612 19.6851 15.5558 19.8329 15.5558 20.0177C15.5517 20.2067 15.608 20.3504 15.7245 20.4531ZM17.717 18.7281H21.3406C21.7062 18.7281 22.0155 18.6829 22.2686 18.5926C22.5257 18.5022 22.7306 18.379 22.8913 18.2188C23.0519 18.0587 23.1684 17.8738 23.2408 17.6644C23.3131 17.4549 23.3532 17.229 23.3532 16.9826C23.3532 16.7115 23.301 16.4446 23.2006 16.1899C23.1001 15.9353 22.9716 15.6971 22.827 15.4835C22.6783 15.2699 22.5297 15.0892 22.3851 14.9414H22.2846C22.1159 14.9824 21.907 15.0112 21.658 15.0235C21.4089 15.0399 21.1638 15.044 20.9107 15.044H20.6376C20.3524 15.044 20.0551 15.0276 19.7417 14.9988C19.4284 14.9701 19.1472 14.9126 18.8981 14.8264H18.8137L18.5325 15.7956C18.7374 15.8696 18.9463 15.9312 19.1632 15.9681C19.3802 16.0092 19.5971 16.0379 19.8181 16.0503C20.039 16.0667 20.2479 16.0708 20.4407 16.0708H20.7581C20.9469 16.0708 21.1076 16.0667 21.2442 16.0585C21.3808 16.0503 21.5214 16.0338 21.67 16.0092C21.8186 15.9846 21.9954 15.9517 22.2083 15.9065L21.67 15.8285C21.8307 15.9846 21.9552 16.1694 22.0476 16.3788C22.14 16.5883 22.1882 16.7896 22.1882 16.9908C22.1882 17.1346 22.1561 17.2578 22.0918 17.3604C22.0275 17.4631 21.9311 17.5412 21.8026 17.5904C21.674 17.6438 21.5093 17.6685 21.3125 17.6685H18.0906L17.7251 18.6378V18.7281H17.717ZM24.5705 18.7281H25.7636V13.4628C25.7636 13.3478 25.7636 13.2081 25.7676 13.0439C25.7716 12.8796 25.7756 12.7194 25.7837 12.5633C25.7917 12.4073 25.8078 12.2758 25.8319 12.169L25.8238 12.0992L24.5705 12.2307V18.7281ZM26.7719 18.7281L26.9406 18.5556V17.6767H25.4904V18.7322H26.7719V18.7281ZM34.3605 18.7281C34.7944 18.7281 35.1519 18.6829 35.4452 18.5967C35.7344 18.5104 35.9674 18.3872 36.1441 18.2271C36.3209 18.0669 36.4454 17.8862 36.5177 17.6767C36.5901 17.4713 36.6302 17.2495 36.6302 17.0113C36.6302 16.7197 36.578 16.4446 36.4776 16.1817C36.3772 15.9188 36.2486 15.6806 36.104 15.4671C35.9553 15.2535 35.8107 15.0769 35.6701 14.9455H35.5697C35.401 14.9865 35.188 15.0153 34.939 15.0276C34.6899 15.044 34.4368 15.0481 34.1878 15.0481H28.6359L28.8247 15.3808L31.5203 12.8714L31.0423 12.1115H30.9579L27.6236 15.2658C27.6477 15.5862 27.736 15.8038 27.8927 15.9229C28.0494 16.0421 28.2342 16.1037 28.4431 16.1037H34.0431C34.2239 16.1037 34.3846 16.0996 34.5252 16.0913C34.6658 16.0831 34.8064 16.0667 34.955 16.0421C35.1037 16.0174 35.2804 15.9846 35.4853 15.9394L34.955 15.8367C35.1077 15.9928 35.2322 16.1817 35.3286 16.3994C35.4251 16.6171 35.4733 16.8224 35.4733 17.0154C35.4733 17.2537 35.3929 17.422 35.2362 17.5247C35.0756 17.6274 34.8144 17.6767 34.4448 17.6767H26.9527L26.784 17.8492V18.7281H34.3605ZM37.4698 12.1567C37.5542 12.3087 37.6787 12.4319 37.8434 12.5223C38.0082 12.6167 38.197 12.6619 38.4139 12.6619H38.9442L39.141 11.9719V11.9021H38.6107C38.4701 11.9021 38.3376 11.8815 38.2211 11.8364C38.1046 11.7912 38.0081 11.6967 37.9358 11.553L37.968 11.7871C38.0082 11.6023 38.0845 11.4708 38.201 11.3928C38.3175 11.3189 38.4742 11.2778 38.667 11.2778H38.9401L39.137 10.5878V10.5098H38.7031C38.4259 10.5098 38.1849 10.5632 37.98 10.6699C37.7752 10.7767 37.6185 10.9164 37.506 11.093C37.3935 11.2655 37.3413 11.4585 37.3413 11.668C37.3453 11.8446 37.3855 12.0048 37.4698 12.1567ZM41.2983 18.7281C41.4309 18.7281 41.5433 18.7199 41.6438 18.6994C41.7442 18.6788 41.8205 18.6419 41.8768 18.5885V18.5187L40.4707 16.1037H40.4024L39.9846 16.8183L40.8644 18.3872L40.9247 17.6726H38.4099L38.7272 17.804C38.7955 17.7712 38.8638 17.7219 38.9321 17.6603C39.0004 17.5987 39.0767 17.5165 39.1571 17.4056C39.2374 17.2988 39.3338 17.151 39.4343 16.9662L42.0857 12.1896V12.1033H40.9166L39.3218 14.8921L39.7556 14.8058L38.9281 13.2698H37.7591V13.3478L39.2173 15.9435V15.0728L38.4059 16.4938C38.2371 16.7855 38.1006 17.0072 37.9961 17.1633C37.8957 17.3194 37.8033 17.4385 37.7269 17.5124C37.6506 17.5863 37.5703 17.6562 37.4939 17.7219C37.4939 18.034 37.5743 18.2804 37.731 18.457C37.8917 18.6337 38.1046 18.724 38.3777 18.724H41.2983V18.7281ZM42.8329 18.7281H44.026V13.4628C44.026 13.3478 44.026 13.2081 44.03 13.0439C44.034 12.8796 44.038 12.7194 44.0461 12.5633C44.0541 12.4073 44.0702 12.2758 44.0943 12.169L44.0862 12.0992L42.8329 12.2307V18.7281ZM47.2518 18.0997C47.3241 18.1326 47.4165 18.1695 47.521 18.2106C47.6254 18.2476 47.7379 18.2845 47.8584 18.3256C47.979 18.3626 48.0914 18.3954 48.1999 18.4242C48.8186 18.5679 49.381 18.6583 49.8871 18.687C50.3933 18.7158 50.9035 18.7322 51.4137 18.7322H54.1776C54.5351 18.7322 54.8525 18.7158 55.1297 18.6788C55.4069 18.646 55.6278 18.5926 55.8005 18.5228L55.8166 18.4529C55.7925 18.3503 55.7764 18.2188 55.7684 18.0587C55.7604 17.9026 55.7523 17.7424 55.7523 17.5781C55.7483 17.4138 55.7483 17.2742 55.7483 17.1592V14.1774H55.6639L54.5552 14.3171V16.9662C54.5552 17.1797 54.5672 17.3687 54.5873 17.5288C54.6114 17.689 54.6476 17.8081 54.6998 17.8821L55.1096 17.6726H51.4177C51.1727 17.6726 50.8754 17.6685 50.5259 17.6562C50.1764 17.6438 49.8189 17.6233 49.4533 17.5863C49.0877 17.5535 48.7543 17.4919 48.453 17.4015C48.3887 17.3769 48.3003 17.3481 48.1879 17.3153C48.0754 17.2824 47.9589 17.2413 47.8464 17.1962C47.7339 17.151 47.6455 17.1181 47.5812 17.0853H47.5049L47.2518 18.0997ZM51.4659 14.8469C51.5784 14.7401 51.6306 14.5922 51.6306 14.4074C51.6306 14.2226 51.5744 14.0747 51.4659 13.9721C51.3535 13.8694 51.2169 13.816 51.0522 13.816C50.8875 13.816 50.7509 13.8694 50.6384 13.9721C50.5259 14.0747 50.4737 14.2226 50.4737 14.4074C50.4737 14.5922 50.5299 14.7401 50.6384 14.8469C50.7509 14.9537 50.8875 15.0071 51.0522 15.0071C51.2169 15.0071 51.3535 14.9537 51.4659 14.8469ZM52.8318 14.6703C52.9443 14.5635 52.9965 14.4197 52.9965 14.239C52.9965 14.0542 52.9403 13.9064 52.8318 13.7996C52.7193 13.6928 52.5827 13.6394 52.418 13.6394C52.2533 13.6394 52.1127 13.6928 52.0002 13.7996C51.8877 13.9064 51.8315 14.0542 51.8315 14.239C51.8315 14.4197 51.8877 14.5635 52.0002 14.6703C52.1127 14.7771 52.2533 14.8305 52.418 14.8305C52.5827 14.8346 52.7193 14.7771 52.8318 14.6703ZM57.2066 18.7281H58.3997V13.4628C58.3997 13.3478 58.3997 13.2081 58.4037 13.0439C58.4077 12.8796 58.4118 12.7194 58.4198 12.5633C58.4278 12.4073 58.4439 12.2758 58.468 12.169L58.46 12.0992L57.2066 12.2307V18.7281ZM59.408 18.7281L59.5768 18.5556V17.6767H58.1265V18.7322H59.408V18.7281ZM61.738 14.4896C61.5131 14.5265 61.3002 14.5799 61.1033 14.6415L60.9828 14.7565C60.9306 15.4137 60.8542 15.9558 60.7578 16.3871C60.6574 16.8183 60.5168 17.1387 60.332 17.3563C60.1472 17.5699 59.8941 17.6808 59.5768 17.6808L59.408 17.8533V18.7322C59.9142 18.7322 60.332 18.646 60.6574 18.4735C60.9828 18.301 61.2439 18.0587 61.4327 17.7465C61.6215 17.4344 61.7621 17.0606 61.8465 16.6294C61.9309 16.1981 61.9911 15.7299 62.0273 15.2165L61.8385 15.4876C62.2241 15.4712 62.5656 15.5164 62.8588 15.6231C63.1521 15.7299 63.3771 15.886 63.5418 16.0955C63.7025 16.3008 63.7828 16.5472 63.7828 16.8306C63.7828 17.0976 63.7266 17.3563 63.6141 17.611C63.5016 17.8656 63.3369 18.0915 63.12 18.2969L63.7065 17.9313C63.6543 17.9354 63.598 17.9396 63.5297 17.9437C63.4655 17.9478 63.3891 17.9437 63.3048 17.9395C63.0677 17.9395 62.8267 17.9067 62.5937 17.8369C62.3567 17.767 62.1277 17.6685 61.9068 17.5453C61.6858 17.4221 61.4729 17.266 61.276 17.0894L60.4164 17.7794C60.6494 18.071 60.8904 18.301 61.1395 18.4776C61.3885 18.6501 61.6456 18.7733 61.9108 18.8472C62.1759 18.9211 62.4491 18.9581 62.7343 18.9581C63.1682 18.9581 63.5498 18.8636 63.8792 18.6706C64.2086 18.4776 64.4698 18.2147 64.6545 17.8779C64.8393 17.5412 64.9317 17.1633 64.9317 16.7444C64.9317 16.2926 64.8233 15.8901 64.6104 15.5451C64.3975 15.2001 64.1002 14.929 63.7145 14.736C63.3329 14.543 62.891 14.4444 62.3969 14.4444C62.1839 14.4321 61.963 14.4526 61.738 14.4896ZM65.8115 18.7281H69.4351C69.6038 18.7281 69.7645 18.7199 69.9091 18.6994C70.0537 18.6788 70.1863 18.6501 70.3068 18.6172L70.6322 18.3051C70.9174 18.1408 71.1223 17.9396 71.2469 17.689C71.3714 17.4426 71.4357 17.1715 71.4357 16.8758C71.4357 16.6129 71.3834 16.3624 71.283 16.1201C71.1826 15.8778 71.0581 15.656 70.9134 15.4547C70.7688 15.2494 70.6242 15.081 70.4836 14.9496H70.3831C70.2144 14.9906 70.0055 15.0194 69.7565 15.0317C69.5074 15.0481 69.2623 15.0522 69.0092 15.0522H68.7361C68.4509 15.0522 68.1536 15.0358 67.8402 15.0071C67.5269 14.9783 67.2457 14.9208 66.9966 14.8346H66.9122L66.631 15.8038C66.8359 15.8778 67.0448 15.9394 67.2617 15.9763C67.4787 16.0174 67.6956 16.0462 67.9165 16.0585C68.1375 16.0749 68.3464 16.079 68.5392 16.079H68.8566C69.0454 16.079 69.2061 16.0749 69.3427 16.0667C69.4793 16.0585 69.6199 16.0421 69.7685 16.0174C69.9171 15.9928 70.0939 15.9599 70.3068 15.9147L69.7685 15.8367C69.9292 15.9928 70.0537 16.1735 70.1461 16.3829C70.2385 16.5883 70.2867 16.7896 70.2867 16.9785C70.2867 17.229 70.2144 17.4056 70.0738 17.5165C69.9332 17.6233 69.7083 17.6767 69.407 17.6767H66.1851L65.8195 18.646V18.7281H65.8115ZM72.1869 18.7281L72.3556 18.5556V17.6767H68.8365V18.7322H72.1869V18.7281ZM78.1806 18.7281L78.3493 18.5556V17.6685H78.1525C78.0159 17.6685 77.8311 17.6069 77.6021 17.4796C77.3732 17.3563 77.0839 17.1428 76.7424 16.8471C76.397 16.5513 75.9912 16.1488 75.5132 15.6396C75.0391 15.1303 74.4847 14.4937 73.854 13.7256H73.7697L73.0546 14.6128C73.4563 15.1303 73.85 15.6026 74.2317 16.0256C74.6133 16.4487 74.9749 16.8142 75.3244 17.1181C75.6698 17.422 75.9912 17.6562 76.2885 17.8122L76.5617 17.6644H72.3596L72.1909 17.8369V18.724H78.1806V18.7281ZM76.9594 14.5881C77.0719 14.4855 77.1241 14.3376 77.1241 14.1528C77.1241 13.968 77.0678 13.8201 76.9594 13.7174C76.8469 13.6147 76.7103 13.5614 76.5456 13.5614C76.3809 13.5614 76.2443 13.6147 76.1318 13.7174C76.0193 13.8201 75.9671 13.968 75.9671 14.1528C75.9671 14.3376 76.0234 14.4855 76.1318 14.5881C76.2443 14.6908 76.3809 14.7442 76.5456 14.7442C76.7103 14.7442 76.8469 14.6949 76.9594 14.5881ZM78.2851 18.7281C78.6145 18.7281 78.8997 18.7733 79.1367 18.8636C79.3737 18.954 79.5826 19.0649 79.7634 19.2004C79.9442 19.336 80.1089 19.4674 80.2616 19.6029C80.7276 19.3483 81.1413 19.1224 81.5069 18.9212C81.8725 18.724 82.1778 18.5351 82.4309 18.3544C82.684 18.1737 82.8768 17.9847 83.0053 17.7835C83.1379 17.5822 83.2022 17.3481 83.2022 17.0812V13.4628C83.2022 13.2985 83.2062 13.1342 83.2102 12.9658C83.2142 12.7974 83.2223 12.6414 83.2303 12.4976C83.2383 12.3539 83.2504 12.2471 83.2705 12.169L83.2383 12.0992L82.0091 12.2307V17.3317C81.8484 17.5001 81.6676 17.6603 81.4587 17.8081C81.2498 17.956 81.0449 18.0874 80.844 18.1983C80.6432 18.3133 80.4624 18.4036 80.3017 18.4735V13.4628C80.3017 13.3478 80.3017 13.2081 80.3057 13.0439C80.3098 12.8796 80.3138 12.7194 80.3218 12.5633C80.3298 12.4073 80.3459 12.2758 80.37 12.169L80.3379 12.0992L79.1086 12.2307V17.9067C78.9961 17.841 78.8676 17.7917 78.727 17.7547C78.5864 17.7178 78.4297 17.6972 78.257 17.6972H78.1646C78.0641 17.6972 78.0039 17.7301 77.9838 17.7999C77.9677 17.8697 77.9597 18.0053 77.9597 18.2106C77.9597 18.4078 77.9677 18.5433 77.9838 18.6172C77.9998 18.6911 78.0601 18.7281 78.1646 18.7281H78.2851ZM92.2129 18.5556V17.6767C92.0321 17.6767 91.8794 17.6356 91.7629 17.5494C91.6424 17.4672 91.538 17.3358 91.4416 17.1551C91.3492 16.9785 91.2407 16.7485 91.1202 16.4692L90.3971 14.7155L90.2846 14.6703C89.9994 14.736 89.7061 14.8181 89.4048 14.929C89.1035 15.0358 88.8263 15.1714 88.5692 15.3397C88.3121 15.504 88.1072 15.7135 87.9466 15.9599C87.7859 16.2063 87.7095 16.4979 87.7095 16.8347C87.7095 17.0688 87.7658 17.3029 87.8783 17.537C87.9907 17.7712 88.1354 18.0053 88.3081 18.2311C88.4808 18.457 88.6616 18.6829 88.8504 18.9047C89.0392 19.1265 89.2039 19.3442 89.3526 19.5536L89.3445 19.1019C89.1557 19.3401 88.8986 19.5372 88.5732 19.6974C88.2478 19.8576 87.8622 19.9356 87.4163 19.9356C87.115 19.9356 86.8498 19.9151 86.6209 19.8781C86.3919 19.8411 86.199 19.796 86.0464 19.7467C85.8937 19.6974 85.7692 19.6563 85.6808 19.6276H85.6045L85.3152 20.6461C85.6206 20.7694 85.9219 20.8597 86.2111 20.9254C86.5003 20.9911 86.8458 21.0199 87.2516 21.0199C87.818 21.0199 88.3161 20.9213 88.7339 20.7283C89.1557 20.5353 89.4811 20.2724 89.7101 19.9479C89.9391 19.6235 90.0556 19.2744 90.0556 18.9006C90.0556 18.7856 90.0154 18.6542 89.9351 18.5145C89.8547 18.3708 89.7583 18.2229 89.6418 18.0669C89.5253 17.9108 89.4088 17.7506 89.2883 17.5904C89.1678 17.4303 89.0714 17.2742 88.991 17.114C88.9107 16.9579 88.8705 16.8101 88.8705 16.6787C88.8705 16.5144 88.9348 16.383 89.0593 16.2762C89.1839 16.1735 89.3365 16.0913 89.5173 16.0338C89.6981 15.9763 89.8708 15.9353 90.0436 15.9106L89.5494 15.5451L90.3489 17.3851C90.4573 17.6233 90.5778 17.8451 90.7144 18.0504C90.851 18.2558 91.0238 18.4201 91.2407 18.5392C91.4536 18.6583 91.7228 18.7199 92.0482 18.7199L92.2129 18.5556ZM87.0427 17.5124C87.1552 17.4056 87.2074 17.2578 87.2074 17.073C87.2074 16.8922 87.1511 16.7485 87.0427 16.6417C86.9302 16.5349 86.7936 16.4815 86.6289 16.4815C86.4642 16.4815 86.3236 16.5349 86.2111 16.6417C86.0986 16.7485 86.0424 16.8922 86.0424 17.073C86.0424 17.2578 86.0986 17.4056 86.2111 17.5124C86.3236 17.6192 86.4642 17.6726 86.6289 17.6726C86.7936 17.6726 86.9342 17.6192 87.0427 17.5124ZM87.0387 18.9786C87.1511 18.8719 87.2074 18.724 87.2074 18.5392C87.2074 18.3544 87.1511 18.2065 87.0387 18.1038C86.9262 18.0012 86.7896 17.9478 86.6289 17.9478C86.4642 17.9478 86.3236 18.0012 86.2111 18.1038C86.0986 18.2065 86.0424 18.3544 86.0424 18.5392C86.0424 18.724 86.0986 18.8719 86.2111 18.9786C86.3236 19.0854 86.4602 19.1388 86.6209 19.1388C86.7856 19.1388 86.9262 19.0854 87.0387 18.9786ZM92.2129 17.6726L92.0441 17.8451V18.724H93.6551L93.8238 18.5515V17.6726H92.2129ZM97.0818 18.7281L97.2505 18.5556V17.6767H95.5873L96.0734 18.1983V12.1074H95.9891L94.8803 12.2389V16.9703C94.8803 17.1838 94.8924 17.3728 94.9205 17.5329C94.9446 17.6931 94.9808 17.8122 95.029 17.8862L95.4387 17.6767H93.8278L93.6591 17.8492V18.7281H97.0818ZM104.771 18.7281C105.004 18.7281 105.213 18.7117 105.397 18.6829C105.582 18.6542 105.747 18.609 105.896 18.5515L106.313 18.1326C106.534 17.9683 106.691 17.7794 106.787 17.5617C106.88 17.344 106.928 17.114 106.928 16.8676C106.928 16.6047 106.876 16.3542 106.775 16.1119C106.675 15.8696 106.55 15.6478 106.406 15.4465C106.261 15.2412 106.117 15.0728 105.976 14.9414H105.876C105.707 14.9824 105.494 15.0112 105.245 15.0235C104.996 15.0399 104.743 15.044 104.494 15.044H98.9418L99.1306 15.3767L101.826 12.8672L101.348 12.1074H101.264L97.9294 15.2617C97.9535 15.5821 98.0419 15.7997 98.1986 15.9188C98.3552 16.0379 98.54 16.0996 98.7489 16.0996H104.349C104.53 16.0996 104.69 16.0954 104.831 16.0872C104.972 16.079 105.112 16.0626 105.261 16.0379C105.41 16.0133 105.586 15.9804 105.791 15.9353L105.261 15.8326C105.414 15.9887 105.538 16.1694 105.634 16.3788C105.731 16.5842 105.779 16.7854 105.779 16.9744C105.779 17.2167 105.699 17.3974 105.542 17.5042C105.381 17.6151 105.12 17.6685 104.751 17.6685H97.2585L97.0898 17.841V18.7199H104.771V18.7281ZM107.74 18.7281L107.908 18.5556L107.916 17.6767H105.598L104.747 18.7322H107.74V18.7281ZM107.808 20.6256C107.92 20.7324 108.057 20.7858 108.218 20.7858C108.382 20.7858 108.523 20.7324 108.635 20.6256C108.748 20.5188 108.804 20.371 108.804 20.1861C108.804 20.0054 108.748 19.8617 108.635 19.7549C108.523 19.6481 108.386 19.5947 108.226 19.5947C108.061 19.5947 107.92 19.6481 107.808 19.7549C107.695 19.8617 107.639 20.0054 107.639 20.1861C107.635 20.371 107.695 20.5188 107.808 20.6256ZM108.615 18.7281C108.973 18.7281 109.278 18.7117 109.527 18.6747C109.776 18.6419 109.989 18.5885 110.158 18.5187V18.4488C110.134 18.3461 110.118 18.2147 110.11 18.0545C110.102 17.8985 110.094 17.7383 110.094 17.574C110.09 17.4097 110.09 17.2701 110.09 17.1551V14.1733H110.013L108.896 14.313V16.9538C108.896 17.1674 108.909 17.3563 108.937 17.5206C108.961 17.6849 108.997 17.804 109.045 17.8779L109.455 17.6685H107.92L107.752 17.841V18.7199H108.615V18.7281ZM109.17 20.4531C109.282 20.5558 109.419 20.6092 109.579 20.6092C109.744 20.6092 109.885 20.5558 109.997 20.4531C110.11 20.3504 110.166 20.2026 110.166 20.0177C110.166 19.8329 110.11 19.6851 109.997 19.5824C109.885 19.4797 109.748 19.4263 109.587 19.4263C109.423 19.4263 109.282 19.4797 109.17 19.5824C109.057 19.6851 109.001 19.8329 109.001 20.0177C109.001 20.2067 109.057 20.3504 109.17 20.4531ZM111.632 17.8492C111.841 18.1449 112.122 18.3667 112.48 18.5104C112.837 18.6542 113.239 18.7281 113.681 18.7281H116.433L116.602 18.5556V17.6767H114.983L114.854 17.6931H113.806C113.508 17.6931 113.263 17.6479 113.058 17.5535C112.857 17.459 112.705 17.3358 112.6 17.1756C112.5 17.0155 112.448 16.8388 112.448 16.6499C112.448 16.3296 112.552 16.0256 112.757 15.734C112.966 15.4424 113.283 15.2288 113.709 15.0892L113.086 15.1344C113.364 15.2289 113.601 15.3603 113.794 15.5369C113.986 15.7094 114.143 15.9106 114.268 16.1283C114.388 16.3501 114.48 16.5842 114.537 16.8388C114.593 17.0935 114.621 17.344 114.621 17.6028C114.621 17.997 114.601 18.3462 114.565 18.646C114.529 18.9458 114.468 19.2086 114.38 19.4304C114.296 19.6522 114.179 19.8535 114.039 20.026L114.396 19.7138C114.235 19.8001 114.067 19.8658 113.882 19.911C113.697 19.9561 113.472 19.9767 113.203 19.9767C113.002 19.9767 112.777 19.952 112.52 19.8986C112.263 19.8452 112.022 19.7631 111.797 19.644H111.713L111.347 20.5845C111.644 20.7242 111.921 20.8269 112.179 20.8967C112.436 20.9665 112.741 20.9994 113.086 20.9994C113.661 20.9994 114.151 20.8597 114.553 20.5845C114.954 20.3094 115.264 19.9027 115.477 19.3729C115.69 18.8431 115.798 18.1983 115.798 17.4426C115.798 17.0072 115.734 16.6047 115.601 16.231C115.469 15.8572 115.292 15.5369 115.067 15.2617C114.842 14.9906 114.589 14.7771 114.312 14.6251C114.035 14.4731 113.749 14.3992 113.46 14.3992C113.187 14.3992 112.922 14.4608 112.665 14.584C112.408 14.7072 112.175 14.8756 111.974 15.0933C111.773 15.311 111.612 15.5615 111.492 15.8449C111.371 16.1283 111.311 16.4322 111.311 16.7567C111.319 17.1879 111.423 17.5535 111.632 17.8492ZM123.853 18.7281C124.287 18.7281 124.644 18.6829 124.937 18.5967C125.231 18.5104 125.46 18.3872 125.636 18.2271C125.813 18.0669 125.938 17.8862 126.01 17.6767C126.082 17.4713 126.122 17.2495 126.122 17.0113C126.122 16.7197 126.07 16.4446 125.97 16.1817C125.869 15.9188 125.741 15.6806 125.596 15.4671C125.448 15.2535 125.303 15.0769 125.162 14.9455H125.062C124.893 14.9865 124.68 15.0153 124.431 15.0276C124.182 15.044 123.929 15.0481 123.68 15.0481H118.128L118.317 15.3808L121.013 12.8714L120.534 12.1115H120.45L117.116 15.2658C117.14 15.5862 117.228 15.8038 117.385 15.9229C117.542 16.0421 117.726 16.1037 117.935 16.1037H123.535C123.716 16.1037 123.877 16.0996 124.017 16.0913C124.158 16.0831 124.299 16.0667 124.447 16.0421C124.596 16.0174 124.773 15.9846 124.978 15.9394L124.447 15.8367C124.6 15.9928 124.724 16.1817 124.821 16.3994C124.917 16.6171 124.965 16.8224 124.965 17.0154C124.965 17.2537 124.885 17.422 124.728 17.5247C124.568 17.6274 124.307 17.6767 123.937 17.6767H116.445L116.276 17.8492V18.7281H123.853Z" fill="#F0EDFF"/>
<path d="M121.202 26.8431L120.541 27.0303C120.499 26.9201 120.438 26.813 120.357 26.709C120.278 26.6029 120.17 26.5156 120.032 26.4469C119.895 26.3783 119.719 26.344 119.505 26.344C119.212 26.344 118.967 26.4116 118.772 26.5468C118.578 26.6799 118.482 26.8494 118.482 27.0553C118.482 27.2383 118.548 27.3829 118.681 27.489C118.815 27.595 119.023 27.6834 119.305 27.7541L120.017 27.9289C120.445 28.0329 120.764 28.192 120.975 28.4062C121.185 28.6183 121.29 28.8918 121.29 29.2267C121.29 29.5013 121.211 29.7467 121.053 29.963C120.897 30.1793 120.678 30.3499 120.397 30.4747C120.117 30.5994 119.79 30.6618 119.418 30.6618C118.929 30.6618 118.524 30.5558 118.204 30.3436C117.884 30.1315 117.681 29.8216 117.596 29.4139L118.295 29.2392C118.361 29.4971 118.487 29.6905 118.672 29.8195C118.859 29.9484 119.104 30.0129 119.405 30.0129C119.748 30.0129 120.021 29.9401 120.223 29.7945C120.426 29.6469 120.528 29.4701 120.528 29.2642C120.528 29.0978 120.47 28.9584 120.354 28.8461C120.237 28.7317 120.058 28.6464 119.817 28.5903L119.018 28.4031C118.58 28.2991 118.257 28.1379 118.051 27.9195C117.847 27.699 117.745 27.4234 117.745 27.0927C117.745 26.8223 117.821 26.5832 117.973 26.3752C118.127 26.1672 118.336 26.0039 118.6 25.8854C118.867 25.7668 119.168 25.7075 119.505 25.7075C119.979 25.7075 120.352 25.8115 120.622 26.0195C120.894 26.2275 121.088 26.502 121.202 26.8431Z" fill="#EB6823"/>
<path d="M114.704 30.6618C114.242 30.6618 113.843 30.5599 113.509 30.3561C113.176 30.1502 112.919 29.8632 112.738 29.495C112.559 29.1248 112.47 28.6943 112.47 28.2034C112.47 27.7125 112.559 27.2799 112.738 26.9055C112.919 26.5291 113.171 26.2358 113.493 26.0257C113.817 25.8136 114.196 25.7075 114.629 25.7075C114.878 25.7075 115.125 25.7491 115.368 25.8323C115.611 25.9155 115.833 26.0507 116.033 26.2379C116.232 26.423 116.391 26.6684 116.51 26.9742C116.628 27.2799 116.688 27.6564 116.688 28.1036V28.4156H112.994V27.7791H115.939C115.939 27.5087 115.885 27.2674 115.777 27.0553C115.671 26.8431 115.519 26.6757 115.321 26.553C115.126 26.4303 114.895 26.3689 114.629 26.3689C114.335 26.3689 114.082 26.4417 113.867 26.5873C113.655 26.7308 113.492 26.918 113.378 27.1489C113.263 27.3798 113.206 27.6273 113.206 27.8914V28.3157C113.206 28.6776 113.268 28.9844 113.393 29.2361C113.52 29.4857 113.696 29.676 113.92 29.807C114.145 29.936 114.406 30.0004 114.704 30.0004C114.897 30.0004 115.072 29.9734 115.228 29.9193C115.386 29.8632 115.522 29.78 115.636 29.6697C115.751 29.5574 115.839 29.4181 115.902 29.2517L116.613 29.4513C116.538 29.6926 116.412 29.9048 116.235 30.0878C116.059 30.2687 115.84 30.4102 115.58 30.5121C115.32 30.6119 115.028 30.6618 114.704 30.6618Z" fill="#EB6823"/>
<path d="M109.734 30.6618C109.285 30.6618 108.898 30.5558 108.573 30.3436C108.249 30.1315 107.999 29.8392 107.825 29.4669C107.65 29.0946 107.562 28.6693 107.562 28.1909C107.562 27.7042 107.652 27.2747 107.831 26.9024C108.012 26.528 108.263 26.2358 108.586 26.0257C108.91 25.8136 109.289 25.7075 109.721 25.7075C110.058 25.7075 110.362 25.7699 110.632 25.8947C110.903 26.0195 111.124 26.1942 111.297 26.4188C111.47 26.6435 111.577 26.9055 111.618 27.205H110.882C110.826 26.9867 110.701 26.7932 110.508 26.6248C110.316 26.4542 110.058 26.3689 109.734 26.3689C109.447 26.3689 109.195 26.4438 108.979 26.5936C108.765 26.7412 108.597 26.9503 108.477 27.2206C108.358 27.489 108.299 27.8041 108.299 28.166C108.299 28.5362 108.357 28.8586 108.473 29.1331C108.592 29.4077 108.758 29.6209 108.973 29.7727C109.189 29.9245 109.443 30.0004 109.734 30.0004C109.925 30.0004 110.099 29.9672 110.255 29.9006C110.411 29.834 110.543 29.7384 110.651 29.6136C110.759 29.4888 110.836 29.339 110.882 29.1643H111.618C111.577 29.4472 111.474 29.702 111.309 29.9287C111.147 30.1533 110.932 30.3322 110.664 30.4653C110.397 30.5963 110.088 30.6618 109.734 30.6618Z" fill="#EB6823"/>
<path d="M105.702 30.5618V25.7697H106.439V30.5618H105.702ZM106.077 24.971C105.933 24.971 105.81 24.9221 105.706 24.8244C105.604 24.7266 105.553 24.6091 105.553 24.4718C105.553 24.3346 105.604 24.217 105.706 24.1193C105.81 24.0215 105.933 23.9727 106.077 23.9727C106.22 23.9727 106.343 24.0215 106.445 24.1193C106.549 24.217 106.601 24.3346 106.601 24.4718C106.601 24.6091 106.549 24.7266 106.445 24.8244C106.343 24.9221 106.22 24.971 106.077 24.971Z" fill="#EB6823"/>
<path d="M104.73 25.7695L102.958 30.5616H102.21L100.438 25.7695H101.236L102.559 29.5882H102.609L103.932 25.7695H104.73Z" fill="#EB6823"/>
<path d="M97.3965 30.5618V25.7697H98.1078V26.4935H98.1577C98.2451 26.2564 98.4032 26.064 98.632 25.9163C98.8607 25.7687 99.1186 25.6948 99.4057 25.6948C99.4597 25.6948 99.5273 25.6959 99.6085 25.6979C99.6896 25.7 99.7509 25.7031 99.7925 25.7073V26.4561C99.7676 26.4498 99.7104 26.4405 99.6209 26.428C99.5336 26.4134 99.441 26.4062 99.3433 26.4062C99.1103 26.4062 98.9023 26.455 98.7193 26.5528C98.5384 26.6485 98.3948 26.7816 98.2888 26.9521C98.1848 27.1206 98.1328 27.313 98.1328 27.5293V30.5618H97.3965Z" fill="#EB6823"/>
<path d="M94.2924 30.6618C93.8307 30.6618 93.4324 30.5599 93.0975 30.3561C92.7647 30.1502 92.5078 29.8632 92.3269 29.495C92.148 29.1248 92.0586 28.6943 92.0586 28.2034C92.0586 27.7125 92.148 27.2799 92.3269 26.9055C92.5078 26.5291 92.7595 26.2358 93.0819 26.0257C93.4064 25.8136 93.7849 25.7075 94.2175 25.7075C94.4671 25.7075 94.7136 25.7491 94.9569 25.8323C95.2003 25.9155 95.4218 26.0507 95.6215 26.2379C95.8211 26.423 95.9802 26.6684 96.0988 26.9742C96.2174 27.2799 96.2766 27.6564 96.2766 28.1036V28.4156H92.5827V27.7791H95.5279C95.5279 27.5087 95.4738 27.2674 95.3656 27.0553C95.2596 26.8431 95.1077 26.6757 94.9101 26.553C94.7146 26.4303 94.4838 26.3689 94.2175 26.3689C93.9243 26.3689 93.6705 26.4417 93.4563 26.5873C93.2441 26.7308 93.0809 26.918 92.9665 27.1489C92.8521 27.3798 92.7949 27.6273 92.7949 27.8914V28.3157C92.7949 28.6776 92.8573 28.9844 92.9821 29.2361C93.1089 29.4857 93.2847 29.676 93.5093 29.807C93.734 29.936 93.995 30.0004 94.2924 30.0004C94.4858 30.0004 94.6605 29.9734 94.8165 29.9193C94.9746 29.8632 95.1108 29.78 95.2252 29.6697C95.3396 29.5574 95.428 29.4181 95.4904 29.2517L96.2018 29.4513C96.1269 29.6926 96.001 29.9048 95.8243 30.0878C95.6475 30.2687 95.4291 30.4102 95.1691 30.5121C94.9091 30.6119 94.6169 30.6618 94.2924 30.6618Z" fill="#EB6823"/>
<path d="M91.089 26.8431L90.4276 27.0303C90.386 26.9201 90.3246 26.813 90.2435 26.709C90.1645 26.6029 90.0563 26.5156 89.919 26.4469C89.7818 26.3783 89.606 26.344 89.3918 26.344C89.0985 26.344 88.8541 26.4116 88.6586 26.5468C88.4652 26.6799 88.3685 26.8494 88.3685 27.0553C88.3685 27.2383 88.435 27.3829 88.5681 27.489C88.7012 27.595 88.9092 27.6834 89.1921 27.7541L89.9034 27.9289C90.3319 28.0329 90.6512 28.192 90.8612 28.4062C91.0713 28.6183 91.1763 28.8918 91.1763 29.2267C91.1763 29.5013 91.0973 29.7467 90.9392 29.963C90.7832 30.1793 90.5648 30.3499 90.284 30.4747C90.0033 30.5994 89.6767 30.6618 89.3044 30.6618C88.8156 30.6618 88.4111 30.5558 88.0908 30.3436C87.7705 30.1315 87.5677 29.8216 87.4824 29.4139L88.1813 29.2392C88.2478 29.4971 88.3737 29.6905 88.5588 29.8195C88.746 29.9484 88.9904 30.0129 89.2919 30.0129C89.6351 30.0129 89.9076 29.9401 90.1093 29.7945C90.3132 29.6469 90.4151 29.4701 90.4151 29.2642C90.4151 29.0978 90.3568 28.9584 90.2404 28.8461C90.1239 28.7317 89.945 28.6464 89.7038 28.5903L88.9051 28.4031C88.4662 28.2991 88.1438 28.1379 87.9379 27.9195C87.7341 27.699 87.6322 27.4234 87.6322 27.0927C87.6322 26.8223 87.7081 26.5832 87.8599 26.3752C88.0138 26.1672 88.2229 26.0039 88.487 25.8854C88.7532 25.7668 89.0548 25.7075 89.3918 25.7075C89.866 25.7075 90.2383 25.8115 90.5087 26.0195C90.7811 26.2275 90.9746 26.502 91.089 26.8431Z" fill="#EB6823"/>
<path d="M82.2622 30.6618C81.813 30.6618 81.4261 30.5558 81.1016 30.3436C80.7772 30.1315 80.5276 29.8392 80.3529 29.4669C80.1782 29.0946 80.0908 28.6693 80.0908 28.1909C80.0908 27.7042 80.1803 27.2747 80.3591 26.9024C80.5401 26.528 80.7917 26.2358 81.1141 26.0257C81.4386 25.8136 81.8171 25.7075 82.2498 25.7075C82.5867 25.7075 82.8904 25.7699 83.1608 25.8947C83.4311 26.0195 83.6526 26.1942 83.8253 26.4188C83.9979 26.6435 84.105 26.9055 84.1466 27.205H83.4103C83.3542 26.9867 83.2294 26.7932 83.036 26.6248C82.8446 26.4542 82.5867 26.3689 82.2622 26.3689C81.9752 26.3689 81.7235 26.4438 81.5072 26.5936C81.293 26.7412 81.1256 26.9503 81.0049 27.2206C80.8864 27.489 80.8271 27.8041 80.8271 28.166C80.8271 28.5362 80.8853 28.8586 81.0018 29.1331C81.1204 29.4077 81.2868 29.6209 81.501 29.7727C81.7173 29.9245 81.971 30.0004 82.2622 30.0004C82.4536 30.0004 82.6273 29.9672 82.7833 29.9006C82.9392 29.834 83.0713 29.7384 83.1795 29.6136C83.2876 29.4888 83.3646 29.339 83.4103 29.1643H84.1466C84.105 29.4472 84.0021 29.702 83.8378 29.9287C83.6755 30.1533 83.4603 30.3322 83.192 30.4653C82.9257 30.5963 82.6158 30.6618 82.2622 30.6618Z" fill="#EB6823"/>
<path d="M78.2298 30.5618V25.7697H78.9661V30.5618H78.2298ZM78.6042 24.971C78.4607 24.971 78.3369 24.9221 78.2329 24.8244C78.131 24.7266 78.0801 24.6091 78.0801 24.4718C78.0801 24.3346 78.131 24.217 78.2329 24.1193C78.3369 24.0215 78.4607 23.9727 78.6042 23.9727C78.7477 23.9727 78.8704 24.0215 78.9724 24.1193C79.0763 24.217 79.1284 24.3346 79.1284 24.4718C79.1284 24.6091 79.0763 24.7266 78.9724 24.8244C78.8704 24.9221 78.7477 24.971 78.6042 24.971Z" fill="#EB6823"/>
<path d="M70.5938 30.562V25.7699H71.3051V26.5187H71.3675C71.4673 26.2629 71.6285 26.0642 71.8511 25.9228C72.0736 25.7793 72.3409 25.7075 72.6529 25.7075C72.969 25.7075 73.2321 25.7793 73.4422 25.9228C73.6543 26.0642 73.8197 26.2629 73.9382 26.5187H73.9882C74.1109 26.2712 74.2949 26.0746 74.5404 25.929C74.7858 25.7814 75.0801 25.7075 75.4233 25.7075C75.8517 25.7075 76.2022 25.8417 76.4747 26.11C76.7471 26.3762 76.8834 26.7911 76.8834 27.3548V30.562H76.1471V27.3548C76.1471 27.0012 76.0504 26.7485 75.8569 26.5967C75.6635 26.4448 75.4358 26.3689 75.1737 26.3689C74.8368 26.3689 74.5757 26.4708 74.3906 26.6747C74.2055 26.8764 74.1129 27.1323 74.1129 27.4422V30.562H73.3642V27.2799C73.3642 27.0075 73.2758 26.788 73.099 26.6216C72.9222 26.4532 72.6945 26.3689 72.4157 26.3689C72.2244 26.3689 72.0455 26.4199 71.8791 26.5218C71.7148 26.6237 71.5817 26.7651 71.4798 26.9461C71.38 27.125 71.33 27.3319 71.33 27.567V30.562H70.5938Z" fill="#EB6823"/>
<path d="M67.4906 30.6618C67.0289 30.6618 66.6306 30.5599 66.2957 30.3561C65.963 30.1502 65.7061 29.8632 65.5251 29.495C65.3463 29.1248 65.2568 28.6943 65.2568 28.2034C65.2568 27.7125 65.3463 27.2799 65.5251 26.9055C65.7061 26.5291 65.9578 26.2358 66.2801 26.0257C66.6046 25.8136 66.9832 25.7075 67.4158 25.7075C67.6654 25.7075 67.9118 25.7491 68.1552 25.8323C68.3985 25.9155 68.62 26.0507 68.8197 26.2379C69.0194 26.423 69.1785 26.6684 69.297 26.9742C69.4156 27.2799 69.4749 27.6564 69.4749 28.1036V28.4156H65.781V27.7791H68.7261C68.7261 27.5087 68.672 27.2674 68.5639 27.0553C68.4578 26.8431 68.306 26.6757 68.1084 26.553C67.9129 26.4303 67.682 26.3689 67.4158 26.3689C67.1225 26.3689 66.8688 26.4417 66.6545 26.5873C66.4424 26.7308 66.2791 26.918 66.1647 27.1489C66.0503 27.3798 65.9931 27.6273 65.9931 27.8914V28.3157C65.9931 28.6776 66.0555 28.9844 66.1803 29.2361C66.3072 29.4857 66.4829 29.676 66.7076 29.807C66.9322 29.936 67.1932 30.0004 67.4906 30.0004C67.6841 30.0004 67.8588 29.9734 68.0148 29.9193C68.1729 29.8632 68.3091 29.78 68.4235 29.6697C68.5379 29.5574 68.6263 29.4181 68.6887 29.2517L69.4 29.4513C69.3251 29.6926 69.1993 29.9048 69.0225 30.0878C68.8457 30.2687 68.6273 30.4102 68.3673 30.5121C68.1073 30.6119 67.8151 30.6618 67.4906 30.6618Z" fill="#EB6823"/>
<path d="M61.8339 30.6617C61.4346 30.6617 61.0821 30.5608 60.7763 30.359C60.4706 30.1552 60.2314 29.8682 60.0588 29.498C59.8861 29.1257 59.7998 28.6858 59.7998 28.1783C59.7998 27.6749 59.8861 27.2381 60.0588 26.8679C60.2314 26.4977 60.4716 26.2117 60.7794 26.01C61.0873 25.8082 61.4429 25.7073 61.8464 25.7073C62.1584 25.7073 62.4049 25.7593 62.5858 25.8633C62.7689 25.9652 62.9082 26.0817 63.0039 26.2127C63.1016 26.3417 63.1776 26.4478 63.2316 26.531H63.294V24.1724H64.0303V30.5618H63.319V29.8255H63.2316C63.1776 29.9129 63.1006 30.0231 63.0008 30.1562C62.9009 30.2873 62.7585 30.4048 62.5734 30.5088C62.3882 30.6107 62.1418 30.6617 61.8339 30.6617ZM61.9338 30.0002C62.2291 30.0002 62.4787 29.9233 62.6825 29.7694C62.8864 29.6134 63.0413 29.3981 63.1474 29.1236C63.2535 28.8469 63.3065 28.5277 63.3065 28.1658C63.3065 27.808 63.2545 27.495 63.1505 27.2267C63.0465 26.9563 62.8926 26.7462 62.6888 26.5965C62.485 26.4447 62.2333 26.3687 61.9338 26.3687C61.6218 26.3687 61.3618 26.4488 61.1538 26.609C60.9479 26.767 60.793 26.9823 60.689 27.2548C60.587 27.5252 60.5361 27.8288 60.5361 28.1658C60.5361 28.5069 60.5881 28.8168 60.6921 29.0955C60.7982 29.3721 60.9541 29.5926 61.1601 29.7569C61.3681 29.9191 61.626 30.0002 61.9338 30.0002Z" fill="#EB6823"/>
<path d="M56.4844 30.6743C56.1807 30.6743 55.9052 30.6171 55.6576 30.5027C55.4101 30.3863 55.2136 30.2188 55.068 30.0004C54.9224 29.78 54.8496 29.5137 54.8496 29.2018C54.8496 28.9272 54.9037 28.7047 55.0118 28.5341C55.12 28.3615 55.2645 28.2263 55.4455 28.1285C55.6265 28.0308 55.8261 27.958 56.0445 27.9101C56.265 27.8602 56.4865 27.8207 56.709 27.7916C57.0002 27.7541 57.2363 27.7261 57.4172 27.7073C57.6003 27.6865 57.7334 27.6522 57.8166 27.6044C57.9019 27.5566 57.9445 27.4734 57.9445 27.3548V27.3298C57.9445 27.022 57.8603 26.7828 57.6918 26.6123C57.5254 26.4417 57.2727 26.3564 56.9337 26.3564C56.5822 26.3564 56.3066 26.4334 56.1069 26.5873C55.9072 26.7412 55.7668 26.9055 55.6857 27.0803L54.9869 26.8307C55.1117 26.5395 55.2781 26.3128 55.4861 26.1505C55.6961 25.9862 55.9249 25.8718 56.1724 25.8074C56.422 25.7408 56.6674 25.7075 56.9087 25.7075C57.0626 25.7075 57.2394 25.7262 57.4391 25.7637C57.6408 25.799 57.8353 25.8729 58.0225 25.9852C58.2118 26.0975 58.3688 26.267 58.4936 26.4937C58.6184 26.7204 58.6808 27.0241 58.6808 27.4047V30.562H57.9445V29.9131H57.9071C57.8571 30.0171 57.7739 30.1284 57.6575 30.2469C57.541 30.3655 57.386 30.4663 57.1926 30.5495C56.9992 30.6327 56.7631 30.6743 56.4844 30.6743ZM56.5967 30.0129C56.8879 30.0129 57.1333 29.9557 57.333 29.8413C57.5348 29.7269 57.6866 29.5793 57.7885 29.3983C57.8925 29.2174 57.9445 29.027 57.9445 28.8274V28.1535C57.9133 28.1909 57.8447 28.2252 57.7386 28.2564C57.6346 28.2856 57.514 28.3116 57.3767 28.3344C57.2415 28.3552 57.1094 28.374 56.9805 28.3906C56.8536 28.4052 56.7506 28.4176 56.6716 28.428C56.4803 28.453 56.3014 28.4935 56.135 28.5497C55.9707 28.6038 55.8376 28.6859 55.7356 28.7962C55.6358 28.9043 55.5859 29.052 55.5859 29.2392C55.5859 29.495 55.6805 29.6885 55.8698 29.8195C56.0612 29.9484 56.3035 30.0129 56.5967 30.0129Z" fill="#EB6823"/>
<path d="M52.1128 30.6618C51.6636 30.6618 51.2767 30.5558 50.9522 30.3436C50.6278 30.1315 50.3782 29.8392 50.2035 29.4669C50.0288 29.0946 49.9414 28.6693 49.9414 28.1909C49.9414 27.7042 50.0308 27.2747 50.2097 26.9024C50.3907 26.528 50.6423 26.2358 50.9647 26.0257C51.2892 25.8136 51.6677 25.7075 52.1003 25.7075C52.4373 25.7075 52.741 25.7699 53.0113 25.8947C53.2817 26.0195 53.5032 26.1942 53.6759 26.4188C53.8485 26.6435 53.9556 26.9055 53.9972 27.205H53.2609C53.2048 26.9867 53.08 26.7932 52.8865 26.6248C52.6952 26.4542 52.4373 26.3689 52.1128 26.3689C51.8258 26.3689 51.5741 26.4438 51.3578 26.5936C51.1436 26.7412 50.9762 26.9503 50.8555 27.2206C50.737 27.489 50.6777 27.8041 50.6777 28.166C50.6777 28.5362 50.7359 28.8586 50.8524 29.1331C50.971 29.4077 51.1374 29.6209 51.3516 29.7727C51.5679 29.9245 51.8216 30.0004 52.1128 30.0004C52.3042 30.0004 52.4778 29.9672 52.6338 29.9006C52.7898 29.834 52.9219 29.7384 53.0301 29.6136C53.1382 29.4888 53.2152 29.339 53.2609 29.1643H53.9972C53.9556 29.4472 53.8527 29.702 53.6884 29.9287C53.5261 30.1533 53.3108 30.3322 53.0425 30.4653C52.7763 30.5963 52.4664 30.6618 52.1128 30.6618Z" fill="#EB6823"/>
<path d="M46.626 30.6743C46.3223 30.6743 46.0468 30.6171 45.7993 30.5027C45.5517 30.3863 45.3552 30.2188 45.2096 30.0004C45.064 29.78 44.9912 29.5137 44.9912 29.2018C44.9912 28.9272 45.0453 28.7047 45.1534 28.5341C45.2616 28.3615 45.4062 28.2263 45.5871 28.1285C45.7681 28.0308 45.9677 27.958 46.1861 27.9101C46.4066 27.8602 46.6281 27.8207 46.8506 27.7916C47.1418 27.7541 47.3779 27.7261 47.5589 27.7073C47.7419 27.6865 47.875 27.6522 47.9582 27.6044C48.0435 27.5566 48.0861 27.4734 48.0861 27.3548V27.3298C48.0861 27.022 48.0019 26.7828 47.8334 26.6123C47.667 26.4417 47.4143 26.3564 47.0753 26.3564C46.7238 26.3564 46.4482 26.4334 46.2485 26.5873C46.0488 26.7412 45.9084 26.9055 45.8273 27.0803L45.1285 26.8307C45.2533 26.5395 45.4197 26.3128 45.6277 26.1505C45.8377 25.9862 46.0665 25.8718 46.314 25.8074C46.5636 25.7408 46.809 25.7075 47.0503 25.7075C47.2042 25.7075 47.381 25.7262 47.5807 25.7637C47.7824 25.799 47.9769 25.8729 48.1641 25.9852C48.3534 26.0975 48.5104 26.267 48.6352 26.4937C48.76 26.7204 48.8224 27.0241 48.8224 27.4047V30.562H48.0861V29.9131H48.0487C47.9987 30.0171 47.9156 30.1284 47.7991 30.2469C47.6826 30.3655 47.5277 30.4663 47.3342 30.5495C47.1408 30.6327 46.9047 30.6743 46.626 30.6743ZM46.7383 30.0129C47.0295 30.0129 47.2749 29.9557 47.4746 29.8413C47.6764 29.7269 47.8282 29.5793 47.9301 29.3983C48.0341 29.2174 48.0861 29.027 48.0861 28.8274V28.1535C48.0549 28.1909 47.9863 28.2252 47.8802 28.2564C47.7762 28.2856 47.6556 28.3116 47.5183 28.3344C47.3831 28.3552 47.251 28.374 47.1221 28.3906C46.9952 28.4052 46.8922 28.4176 46.8132 28.428C46.6219 28.453 46.443 28.4935 46.2766 28.5497C46.1123 28.6038 45.9792 28.6859 45.8773 28.7962C45.7774 28.9043 45.7275 29.052 45.7275 29.2392C45.7275 29.495 45.8221 29.6885 46.0114 29.8195C46.2028 29.9484 46.4451 30.0129 46.7383 30.0129Z" fill="#EB6823"/>
<path d="M41.9463 30.5618V25.7697H42.6576V26.4935H42.7075C42.7949 26.2564 42.953 26.064 43.1817 25.9163C43.4105 25.7687 43.6684 25.6948 43.9555 25.6948C44.0096 25.6948 44.0771 25.6959 44.1583 25.6979C44.2394 25.7 44.3007 25.7031 44.3423 25.7073V26.4561C44.3174 26.4498 44.2602 26.4405 44.1707 26.428C44.0834 26.4134 43.9908 26.4062 43.8931 26.4062C43.6601 26.4062 43.4521 26.455 43.2691 26.5528C43.0882 26.6485 42.9446 26.7816 42.8386 26.9521C42.7346 27.1206 42.6826 27.313 42.6826 27.5293V30.5618H41.9463Z" fill="#EB6823"/>
<path d="M38.6519 30.6618C38.2193 30.6618 37.8397 30.5589 37.5131 30.353C37.1887 30.1471 36.9349 29.859 36.7519 29.4888C36.5709 29.1186 36.4805 28.6859 36.4805 28.1909C36.4805 27.6917 36.5709 27.256 36.7519 26.8837C36.9349 26.5114 37.1887 26.2223 37.5131 26.0164C37.8397 25.8105 38.2193 25.7075 38.6519 25.7075C39.0845 25.7075 39.463 25.8105 39.7875 26.0164C40.1141 26.2223 40.3678 26.5114 40.5488 26.8837C40.7318 27.256 40.8233 27.6917 40.8233 28.1909C40.8233 28.6859 40.7318 29.1186 40.5488 29.4888C40.3678 29.859 40.1141 30.1471 39.7875 30.353C39.463 30.5589 39.0845 30.6618 38.6519 30.6618ZM38.6519 30.0004C38.9805 30.0004 39.2509 29.9162 39.463 29.7477C39.6752 29.5793 39.8322 29.3577 39.9341 29.0832C40.0361 28.8087 40.087 28.5112 40.087 28.1909C40.087 27.8706 40.0361 27.5722 39.9341 27.2955C39.8322 27.0189 39.6752 26.7953 39.463 26.6248C39.2509 26.4542 38.9805 26.3689 38.6519 26.3689C38.3233 26.3689 38.0529 26.4542 37.8407 26.6248C37.6286 26.7953 37.4715 27.0189 37.3696 27.2955C37.2677 27.5722 37.2168 27.8706 37.2168 28.1909C37.2168 28.5112 37.2677 28.8087 37.3696 29.0832C37.4715 29.3577 37.6286 29.5793 37.8407 29.7477C38.0529 29.9162 38.3233 30.0004 38.6519 30.0004Z" fill="#EB6823"/>
<path d="M32 30.5618V24.1724H35.8312V24.8587H32.7737V27.0177H35.5442V27.704H32.7737V30.5618H32Z" fill="#EB6823"/>
<path d="M25.0136 32.3587C24.8888 32.3587 24.7776 32.3483 24.6798 32.3275C24.5821 32.3087 24.5145 32.29 24.477 32.2713L24.6642 31.6224C24.8431 31.6681 25.0012 31.6848 25.1384 31.6723C25.2757 31.6598 25.3974 31.5985 25.5035 31.4882C25.6116 31.3801 25.7104 31.2043 25.7998 30.961L25.9371 30.5866L24.165 25.7695H24.9637L26.2865 29.5882H26.3365L27.6593 25.7695H28.458L26.4238 31.2605C26.3323 31.508 26.2189 31.7129 26.0838 31.8751C25.9486 32.0394 25.7915 32.1611 25.6127 32.2401C25.4359 32.3191 25.2362 32.3587 25.0136 32.3587Z" fill="#EB6823"/>
<path d="M23.1914 24.1724V30.5618H22.4551V24.1724H23.1914Z" fill="#EB6823"/>
<path d="M18.3621 28.8147L18.3497 27.9037H18.4994L20.596 25.7697H21.507L19.2731 28.0285H19.2107L18.3621 28.8147ZM17.6758 30.5618V24.1724H18.4121V30.5618H17.6758ZM20.7208 30.5618L18.8488 28.1907L19.373 27.6791L21.6567 30.5618H20.7208Z" fill="#EB6823"/>
<path d="M14.7154 30.6618C14.2661 30.6618 13.8792 30.5558 13.5548 30.3436C13.2303 30.1315 12.9807 29.8392 12.806 29.4669C12.6313 29.0946 12.5439 28.6693 12.5439 28.1909C12.5439 27.7042 12.6334 27.2747 12.8123 26.9024C12.9932 26.528 13.2449 26.2358 13.5673 26.0257C13.8917 25.8136 14.2703 25.7075 14.7029 25.7075C15.0398 25.7075 15.3435 25.7699 15.6139 25.8947C15.8843 26.0195 16.1058 26.1942 16.2784 26.4188C16.451 26.6435 16.5582 26.9055 16.5998 27.205H15.8635C15.8073 26.9867 15.6825 26.7932 15.4891 26.6248C15.2977 26.4542 15.0398 26.3689 14.7154 26.3689C14.4283 26.3689 14.1767 26.4438 13.9604 26.5936C13.7461 26.7412 13.5787 26.9503 13.4581 27.2206C13.3395 27.489 13.2802 27.8041 13.2802 28.166C13.2802 28.5362 13.3385 28.8586 13.4549 29.1331C13.5735 29.4077 13.7399 29.6209 13.9541 29.7727C14.1704 29.9245 14.4242 30.0004 14.7154 30.0004C14.9067 30.0004 15.0804 29.9672 15.2364 29.9006C15.3924 29.834 15.5244 29.7384 15.6326 29.6136C15.7408 29.4888 15.8177 29.339 15.8635 29.1643H16.5998C16.5582 29.4472 16.4552 29.702 16.2909 29.9287C16.1287 30.1533 15.9134 30.3322 15.6451 30.4653C15.3789 30.5963 15.0689 30.6618 14.7154 30.6618Z" fill="#EB6823"/>
<path d="M10.6839 30.5618V25.7697H11.4202V30.5618H10.6839ZM11.0583 24.971C10.9148 24.971 10.791 24.9221 10.6871 24.8244C10.5851 24.7266 10.5342 24.6091 10.5342 24.4718C10.5342 24.3346 10.5851 24.217 10.6871 24.1193C10.791 24.0215 10.9148 23.9727 11.0583 23.9727C11.2018 23.9727 11.3245 24.0215 11.4265 24.1193C11.5305 24.217 11.5825 24.3346 11.5825 24.4718C11.5825 24.6091 11.5305 24.7266 11.4265 24.8244C11.3245 24.9221 11.2018 24.971 11.0583 24.971Z" fill="#EB6823"/>
<path d="M8.59814 28.6024V25.7695H9.33443V30.5616H8.59814V29.7505H8.54823C8.43591 29.9938 8.2612 30.2008 8.02409 30.3713C7.78698 30.5398 7.48748 30.624 7.12557 30.624C6.82607 30.624 6.55984 30.5585 6.32689 30.4275C6.09394 30.2944 5.91091 30.0947 5.7778 29.8285C5.64468 29.5602 5.57812 29.2222 5.57812 28.8145V25.7695H6.31441V28.7646C6.31441 29.114 6.41217 29.3927 6.60768 29.6007C6.80527 29.8087 7.05694 29.9127 7.36268 29.9127C7.54571 29.9127 7.73186 29.8659 7.92114 29.7723C8.11249 29.6787 8.27264 29.5352 8.40159 29.3418C8.53263 29.1483 8.59814 28.9019 8.59814 28.6024Z" fill="#EB6823"/>
<path d="M3.49424 32.359V29.8257H3.43184C3.37776 29.9131 3.3008 30.0233 3.20097 30.1564C3.10113 30.2875 2.95866 30.405 2.77355 30.509C2.58844 30.6109 2.34197 30.6618 2.03414 30.6618C1.6348 30.6618 1.28226 30.561 0.976514 30.3592C0.670768 30.1554 0.43158 29.8684 0.258948 29.4981C0.0863159 29.1258 0 28.6859 0 28.1784C0 27.6751 0.0863159 27.2383 0.258948 26.8681C0.43158 26.4979 0.671808 26.2119 0.979634 26.0101C1.28746 25.8084 1.64312 25.7075 2.04662 25.7075C2.35861 25.7075 2.60508 25.7595 2.78603 25.8635C2.96906 25.9654 3.10841 26.0819 3.20409 26.2129C3.30184 26.3419 3.37776 26.448 3.43184 26.5312H3.51919V25.7699H4.23052V32.359H3.49424ZM2.13398 30.0004C2.42933 30.0004 2.67891 29.9235 2.88274 29.7696C3.08657 29.6136 3.24153 29.3983 3.3476 29.1238C3.45368 28.8471 3.50671 28.5279 3.50671 28.166C3.50671 27.8082 3.45472 27.4952 3.35072 27.2269C3.24673 26.9565 3.09281 26.7464 2.88898 26.5967C2.68515 26.4448 2.43349 26.3689 2.13398 26.3689C1.82199 26.3689 1.56201 26.449 1.35402 26.6092C1.14811 26.7672 0.993153 26.9825 0.889158 27.255C0.787243 27.5254 0.736285 27.829 0.736285 28.166C0.736285 28.5071 0.788283 28.817 0.892278 29.0957C0.998353 29.3723 1.15435 29.5928 1.36026 29.7571C1.56825 29.9193 1.82615 30.0004 2.13398 30.0004Z" fill="#EB6823"/>
<path d="M156.92 24.511C155.796 24.0501 155.796 24.0501 155.343 22.9532L155.327 22.9143C154.005 19.7249 152.902 16.3624 151.959 12.6595C151.895 12.4067 151.83 12.1519 151.768 11.8971C151.751 11.8252 151.733 11.7532 151.716 11.6813C151.461 10.633 151.212 9.57118 150.971 8.54044L150.887 8.18455C150.813 7.86366 150.739 7.54277 150.664 7.22383L150.592 6.9146L150.175 7.05074L150.201 7.17132C150.543 8.79521 150.881 10.2869 151.226 11.6832C151.307 12.0158 151.389 12.3405 151.473 12.6634C152.081 15.0302 152.711 17.1247 153.412 19.1239C153.849 20.3725 154.351 21.6366 154.794 22.751C154.942 23.1205 155.088 23.49 155.234 23.8595C155.3 24.0287 155.314 24.1473 155.203 24.3146C154.421 25.5048 153.301 26.5044 151.681 27.4554C150.14 28.3597 148.505 28.9587 147.109 29.4255C147.093 29.4313 147.074 29.4332 147.046 29.4371C147.081 29.2465 147.116 29.0618 147.151 28.8751C147.241 28.4045 147.332 27.9183 147.412 27.4223C147.501 26.8739 147.595 26.3274 147.686 25.7809L147.692 25.742C147.949 24.2134 148.213 22.6323 148.429 21.0707C148.779 18.5366 149.014 16.4713 149.17 14.5712C149.223 13.9392 149.261 13.2974 149.296 12.6614C149.314 12.3308 149.329 12.0041 149.345 11.6813C149.366 11.2106 149.384 10.7478 149.401 10.3063C149.433 9.54395 149.46 8.85744 149.497 8.16704C149.51 7.922 149.415 7.78781 149.168 7.70224C149.018 7.64973 148.859 7.59917 148.67 7.54082L148.631 7.52721L147.822 7.77614L148.268 7.90061C148.48 7.9609 148.655 8.01341 148.822 8.06786C148.999 8.12426 149.042 8.18649 149.032 8.36736C149.014 8.78937 149.001 9.21917 148.987 9.63535L148.981 9.79677C148.962 10.4152 148.941 11.0492 148.904 11.6793C148.894 11.8505 148.882 12.0216 148.869 12.1908C148.855 12.3522 148.839 12.5059 148.82 12.6575C148.713 13.4938 148.505 14.1959 148.182 14.791C148.042 15.0516 147.83 15.2869 147.62 15.5183C147.552 15.5922 147.472 15.6817 147.396 15.7711C147.295 15.8898 147.208 15.8917 147.046 15.775C146.346 15.2733 145.671 14.9524 144.985 14.7929C143.884 14.5362 142.783 14.7521 141.622 15.4522C141.455 15.5533 141.292 15.6622 141.138 15.7653C141.078 15.8062 141.017 15.847 140.953 15.8898C140.121 15.3472 139.802 14.5031 139.582 13.6688C139.495 13.3343 139.429 12.9979 139.376 12.6595C139.327 12.3347 139.291 12.008 139.265 11.6793C139.215 11.0317 139.201 10.3822 139.187 9.74426V9.73259C139.182 9.44866 139.176 9.16666 139.168 8.88273C139.145 8.12815 139.145 8.12815 139.864 7.91811C139.958 7.89088 140.051 7.8656 140.144 7.84032L140.601 7.7178L139.775 7.46498L139.736 7.47665C139.464 7.55444 139.24 7.62445 139.032 7.69641C138.804 7.77614 138.668 7.88311 138.686 8.18066C138.744 9.11804 138.795 10.0729 138.843 10.9967L138.847 11.0725C138.857 11.2729 138.869 11.4771 138.88 11.6832C138.898 12.0041 138.915 12.3308 138.933 12.6634C139.007 13.9994 139.096 15.4055 139.217 16.7649C139.497 19.8785 139.993 23.2683 140.778 27.434C140.887 28.0116 141 28.6242 141.124 29.3107C141.13 29.3496 141.132 29.3924 141.134 29.4527L141.136 29.4624V29.4663C140.911 29.3807 140.687 29.299 140.465 29.2174L140.438 29.2076C139.866 28.9976 139.277 28.7798 138.705 28.5386C136.653 27.6752 135.236 26.7864 134.106 25.6565C133.734 25.2831 133.406 24.8494 133.089 24.4293L132.97 24.2698C132.914 24.1959 132.896 24.0229 132.933 23.9334C134.376 20.5923 135.605 16.9283 136.706 12.6614C136.79 12.3386 136.871 12.0119 136.953 11.6813C137.311 10.2402 137.655 8.73103 137.989 7.14215C137.991 7.13242 137.995 7.11881 137.999 7.10714L138.056 6.93794L137.645 6.81348L137.61 6.9535C137.455 7.59139 137.297 8.23122 137.143 8.87494L137.077 9.14527C136.875 9.98153 136.667 10.8314 136.455 11.6832C136.373 12.0099 136.292 12.3367 136.208 12.6634C136.086 13.1476 135.959 13.6338 135.833 14.1142C134.95 17.4437 133.83 20.6856 132.507 23.7486C132.404 23.984 132.27 24.1162 132.04 24.2018C131.77 24.3029 131.494 24.4138 131.21 24.5324V25.0225C131.264 24.9991 131.319 24.9777 131.375 24.9544C131.55 24.8825 131.725 24.8124 131.9 24.7405L132.536 24.4838C133.131 25.4037 133.892 26.201 134.858 26.9167C136.441 28.0913 138.34 29.0151 140.831 29.8261C140.947 29.865 141.064 29.9019 141.187 29.9389L141.334 29.9856H141.702L141.455 28.6242C141.311 27.8346 141.175 27.0898 141.041 26.3255C140.887 25.4367 140.741 24.5732 140.619 23.8439C140.584 23.6436 140.551 23.4433 140.516 23.2411C140.496 23.1263 140.477 23.0096 140.457 22.8929C142.91 24.124 145.298 24.1181 147.746 22.8793L146.5 29.9856H146.854C148.688 29.4255 150.257 28.7778 151.65 28.0038C153.501 26.975 154.779 25.849 155.664 24.4702L156.23 24.7171C156.469 24.8222 156.724 24.933 156.984 25.0478V24.5382C156.957 24.5266 156.939 24.5188 156.92 24.511ZM146.515 16.5627C146.041 17.4067 145.296 17.8657 144.298 17.926C144.219 17.9318 144.139 17.9337 144.063 17.9337C143.007 17.9337 142.196 17.4748 141.651 16.5705C143.281 15.8159 144.874 15.8139 146.515 16.5627ZM147.638 22.3756C146.591 23.0213 145.399 23.348 144.098 23.348C143.941 23.348 143.777 23.3441 143.6 23.3344C142.589 23.2722 141.642 23.0018 140.79 22.5351C140.489 22.3698 140.329 22.2259 140.294 21.8894C140.234 21.3235 140.16 20.7459 140.09 20.1897L140.068 20.0224C140.006 19.5401 139.942 19.0442 139.886 18.5502C140.928 20.0322 142.346 20.7828 144.1 20.7828H144.125C145.868 20.7751 147.247 20.0419 148.322 18.5483L148.235 19.1979C148.102 20.1741 147.966 21.1835 147.822 22.1734C147.811 22.2278 147.731 22.3192 147.638 22.3756Z" fill="#F0EDFF"/>
<path d="M138.913 12.4277L138.921 12.5716C138.989 13.8066 139.076 15.271 139.211 16.751C139.232 16.998 139.257 17.2469 139.281 17.4978L139.283 17.525L139.294 17.5483C139.458 17.8595 139.567 18.052 139.57 18.0598L139.666 18.2115C140.726 19.9112 142.217 20.7728 144.096 20.7728H144.121C145.864 20.765 147.241 20.0318 148.318 18.5363L148.341 18.5052L148.647 18.0462C148.713 17.9412 148.777 17.8362 148.839 17.7292L148.855 17.7039L148.859 17.6747C148.987 16.5623 149.088 15.5413 149.168 14.5553C149.217 13.9641 149.259 13.3145 149.298 12.5697L149.306 12.4258L149.042 12.4977L148.83 12.5464C148.726 13.4293 148.514 14.1605 148.178 14.7809C148.038 15.0415 147.826 15.2768 147.618 15.5083C147.55 15.5841 147.468 15.6716 147.394 15.7611C147.295 15.8778 147.204 15.8797 147.044 15.765C146.344 15.2632 145.669 14.9423 144.983 14.7829C143.882 14.5261 142.781 14.742 141.62 15.4421C141.453 15.5433 141.29 15.6522 141.136 15.7552C141.076 15.7961 141.013 15.8369 140.951 15.8778C140.119 15.3352 139.8 14.4911 139.58 13.6568C139.489 13.3107 139.417 12.947 139.358 12.5425M146.515 16.5526C146.041 17.3966 145.296 17.8556 144.298 17.9159C144.218 17.9217 144.139 17.9237 144.063 17.9237C143.009 17.9237 142.198 17.4647 141.651 16.5604C143.281 15.8078 144.874 15.8039 146.515 16.5526Z" fill="#616161"/>
<path d="M141.298 33.4584H138.364C138.035 33.4584 137.767 33.7249 137.767 34.0555C137.767 34.3841 138.033 34.6525 138.364 34.6525H149.82C150.149 34.6525 150.417 34.3861 150.417 34.0555C150.417 33.7268 150.151 33.4584 149.82 33.4584H146.886V31.395H141.3V33.4584H141.298Z" fill="#ED6D22"/>
<path d="M152.122 12.6594H152.845C152.838 12.5096 152.832 12.3618 152.828 12.2121C152.824 12.0351 152.822 11.8581 152.822 11.6812H151.879C151.896 11.7531 151.914 11.8251 151.931 11.897C151.994 12.1537 152.058 12.4066 152.122 12.6594Z" fill="#ED6D22"/>
<path d="M156.869 14.7458C156.817 14.6875 156.766 14.6291 156.715 14.5689C156.676 14.5222 156.64 14.4774 156.601 14.4308C156.498 14.3044 156.395 14.1741 156.297 14.0438V14.0418C156.05 13.7093 155.823 13.365 155.619 13.0052C155.556 12.8983 155.498 12.7874 155.442 12.6766C155.362 12.5229 155.284 12.3674 155.212 12.2098C155.132 12.0348 155.056 11.8578 154.986 11.677C154.915 11.4903 154.846 11.3016 154.786 11.1091C154.675 10.759 154.58 10.3992 154.506 10.0258C154.454 9.7594 154.473 9.53965 154.644 9.2946C155.02 8.75784 154.862 8.00521 154.3 7.68627C154.014 7.52291 153.862 7.30314 153.724 7.03282C153.545 6.6847 153.339 6.35215 153.108 5.95152C153.894 5.71037 154.64 5.47894 155.387 5.24945C155.638 5.17361 155.887 5.09387 156.136 5.01608C156.361 4.94607 156.587 4.878 156.813 4.81383C156.906 4.7866 156.997 4.75548 157.075 4.71464C157.235 4.63296 157.347 4.50655 157.349 4.2829C157.351 3.9484 157.106 3.82782 156.822 3.74225C154.358 2.99156 151.894 2.23699 149.43 1.48241C147.88 1.00789 146.332 0.521688 144.776 0.0646644C144.529 -0.00729254 144.224 -0.0267386 143.983 0.0452184C139.94 1.26849 135.902 2.5112 131.861 3.7442C131.571 3.83171 131.346 3.96784 131.346 4.29651C131.348 4.61546 131.587 4.72242 131.855 4.8041C132.161 4.89745 132.468 4.9908 132.775 5.08609C133.084 5.17944 133.392 5.27474 133.701 5.36809C135.033 5.77649 136.365 6.18295 137.697 6.59136C137.711 6.59525 137.725 6.59913 137.738 6.60302C137.752 6.60691 137.765 6.6108 137.777 6.61469L137.915 6.65748C137.929 6.66137 137.942 6.66526 137.956 6.66915C137.97 6.67304 137.981 6.67693 137.995 6.68081C138.551 6.85196 139.107 7.02115 139.664 7.19035C139.687 7.19813 139.712 7.2059 139.735 7.21174C139.761 7.21952 139.786 7.2273 139.811 7.23508C139.924 7.27008 140.035 7.30315 140.148 7.33815C140.173 7.34593 140.198 7.35371 140.224 7.36149C140.249 7.36927 140.276 7.37705 140.301 7.38483C141.54 7.76406 142.779 8.14135 144.018 8.51863C144.197 8.57309 144.417 8.59254 144.592 8.54197C145.795 8.18219 146.997 7.81462 148.197 7.44706C148.223 7.43928 148.248 7.4315 148.273 7.42372C148.298 7.41594 148.322 7.40816 148.347 7.40038C148.456 7.36732 148.565 7.33426 148.674 7.3012C148.697 7.29342 148.72 7.28759 148.744 7.27981C148.767 7.27203 148.79 7.26619 148.814 7.25842C149.209 7.13784 149.601 7.01532 149.996 6.89474L150.298 6.7975L150.338 6.78389L150.377 6.77028L150.537 6.71777L150.576 6.70415L150.615 6.69054L151.702 6.33659C152.425 6.77611 152.231 6.69637 152.631 7.46845C152.74 7.67849 152.764 7.85157 152.627 8.08106C152.34 8.57114 152.439 9.05928 152.801 9.49492C152.917 9.63494 153.007 9.85664 153.001 10.0356C152.987 10.3915 152.976 10.7454 152.97 11.1013C152.966 11.2919 152.964 11.4805 152.964 11.6692C152.964 11.8462 152.966 12.0231 152.97 12.2001C152.974 12.3499 152.979 12.4996 152.987 12.6474C152.993 12.7583 152.999 12.8691 153.007 12.978C153.034 13.3475 153.077 13.7132 153.139 14.0788C153.205 14.4716 153.295 14.8625 153.413 15.2495C153.577 15.7863 153.816 16.3172 154.109 16.7995C154.172 16.9045 154.238 17.0057 154.306 17.1049C154.496 17.3791 154.718 17.5833 154.967 17.7194C155.35 17.9275 155.794 17.9761 156.268 17.8789C156.367 17.8575 156.468 17.8322 156.57 17.7991C156.673 17.7661 156.774 17.7252 156.871 17.6825V14.7458H156.869Z" fill="#F0EDFF"/>
<path d="M158.494 16.022C158.401 15.9442 158.312 15.8644 158.22 15.7847C158.181 15.7517 158.146 15.7166 158.109 15.6816V17.1947C158.146 17.1636 158.183 17.1344 158.22 17.1033C158.471 16.8894 158.712 16.6579 158.948 16.407C158.771 16.2554 158.633 16.1387 158.494 16.022Z" fill="#574B9A"/>
<path d="M155.171 11.6812H155.121L155.56 12.7061C156.379 12.8694 156.968 13.5832 156.968 14.4408L156.976 14.8259V14.8687V17.6516V24.5362V25.0457V25.1585V28.2235C156.976 29.1939 156.175 29.9835 155.191 29.9835H146.844H146.49H141.694H141.326H132.987C132.003 29.9835 131.202 29.1939 131.202 28.2235V25.1002V25.0204V24.5303V14.4214C131.202 13.4509 132.003 12.6613 132.987 12.6613H135.972C136.056 12.3346 136.138 12.0079 136.219 11.6812H132.987C131.455 11.6812 130.21 12.9103 130.21 14.4214V24.9679V25.4677V25.5474V28.2235C130.21 29.7346 131.457 30.9637 132.987 30.9637H155.189C156.719 30.9637 157.966 29.7346 157.966 28.2235V25.6V25.4852V24.9718V17.0196V15.8566V15.8138V14.4583V14.4408C157.968 12.918 156.713 11.6812 155.171 11.6812Z" fill="#ED6D22"/>
</svg>
