<svg width="24" height="24" viewBox="0 0 24 24" fill="none" xmlns="http://www.w3.org/2000/svg">
<path d="M13.8323 11.9999L21.6199 4.21211C22.1267 3.70554 22.1267 2.88649 21.6199 2.37993C21.1133 1.87336 20.2943 1.87336 19.7877 2.37993L11.9999 10.1678L4.21228 2.37993C3.70548 1.87336 2.88667 1.87336 2.3801 2.37993C1.8733 2.88649 1.8733 3.70554 2.3801 4.21211L10.1677 11.9999L2.3801 19.7878C1.8733 20.2944 1.8733 21.1134 2.3801 21.62C2.63256 21.8727 2.96449 21.9996 3.29619 21.9996C3.62789 21.9996 3.95959 21.8727 4.21228 21.62L11.9999 13.8321L19.7877 21.62C20.0404 21.8727 20.3721 21.9996 20.7038 21.9996C21.0355 21.9996 21.3672 21.8727 21.6199 21.62C22.1267 21.1134 22.1267 20.2944 21.6199 19.7878L13.8323 11.9999Z" fill="#F0EDFF"/>
</svg>
