<svg width="32" height="28" viewBox="0 0 32 28" fill="none" xmlns="http://www.w3.org/2000/svg">
<g clip-path="url(#clip0_107_40)">
<path d="M19.3154 6.33948H5.77214C4.80743 6.3406 3.88254 6.72616 3.20039 7.41158C2.51823 8.09699 2.13451 9.0263 2.1334 9.99563V22.2178C2.1345 23.1872 2.51822 24.1165 3.20038 24.8019C3.88254 25.4873 4.80742 25.8729 5.77214 25.874H26.1365C27.101 25.8727 28.0257 25.487 28.7076 24.8016C29.3896 24.1162 29.7731 23.187 29.7742 22.2178V10.5347C29.7742 10.2504 29.8865 9.97778 30.0866 9.77678C30.2866 9.57578 30.5579 9.46285 30.8409 9.46285C31.1238 9.46285 31.3951 9.57578 31.5951 9.77678C31.7952 9.97778 31.9076 10.2504 31.9076 10.5347V22.2178C31.9059 23.7553 31.2974 25.2294 30.2155 26.3167C29.1336 27.404 27.6666 28.0157 26.1365 28.0176H5.77214C4.24181 28.0158 2.77467 27.4042 1.69256 26.3169C0.610458 25.2296 0.0017588 23.7555 0 22.2178V9.99563C0.00175879 8.45798 0.610458 6.98382 1.69256 5.89654C2.77467 4.80925 4.24181 4.19764 5.77214 4.19588H19.3154C19.5983 4.19588 19.8696 4.3088 20.0696 4.5098C20.2697 4.7108 20.3821 4.98342 20.3821 5.26768C20.3821 5.55194 20.2697 5.82455 20.0696 6.02556C19.8696 6.22656 19.5983 6.33948 19.3154 6.33948Z" fill="#574B9A"/>
<path d="M25.8379 23.3198H11.3753C11.2352 23.3198 11.0965 23.2921 10.9671 23.2382C10.8377 23.1844 10.7201 23.1054 10.621 23.0059C10.522 22.9064 10.4434 22.7882 10.3898 22.6582C10.3362 22.5281 10.3086 22.3888 10.3086 22.248C10.3086 22.1073 10.3362 21.9679 10.3898 21.8379C10.4434 21.7078 10.522 21.5897 10.621 21.4901C10.7201 21.3906 10.8377 21.3117 10.9671 21.2578C11.0965 21.2039 11.2352 21.1762 11.3753 21.1762H25.8379C26.1208 21.1762 26.3921 21.2891 26.5921 21.4901C26.7922 21.6911 26.9046 21.9638 26.9046 22.248C26.9046 22.5323 26.7922 22.8049 26.5921 23.0059C26.3921 23.2069 26.1208 23.3198 25.8379 23.3198Z" fill="#574B9A"/>
<path d="M26.9039 17.3095C26.904 17.4503 26.8764 17.5897 26.8228 17.7198C26.7693 17.8499 26.6907 17.9681 26.5916 18.0676C26.4926 18.1672 26.3749 18.2461 26.2455 18.2999C26.116 18.3538 25.9772 18.3814 25.8371 18.3813H6.49053C6.20762 18.3813 5.9363 18.2684 5.73626 18.0674C5.53621 17.8664 5.42383 17.5938 5.42383 17.3095C5.42383 17.0253 5.53621 16.7527 5.73626 16.5517C5.9363 16.3507 6.20762 16.2377 6.49053 16.2377H25.8371C25.9772 16.2377 26.116 16.2653 26.2454 16.3191C26.3749 16.373 26.4925 16.4519 26.5916 16.5515C26.6907 16.651 26.7692 16.7692 26.8228 16.8993C26.8764 17.0293 26.9039 17.1687 26.9039 17.3095Z" fill="#574B9A"/>
<path d="M8.42382 22.2483C8.42383 22.482 8.35484 22.7105 8.22559 22.9049C8.09634 23.0993 7.91263 23.2508 7.69769 23.3402C7.48276 23.4297 7.24624 23.4531 7.01807 23.4075C6.78989 23.3619 6.5803 23.2493 6.4158 23.084C6.25129 22.9187 6.13927 22.7081 6.09388 22.4788C6.0485 22.2496 6.07181 22.0119 6.16084 21.7959C6.24988 21.58 6.40066 21.3954 6.5941 21.2655C6.78755 21.1357 7.01497 21.0664 7.24762 21.0664C7.55957 21.0664 7.85874 21.1909 8.07932 21.4126C8.2999 21.6342 8.42382 21.9348 8.42382 22.2483Z" fill="#574B9A"/>
<path d="M6.07061 13.4434C5.7877 13.4434 5.51638 13.3304 5.31634 13.1294C5.11629 12.9284 5.00391 12.6558 5.00391 12.3716C5.00391 12.0873 5.11629 11.8147 5.31634 11.6137C5.51638 11.4127 5.7877 11.2998 6.07061 11.2998H15.9533C16.2362 11.2998 16.5075 11.4127 16.7075 11.6137C16.9076 11.8147 17.02 12.0873 17.02 12.3716C17.02 12.6558 16.9076 12.9284 16.7075 13.1294C16.5075 13.3304 16.2362 13.4434 15.9533 13.4434H6.07061Z" fill="#574B9A"/>
<path d="M25.8534 10.2978C25.6372 10.5145 25.372 10.6754 25.0805 10.7667L22.9699 11.4241C22.6425 11.5263 22.2935 11.5367 21.9607 11.4542C21.6278 11.3718 21.3237 11.1995 21.0811 10.956C20.8386 10.7125 20.6668 10.407 20.5845 10.0726C20.5021 9.73825 20.5121 9.38759 20.6136 9.05852L21.2699 6.93271C21.3619 6.64143 21.5215 6.3763 21.7355 6.15917L27.3316 0.537444C27.5062 0.361682 27.7136 0.222224 27.9419 0.127041C28.1702 0.0318565 28.415 -0.0171871 28.6622 -0.0172863C28.9093 -0.0173864 29.1541 0.0314598 29.3825 0.12646C29.6109 0.22146 29.8184 0.360751 29.9932 0.536373L31.4505 1.99965L31.4516 2.00072C31.8032 2.35592 32.0005 2.83658 32.0003 3.33755C32.0001 3.83852 31.8024 4.31902 31.4505 4.67393L25.8534 10.2978ZM28.6629 2.23095L23.2888 7.63082L22.7928 9.23436L24.3887 8.73825L29.764 3.33733L28.6629 2.23095Z" fill="#574B9A"/>
</g>
<defs>
<clipPath id="clip0_107_40">
<rect width="32" height="28" fill="white" transform="matrix(1 0 0 -1 0 28)"/>
</clipPath>
</defs>
</svg>
