<svg width="15" height="24" viewBox="0 0 15 24" fill="none" xmlns="http://www.w3.org/2000/svg">
<path d="M9.05289 23.9531H5.36244C4.74602 23.9531 4.24458 23.4309 4.24458 22.7889V14.12H2.09149C1.47507 14.12 0.973633 13.5976 0.973633 12.9558V9.24115C0.973633 8.59918 1.47507 8.07697 2.09149 8.07697H4.24458V6.2168C4.24458 4.37238 4.8007 2.80316 5.85262 1.67908C6.9093 0.549866 8.38601 -0.046875 10.1231 -0.046875L12.9376 -0.0421143C13.553 -0.0410156 14.0535 0.481201 14.0535 1.12207V4.57105C14.0535 5.21301 13.5523 5.73523 12.936 5.73523L11.0411 5.73596C10.4631 5.73596 10.316 5.85663 10.2845 5.89362C10.2326 5.95496 10.1709 6.12836 10.1709 6.60718V8.07678H12.7936C12.9911 8.07678 13.1824 8.1275 13.3468 8.22308C13.7014 8.42944 13.9219 8.81964 13.9219 9.24133L13.9205 12.956C13.9205 13.5976 13.419 14.1198 12.8026 14.1198H10.1709V22.7889C10.1709 23.4309 9.66931 23.9531 9.05289 23.9531ZM5.59557 22.5461H8.81975V13.4901C8.81975 13.0615 9.15469 12.7128 9.56611 12.7128H12.5695L12.5707 9.48395H9.56593C9.15451 9.48395 8.81975 9.13532 8.81975 8.70667V6.60718C8.81975 6.0575 8.87338 5.43237 9.27178 4.96252C9.75318 4.39453 10.5118 4.32898 11.0407 4.32898L12.7025 4.32825V1.3645L10.122 1.36011C7.33039 1.36011 5.59557 3.22119 5.59557 6.2168V8.70667C5.59557 9.13513 5.26081 9.48395 4.8494 9.48395H2.32463V12.7128H4.8494C5.26081 12.7128 5.59557 13.0615 5.59557 13.4901V22.5461Z" fill="#221C47"/>
</svg>
