<svg width="24" height="24" viewBox="0 0 24 24" fill="none" xmlns="http://www.w3.org/2000/svg">
<g clip-path="url(#clip0_72_536)">
<path d="M13.0529 23.9531H9.36244C8.74602 23.9531 8.24458 23.4309 8.24458 22.7889V14.12H6.09149C5.47507 14.12 4.97363 13.5976 4.97363 12.9558V9.24115C4.97363 8.59918 5.47507 8.07697 6.09149 8.07697H8.24458V6.2168C8.24458 4.37238 8.8007 2.80316 9.85262 1.67908C10.9093 0.549866 12.386 -0.046875 14.1231 -0.046875L16.9376 -0.0421143C17.553 -0.0410156 18.0535 0.481201 18.0535 1.12207V4.57105C18.0535 5.21301 17.5523 5.73523 16.936 5.73523L15.0411 5.73596C14.4631 5.73596 14.316 5.85663 14.2845 5.89362C14.2326 5.95496 14.1709 6.12836 14.1709 6.60718V8.07678H16.7936C16.9911 8.07678 17.1824 8.1275 17.3468 8.22308C17.7014 8.42944 17.9219 8.81964 17.9219 9.24133L17.9205 12.956C17.9205 13.5976 17.419 14.1198 16.8026 14.1198H14.1709V22.7889C14.1709 23.4309 13.6693 23.9531 13.0529 23.9531ZM9.59557 22.5461H12.8198V13.4901C12.8198 13.0615 13.1547 12.7128 13.5661 12.7128H16.5695L16.5707 9.48395H13.5659C13.1545 9.48395 12.8198 9.13532 12.8198 8.70667V6.60718C12.8198 6.0575 12.8734 5.43237 13.2718 4.96252C13.7532 4.39453 14.5118 4.32898 15.0407 4.32898L16.7025 4.32825V1.3645L14.122 1.36011C11.3304 1.36011 9.59557 3.22119 9.59557 6.2168V8.70667C9.59557 9.13513 9.26081 9.48395 8.8494 9.48395H6.32463V12.7128H8.8494C9.26081 12.7128 9.59557 13.0615 9.59557 13.4901V22.5461Z" fill="#F0EDFF"/>
</g>
<defs>
<clipPath id="clip0_72_536">
<rect width="24" height="24" fill="white"/>
</clipPath>
</defs>
</svg>
