<svg width="60" height="60" viewBox="0 0 60 60" fill="none" xmlns="http://www.w3.org/2000/svg">
<g clip-path="url(#clip0_130_642)">
<path d="M30 60C46.5685 60 60 46.5685 60 30C60 13.4315 46.5685 0 30 0C13.4315 0 0 13.4315 0 30C0 46.5685 13.4315 60 30 60Z" fill="#F1F0FD"/>
<mask id="mask0_130_642" style="mask-type:luminance" maskUnits="userSpaceOnUse" x="14" y="14" width="32" height="32">
<path d="M46 14H14V46H46V14Z" fill="white"/>
</mask>
<g mask="url(#mask0_130_642)">
<path d="M16.9091 14C15.31 14 14 15.31 14 16.9091V21.2727H15.4546H44.5455V35.8182C44.5455 36.6366 43.9093 37.2727 43.0909 37.2727H32.1705C32.1772 37.1483 32.1818 37.0237 32.1818 36.8991C32.1818 34.2479 30.6624 31.8701 28.3494 30.7216C28.9256 30.0293 29.2727 29.1406 29.2727 28.1747C29.2727 25.9777 27.475 24.1818 25.277 24.1818C23.079 24.1818 21.2798 25.9777 21.2798 28.1747C21.2798 29.1406 21.628 30.0293 22.2045 30.7216C19.8917 31.8703 18.3707 34.2479 18.3707 36.8991C18.3707 37.0238 18.3752 37.1484 18.3821 37.2727H16.9091C16.0907 37.2727 15.4546 36.6366 15.4546 35.8182V22.7273H14V35.8182C14 37.4172 15.31 38.7273 16.9091 38.7273H43.0909C44.69 38.7273 46 37.4172 46 35.8182V16.9091C46 15.31 44.69 14 43.0909 14H16.9091ZM16.9091 15.4546H43.0909C43.9093 15.4546 44.5455 16.0907 44.5455 16.9091V19.8182H15.4546V16.9091C15.4546 16.0907 16.0907 15.4546 16.9091 15.4546ZM25.277 25.6364C26.6897 25.6364 27.8182 26.7646 27.8182 28.1747C27.8182 29.5848 26.6897 30.7131 25.277 30.7131C23.8643 30.7131 22.7344 29.5848 22.7344 28.1747C22.7344 26.7646 23.8643 25.6364 25.277 25.6364ZM23.5057 31.7514C24.0404 32.0177 24.6419 32.1676 25.277 32.1676C25.9121 32.1676 26.5137 32.0177 27.0483 31.7514C29.2417 32.503 30.7273 34.5607 30.7273 36.8991C30.7273 37.0239 30.7218 37.1483 30.7131 37.2727H19.8395C19.8308 37.1484 19.8253 37.024 19.8253 36.8991C19.8253 34.5602 21.3121 32.5027 23.5057 31.7514Z" fill="#574B9A"/>
<path d="M21.2727 40.1816C19.9259 40.1816 18.7863 41.114 18.4602 42.3635H14V43.818H18.4602C18.7863 45.0675 19.9259 45.9998 21.2727 45.9998C22.62 45.9998 23.7624 45.0681 24.0881 43.818H46V42.3635H24.0881C23.7624 41.1134 22.62 40.1816 21.2727 40.1816ZM21.2727 41.6362C22.0847 41.6362 22.7273 42.2788 22.7273 43.0907C22.7273 43.9027 22.0847 44.5453 21.2727 44.5453C20.4608 44.5453 19.8182 43.9027 19.8182 43.0907C19.8182 42.2788 20.4608 41.6362 21.2727 41.6362Z" fill="#574B9A"/>
<path d="M35.4442 24.2729C35.3335 24.2113 35.2085 24.1797 35.0818 24.1812C34.955 24.1827 34.8309 24.2174 34.7216 24.2817C34.6124 24.346 34.5219 24.4377 34.459 24.5478C34.3961 24.6579 34.3631 24.7825 34.3633 24.9093V32.182C34.3631 32.3088 34.3961 32.4334 34.459 32.5434C34.5219 32.6535 34.6124 32.7453 34.7216 32.8096C34.8309 32.8739 34.955 32.9085 35.0818 32.9101C35.2085 32.9116 35.3335 32.88 35.4442 32.8184L41.9897 29.182C42.1034 29.1191 42.1981 29.0269 42.2641 28.915C42.33 28.8031 42.3648 28.6755 42.3648 28.5456C42.3648 28.4157 42.33 28.2882 42.2641 28.1763C42.1981 28.0644 42.1034 27.9722 41.9897 27.9093L35.4442 24.2729ZM35.8178 26.1465L40.1374 28.5456L35.8178 30.9462V26.1465Z" fill="#574B9A"/>
<path d="M41.6367 16.9092V18.3637H43.0913V16.9092H41.6367Z" fill="#574B9A"/>
<path d="M38.7275 16.9092V18.3637H40.1821V16.9092H38.7275Z" fill="#574B9A"/>
<path d="M35.8184 16.9092V18.3637H37.2729V16.9092H35.8184Z" fill="#574B9A"/>
<path d="M32.9092 16.9092V18.3637H34.3637V16.9092H32.9092Z" fill="#574B9A"/>
</g>
</g>
<defs>
<clipPath id="clip0_130_642">
<rect width="60" height="60" fill="white"/>
</clipPath>
</defs>
</svg>
