<svg width="60" height="60" viewBox="0 0 60 60" fill="none" xmlns="http://www.w3.org/2000/svg">
<g clip-path="url(#clip0_130_635)">
<path d="M30 60C46.5685 60 60 46.5685 60 30C60 13.4315 46.5685 0 30 0C13.4315 0 0 13.4315 0 30C0 46.5685 13.4315 60 30 60Z" fill="#F1F0FD"/>
<path d="M46.8438 21.9115C46.1606 21.2175 45.2519 20.8346 44.2848 20.8346C43.3178 20.8346 42.4091 21.2175 41.726 21.9128L40.2007 23.4661V18C40.2007 15.7943 38.4345 14 36.2632 14H20.0542C19.7082 14.0282 19.3847 14.1529 19.1243 14.3919L12.4838 21.1615C12.2315 21.4148 12.1373 21.763 12.1006 22.1068V42C12.1006 44.2057 13.8668 46 16.038 46H36.2632C38.4345 46 40.2007 44.2057 40.2007 42V33.8666L46.845 27.1002C48.2472 25.6706 48.2472 23.3424 46.8438 21.9115ZM44.9859 25.2175L34.119 36.2839L32.1599 36.8581L32.7246 34.8554L43.5844 23.7956C43.9574 23.4154 44.6136 23.4154 44.9853 23.7956C45.3698 24.1875 45.3698 24.8255 44.9859 25.2175ZM18.7469 18.5586V20.7695H16.5767L18.7469 18.5586ZM37.5758 42C37.5758 42.7357 36.9868 43.3334 36.2632 43.3334H16.038C15.3145 43.3334 14.7255 42.7357 14.7255 42V23.4362H20.0593C20.7841 23.4362 21.3718 22.8398 21.3718 22.1029V16.6667H36.2632C36.9868 16.6667 37.5758 17.2643 37.5758 18V26.1394L30.627 33.2161C30.47 33.3763 30.3559 33.5729 30.2943 33.7904L29.2557 37.4727H21.1328C20.408 37.4727 19.8203 38.069 19.8203 38.8059C19.8203 39.543 20.408 40.1393 21.1328 40.1393H30.2451C30.3662 40.1393 30.4886 40.1224 30.6084 40.0872L35.172 38.7513C35.386 38.6888 35.5808 38.5717 35.7378 38.4114L37.5758 36.5397V42Z" fill="#574B9A"/>
</g>
<defs>
<clipPath id="clip0_130_635">
<rect width="60" height="60" fill="white"/>
</clipPath>
</defs>
</svg>
