<svg width="24" height="18" viewBox="0 0 24 18" fill="none" xmlns="http://www.w3.org/2000/svg">
<g clip-path="url(#clip0_72_532)">
<path fill-rule="evenodd" clip-rule="evenodd" d="M22.4747 12.874C22.4747 14.922 20.694 16.5854 18.5076 16.5854H5.49206C3.30568 16.5854 1.52487 14.922 1.52487 12.874V5.12632C1.52487 4.44279 1.72493 3.80081 2.07217 3.24982L8.42295 9.19114C9.37308 10.0826 10.6454 10.5738 12.0012 10.5738C13.3541 10.5738 14.6265 10.0826 15.5766 9.19114L21.9274 3.24982C22.2747 3.80081 22.4747 4.44274 22.4747 5.12632V12.874H22.4747ZM18.5076 1.41495H5.49206C4.58918 1.41495 3.75571 1.70082 3.08898 2.17645L9.50366 8.18016C10.1677 8.79869 11.0538 9.14178 12.0012 9.14178C12.9457 9.14178 13.832 8.79869 14.4959 8.18016L20.9106 2.17645C20.2439 1.70082 19.4105 1.41495 18.5076 1.41495ZM18.5076 -0.0170898H5.49206C2.46113 -0.0170898 -0.00585938 2.29084 -0.00585938 5.12636V12.874C-0.00585938 15.7122 2.46113 18.0175 5.49206 18.0175H18.5076C21.5385 18.0175 24.0055 15.7122 24.0055 12.874V5.12632C24.0055 2.29079 21.5385 -0.0170898 18.5076 -0.0170898Z" fill="#F0EDFF"/>
</g>
<defs>
<clipPath id="clip0_72_532">
<rect width="24" height="18" fill="white"/>
</clipPath>
</defs>
</svg>
