<svg width="60" height="60" viewBox="0 0 60 60" fill="none" xmlns="http://www.w3.org/2000/svg">
<g clip-path="url(#clip0_130_713)">
<path d="M30 60C46.5685 60 60 46.5685 60 30C60 13.4315 46.5685 0 30 0C13.4315 0 0 13.4315 0 30C0 46.5685 13.4315 60 30 60Z" fill="#F1F0FD"/>
<mask id="mask0_130_713" style="mask-type:luminance" maskUnits="userSpaceOnUse" x="14" y="16" width="32" height="28">
<path d="M46 44H14V16H46V44Z" fill="white"/>
</mask>
<g mask="url(#mask0_130_713)">
<path d="M33.3154 22.3399H19.7721C18.8074 22.341 17.8825 22.7266 17.2004 23.412C16.5182 24.0974 16.1345 25.0267 16.1334 25.996V38.2182C16.1345 39.1876 16.5182 40.1169 17.2004 40.8023C17.8825 41.4877 18.8074 41.8733 19.7721 41.8744H40.1365C41.101 41.8731 42.0257 41.4874 42.7076 40.802C43.3896 40.1166 43.7731 39.1874 43.7742 38.2182V26.5351C43.7742 26.2508 43.8865 25.9782 44.0866 25.7772C44.2866 25.5762 44.5579 25.4633 44.8409 25.4633C45.1238 25.4633 45.3951 25.5762 45.5951 25.7772C45.7952 25.9782 45.9076 26.2508 45.9076 26.5351V38.2182C45.9059 39.7557 45.2974 41.2298 44.2155 42.3171C43.1336 43.4044 41.6666 44.0161 40.1365 44.018H19.7721C18.2418 44.0162 16.7747 43.4046 15.6926 42.3173C14.6105 41.23 14.0018 39.7559 14 38.2182V25.996C14.0018 24.4584 14.6105 22.9842 15.6926 21.8969C16.7747 20.8097 18.2418 20.198 19.7721 20.1963H33.3154C33.5983 20.1963 33.8696 20.3092 34.0696 20.5102C34.2697 20.7112 34.3821 20.9838 34.3821 21.2681C34.3821 21.5523 34.2697 21.825 34.0696 22.026C33.8696 22.227 33.5983 22.3399 33.3154 22.3399Z" fill="#574B9A"/>
<path d="M39.8379 39.3199H25.3753C25.2352 39.3199 25.0965 39.2922 24.9671 39.2383C24.8377 39.1845 24.7201 39.1055 24.621 39.006C24.522 38.9065 24.4434 38.7883 24.3898 38.6583C24.3362 38.5282 24.3086 38.3889 24.3086 38.2481C24.3086 38.1074 24.3362 37.968 24.3898 37.838C24.4434 37.7079 24.522 37.5898 24.621 37.4902C24.7201 37.3907 24.8377 37.3118 24.9671 37.2579C25.0965 37.204 25.2352 37.1763 25.3753 37.1763H39.8379C40.1208 37.1763 40.3921 37.2892 40.5921 37.4902C40.7922 37.6912 40.9046 37.9639 40.9046 38.2481C40.9046 38.5324 40.7922 38.805 40.5921 39.006C40.3921 39.207 40.1208 39.3199 39.8379 39.3199Z" fill="#574B9A"/>
<path d="M40.9039 33.3096C40.904 33.4504 40.8764 33.5898 40.8228 33.7199C40.7693 33.85 40.6907 33.9682 40.5916 34.0677C40.4926 34.1673 40.3749 34.2462 40.2455 34.3C40.116 34.3539 39.9773 34.3815 39.8371 34.3814H20.4905C20.2076 34.3814 19.9363 34.2685 19.7363 34.0675C19.5362 33.8665 19.4238 33.5939 19.4238 33.3096C19.4238 33.0254 19.5362 32.7528 19.7363 32.5518C19.9363 32.3508 20.2076 32.2378 20.4905 32.2378H39.8371C39.9772 32.2378 40.116 32.2654 40.2454 32.3192C40.3749 32.3731 40.4925 32.452 40.5916 32.5516C40.6907 32.6511 40.7692 32.7693 40.8228 32.8994C40.8764 33.0294 40.9039 33.1688 40.9039 33.3096Z" fill="#574B9A"/>
<path d="M22.4238 38.2483C22.4238 38.482 22.3548 38.7105 22.2256 38.9049C22.0963 39.0993 21.9126 39.2508 21.6977 39.3402C21.4828 39.4297 21.2462 39.4531 21.0181 39.4075C20.7899 39.3619 20.5803 39.2493 20.4158 39.084C20.2513 38.9187 20.1393 38.7081 20.0939 38.4788C20.0485 38.2496 20.0718 38.0119 20.1608 37.7959C20.2499 37.58 20.4007 37.3954 20.5941 37.2655C20.7875 37.1357 21.015 37.0664 21.2476 37.0664C21.5596 37.0664 21.8587 37.1909 22.0793 37.4126C22.2999 37.6342 22.4238 37.9348 22.4238 38.2483Z" fill="#574B9A"/>
<path d="M20.0706 29.4434C19.7877 29.4434 19.5164 29.3304 19.3163 29.1294C19.1163 28.9284 19.0039 28.6558 19.0039 28.3716C19.0039 28.0873 19.1163 27.8147 19.3163 27.6137C19.5164 27.4127 19.7877 27.2998 20.0706 27.2998H29.9533C30.2362 27.2998 30.5075 27.4127 30.7075 27.6137C30.9076 27.8147 31.02 28.0873 31.02 28.3716C31.02 28.6558 30.9076 28.9284 30.7075 29.1294C30.5075 29.3304 30.2362 29.4434 29.9533 29.4434H20.0706Z" fill="#574B9A"/>
<path d="M39.8534 26.298C39.6372 26.5147 39.372 26.6756 39.0805 26.7669L36.9699 27.4243C36.6425 27.5265 36.2935 27.5369 35.9607 27.4544C35.6278 27.372 35.3237 27.1997 35.0811 26.9562C34.8386 26.7127 34.6668 26.4072 34.5845 26.0728C34.5021 25.7384 34.5121 25.3878 34.6136 25.0587L35.2699 22.9329C35.3619 22.6416 35.5215 22.3765 35.7355 22.1594L41.3316 16.5376C41.5062 16.3619 41.7136 16.2224 41.9419 16.1272C42.1702 16.0321 42.415 15.983 42.6622 15.9829C42.9093 15.9828 43.1541 16.0317 43.3825 16.1267C43.6109 16.2217 43.8184 16.361 43.9932 16.5366L45.4505 17.9999L45.4516 18.0009C45.8032 18.3561 46.0005 18.8368 46.0003 19.3377C46.0001 19.8387 45.8024 20.3192 45.4505 20.6741L39.8534 26.298ZM42.6629 18.2311L37.2888 23.631L36.7928 25.2346L38.3887 24.7384L43.764 19.3375L42.6629 18.2311Z" fill="#574B9A"/>
</g>
</g>
<defs>
<clipPath id="clip0_130_713">
<rect width="60" height="60" fill="white"/>
</clipPath>
</defs>
</svg>
