<svg width="60" height="60" viewBox="0 0 60 60" fill="none" xmlns="http://www.w3.org/2000/svg">
<g clip-path="url(#clip0_130_594)">
<path d="M30 60C46.5685 60 60 46.5685 60 30C60 13.4315 46.5685 0 30 0C13.4315 0 0 13.4315 0 30C0 46.5685 13.4315 60 30 60Z" fill="#F1F0FD"/>
<mask id="mask0_130_594" style="mask-type:luminance" maskUnits="userSpaceOnUse" x="13" y="13" width="34" height="33">
<path d="M47 13H13V46H47V13Z" fill="white"/>
</mask>
<g mask="url(#mask0_130_594)">
<path fill-rule="evenodd" clip-rule="evenodd" d="M46.016 28.0569V17.9539C46.016 16.9017 45.5839 15.8914 44.8167 15.1467C44.0479 14.4034 43.005 13.9849 41.9189 13.9849C36.2098 13.9849 23.7905 13.9849 18.0814 13.9849C16.9953 13.9849 15.9525 14.4034 15.1837 15.1467C14.4164 15.8914 13.9844 16.9017 13.9844 17.9539V41.0464C13.9844 42.0986 14.4164 43.1089 15.1837 43.8536C15.9525 44.5969 16.9953 45.0155 18.0814 45.0155H28.5103C29.1271 45.0155 29.6277 44.5305 29.6277 43.933C29.6277 43.3355 29.1271 42.8506 28.5103 42.8506C28.5103 42.8506 22.0325 42.8506 18.0814 42.8506C17.5868 42.8506 17.1145 42.66 16.7644 42.3223C16.4158 41.9831 16.2191 41.5256 16.2191 41.0464V17.9539C16.2191 17.4747 16.4158 17.0172 16.7644 16.678C17.1145 16.3403 17.5868 16.1498 18.0814 16.1498H41.9189C42.4135 16.1498 42.8858 16.3403 43.2359 16.678C43.5846 17.0172 43.7812 17.4747 43.7812 17.9539V28.0569C43.7812 28.6544 44.2818 29.1394 44.8986 29.1394C45.5154 29.1394 46.016 28.6544 46.016 28.0569Z" fill="#574B9A"/>
<path fill-rule="evenodd" clip-rule="evenodd" d="M15.1018 23.3661H44.8986C45.5154 23.3661 46.016 22.8812 46.016 22.2836C46.016 21.6861 45.5154 21.2012 44.8986 21.2012H15.1018C14.485 21.2012 13.9844 21.6861 13.9844 22.2836C13.9844 22.8812 14.485 23.3661 15.1018 23.3661Z" fill="#574B9A"/>
<path fill-rule="evenodd" clip-rule="evenodd" d="M18.8264 19.7582H20.3162C20.933 19.7582 21.4336 19.2732 21.4336 18.6757C21.4336 18.0782 20.933 17.5933 20.3162 17.5933H18.8264C18.2096 17.5933 17.709 18.0782 17.709 18.6757C17.709 19.2732 18.2096 19.7582 18.8264 19.7582Z" fill="#574B9A"/>
<path fill-rule="evenodd" clip-rule="evenodd" d="M24.0412 19.7582H25.5311C26.1478 19.7582 26.6484 19.2732 26.6484 18.6757C26.6484 18.0782 26.1478 17.5933 25.5311 17.5933H24.0412C23.4244 17.5933 22.9238 18.0782 22.9238 18.6757C22.9238 19.2732 23.4244 19.7582 24.0412 19.7582Z" fill="#574B9A"/>
<path fill-rule="evenodd" clip-rule="evenodd" d="M29.2551 19.7582H30.7449C31.3617 19.7582 31.8623 19.2732 31.8623 18.6757C31.8623 18.0782 31.3617 17.5933 30.7449 17.5933H29.2551C28.6383 17.5933 28.1377 18.0782 28.1377 18.6757C28.1377 19.2732 28.6383 19.7582 29.2551 19.7582Z" fill="#574B9A"/>
<path fill-rule="evenodd" clip-rule="evenodd" d="M37.4492 31.3042C34.3652 31.3042 31.8623 33.7289 31.8623 36.7165C31.8623 39.7041 34.3652 42.1288 37.4492 42.1288C40.5332 42.1288 43.0361 39.7041 43.0361 36.7165C43.0361 33.7289 40.5332 31.3042 37.4492 31.3042ZM37.4492 33.4691C39.2996 33.4691 40.8014 34.924 40.8014 36.7165C40.8014 38.5091 39.2996 39.9639 37.4492 39.9639C35.5988 39.9639 34.0971 38.5091 34.0971 36.7165C34.0971 34.924 35.5988 33.4691 37.4492 33.4691Z" fill="#574B9A"/>
<path fill-rule="evenodd" clip-rule="evenodd" d="M41.9191 37.7992H44.8988C45.5156 37.7992 46.0162 37.3143 46.0162 36.7167C46.0162 36.1192 45.5156 35.6343 44.8988 35.6343H41.9191C41.3023 35.6343 40.8018 36.1192 40.8018 36.7167C40.8018 37.3143 41.3023 37.7992 41.9191 37.7992Z" fill="#574B9A"/>
<path fill-rule="evenodd" clip-rule="evenodd" d="M41.4003 34.4205L43.5069 32.3797C43.9435 31.9569 43.9435 31.2713 43.5069 30.8484C43.0704 30.4255 42.3627 30.4255 41.9262 30.8484L39.8196 32.8892C39.3831 33.3121 39.3831 33.9977 39.8196 34.4205C40.2561 34.8434 40.9638 34.8434 41.4003 34.4205Z" fill="#574B9A"/>
<path fill-rule="evenodd" clip-rule="evenodd" d="M38.5668 32.3865V29.4999C38.5668 28.9024 38.0662 28.4175 37.4494 28.4175C36.8326 28.4175 36.332 28.9024 36.332 29.4999V32.3865C36.332 32.984 36.8326 33.469 37.4494 33.469C38.0662 33.469 38.5668 32.984 38.5668 32.3865Z" fill="#574B9A"/>
<path fill-rule="evenodd" clip-rule="evenodd" d="M35.0792 32.8892L32.9726 30.8484C32.536 30.4255 31.8284 30.4255 31.3918 30.8484C30.9553 31.2713 30.9553 31.9569 31.3918 32.3797L33.4985 34.4205C33.935 34.8434 34.6427 34.8434 35.0792 34.4205C35.5157 33.9977 35.5157 33.3121 35.0792 32.8892Z" fill="#574B9A"/>
<path fill-rule="evenodd" clip-rule="evenodd" d="M32.9799 35.6343H30.0002C29.3834 35.6343 28.8828 36.1192 28.8828 36.7167C28.8828 37.3143 29.3834 37.7992 30.0002 37.7992H32.9799C33.5967 37.7992 34.0973 37.3143 34.0973 36.7167C34.0973 36.1192 33.5967 35.6343 32.9799 35.6343Z" fill="#574B9A"/>
<path fill-rule="evenodd" clip-rule="evenodd" d="M33.4985 39.013L31.3918 41.0538C30.9553 41.4766 30.9553 42.1622 31.3918 42.5851C31.8284 43.008 32.536 43.008 32.9726 42.5851L35.0792 40.5443C35.5157 40.1214 35.5157 39.4358 35.0792 39.013C34.6427 38.5901 33.935 38.5901 33.4985 39.013Z" fill="#574B9A"/>
<path fill-rule="evenodd" clip-rule="evenodd" d="M36.332 41.0463V43.9329C36.332 44.5304 36.8326 45.0154 37.4494 45.0154C38.0662 45.0154 38.5668 44.5304 38.5668 43.9329V41.0463C38.5668 40.4488 38.0662 39.9639 37.4494 39.9639C36.8326 39.9639 36.332 40.4488 36.332 41.0463Z" fill="#574B9A"/>
<path fill-rule="evenodd" clip-rule="evenodd" d="M39.8196 40.5443L41.9262 42.5851C42.3627 43.008 43.0704 43.008 43.5069 42.5851C43.9435 42.1622 43.9435 41.4766 43.5069 41.0538L41.4003 39.013C40.9638 38.5901 40.2561 38.5901 39.8196 39.013C39.3831 39.4358 39.3831 40.1214 39.8196 40.5443Z" fill="#574B9A"/>
</g>
</g>
<defs>
<clipPath id="clip0_130_594">
<rect width="60" height="60" fill="white"/>
</clipPath>
</defs>
</svg>
