<svg width="24" height="24" viewBox="0 0 24 24" fill="none" xmlns="http://www.w3.org/2000/svg">
<g clip-path="url(#clip0_40_673)">
<path d="M17.8254 14.2176L15.9841 12.809C15.354 12.329 14.4663 12.3876 13.9048 12.9463L13.1852 13.6658C12.6357 13.5295 12.1246 13.2694 11.6909 12.9055L11.6281 12.8526C11.4533 12.7056 11.2915 12.5437 11.1448 12.3688L11.0937 12.3079C10.7294 11.8739 10.4692 11.3624 10.3329 10.8126L11.052 10.0935C11.6103 9.53254 11.6695 8.64577 11.1907 8.01553L9.78212 6.17616C9.31913 5.56894 8.50046 5.35796 7.80165 5.66569L7.59259 5.75944C6.36236 6.30146 5.55686 7.50638 5.52634 8.85037C5.48073 11.0765 6.24517 13.2435 7.67743 14.9483L7.77118 15.0575C8.12729 15.4812 8.5194 15.8733 8.94306 16.2294L9.05227 16.3232C10.7083 17.7127 12.8005 18.4749 14.9623 18.4761C15.0247 18.4761 15.0887 18.4761 15.154 18.4761C16.4985 18.4446 17.7032 17.6375 18.244 16.4061L18.3377 16.1971C18.6442 15.4981 18.4325 14.6801 17.8254 14.2176ZM17.2193 15.7091V15.7086L17.1255 15.9177C16.775 16.7135 15.9957 17.2347 15.1263 17.2546C15.0705 17.2546 15.0148 17.2546 14.9595 17.2546C13.0851 17.2537 11.2709 16.5932 9.83462 15.389L9.7254 15.2952C9.35546 14.9842 9.01309 14.6419 8.70212 14.2719L8.60837 14.1622C7.36529 12.6826 6.70229 10.8017 6.74275 8.86959C6.76262 8.00011 7.28373 7.22058 8.07962 6.86991L8.28868 6.77616C8.4744 6.69568 8.69106 6.75328 8.81227 6.91538L10.2209 8.75475C10.3311 8.89917 10.3177 9.10275 10.1895 9.23147L9.23884 10.1826C9.10023 10.3211 9.03676 10.5179 9.06821 10.7113C9.21137 11.5889 9.58885 12.4117 10.1609 13.0926L10.212 13.153C10.4038 13.3814 10.615 13.5926 10.8434 13.7844L10.9062 13.8374C11.5868 14.4086 12.409 14.7856 13.286 14.9286C13.4796 14.9602 13.6766 14.8968 13.8152 14.758L14.7663 13.8069C14.8951 13.679 15.0986 13.6656 15.243 13.7755L17.0843 15.1874C17.2438 15.3096 17.2995 15.5248 17.2193 15.7091Z" fill="#221C47"/>
<path d="M20.4848 3.51566C18.2397 1.25779 15.1846 -0.00816349 12.0005 3.96187e-05C5.91954 -0.000241631 0.799623 4.54812 0.0834682 10.5867C-0.212453 13.1205 0.301858 15.6829 1.55253 17.9063L0.54003 21.3923C0.283202 22.2772 0.792311 23.2027 1.67717 23.4595C1.98092 23.5477 2.30346 23.5477 2.60721 23.4595L6.09424 22.448C7.90183 23.4656 9.94117 24.0001 12.0155 24C18.6429 23.9907 24.0079 18.6106 23.9986 11.9832C23.9942 8.8069 22.7306 5.7619 20.4848 3.51566ZM19.6237 19.6238C17.9174 21.3428 15.677 22.43 13.2708 22.7067C10.9122 22.9829 8.52826 22.477 6.48517 21.2667C6.34005 21.1802 6.16553 21.1578 6.0033 21.2048L2.26737 22.29C2.02892 22.3591 1.77959 22.2218 1.7105 21.9833C1.68682 21.9016 1.68682 21.8149 1.7105 21.7331L2.79565 17.9967C2.84271 17.8345 2.82031 17.6599 2.73378 17.5149C1.52351 15.4718 1.01759 13.0878 1.29378 10.7292C1.9377 5.30431 6.53749 1.21846 12.0005 1.21879C17.9548 1.21879 22.7817 6.04568 22.7818 12C22.7818 14.8595 21.6458 17.6019 19.6237 19.6238Z" fill="#221C47"/>
</g>
<defs>
<clipPath id="clip0_40_673">
<rect width="24" height="24" fill="white"/>
</clipPath>
</defs>
</svg>
